<svg width="24" height="24" viewBox="0 0 24 24" fill="none" xmlns="http://www.w3.org/2000/svg">
	<path
		d="M24 9.97854C24 11.1173 23.7065 15.1342 20.2998 18.0875C16.7911 21.4286 13.3333 21.3911 11.9936 21.3911C10.6539 21.3911 7.19617 21.4662 3.6874 18.125C0.293461 15.1467 0 11.1298 0 9.97854C0 9.79083 0.140351 9.65318 0.318979 9.65318C1.5311 9.65318 5.94577 9.90345 9.22488 13.0444C10.6029 14.2582 11.445 15.6223 11.9936 16.9237C12.5295 15.6348 13.3716 14.2582 14.7624 13.0069C18.0542 9.90345 22.4689 9.65318 23.6683 9.65318C23.8469 9.65318 23.9872 9.79083 23.9872 9.97854H24ZM10.1308 12.0683C9.35247 11.3175 8.51037 10.7294 7.66826 10.2538C8.3445 7.37567 9.8118 4.83537 11.6874 3.23361C11.8533 3.09596 12.1467 3.09596 12.3126 3.23361C14.1882 4.83537 15.6555 7.38818 16.3445 10.2789C15.4769 10.7669 14.622 11.3676 13.8309 12.1309C13.1419 12.7316 12.5295 13.4198 11.9936 14.1957C11.4577 13.4198 10.8325 12.7191 10.118 12.0934L10.1308 12.0683Z"
		fill="#51C073" />
</svg>