<svg width="24" height="24" viewBox="0 0 24 24" fill="none" xmlns="http://www.w3.org/2000/svg">
	<g clip-path="url(#clip0_459_15377)">
		<path
			d="M15.325 6.87035H8.64734L2.08789 0V13.7099C2.08789 19.3787 6.49041 24 11.9566 24C17.4228 24 21.914 19.3787 21.914 13.7099V0L15.325 6.87035ZM7.84957 15.4352C7.02225 15.4352 6.19493 14.665 6.19493 13.7099C6.19493 12.7548 7.02225 11.9846 7.84957 11.9846C8.85417 11.9846 9.50421 12.7548 9.50421 13.7099C9.50421 14.665 8.85417 15.4352 7.84957 15.4352ZM16.1523 15.4352C15.2363 15.4352 14.4977 14.665 14.4977 13.7099C14.4977 12.7548 15.2363 11.9846 16.1523 11.9846C17.0683 11.9846 17.8069 12.7548 17.8069 13.7099C17.8069 14.665 17.0683 15.4352 16.1523 15.4352Z"
			fill="#51C073" />
	</g>
	<defs>
		<clipPath id="clip0_459_15377">
			<rect width="24" height="24" fill="white" />
		</clipPath>
	</defs>
</svg>