<svg width="24" height="24" viewBox="0 0 24 24" fill="none" xmlns="http://www.w3.org/2000/svg">
	<path
		d="M20.4186 6.45101H20.683C20.8873 6.45101 21.0436 6.10398 21.0436 5.67858C21.0436 5.25318 20.8873 4.91734 20.683 4.91734H14.025C13.7006 4.17849 12.9194 3.65234 12.006 3.65234C11.0926 3.65234 10.3235 4.17849 9.999 4.91734H3.4011C3.20881 4.91734 3.04056 5.26438 3.04056 5.67858C3.04056 6.09278 3.20881 6.45101 3.4011 6.45101H3.56935L0 11.8804C0 14.0074 1.74261 15.7314 3.88182 15.7314C6.02103 15.7314 7.77566 14.0074 7.77566 11.8804L4.20631 6.45101H9.999C10.1673 6.83163 10.4557 7.15627 10.8282 7.38017V18.8659H6.15323C5.37206 18.8659 4.7351 19.4592 4.7351 20.1981V20.8697H19.3731V20.1981C19.3731 19.4592 18.7361 18.8659 17.9549 18.8659H13.1958V7.38017C13.5684 7.15627 13.8568 6.83163 14.025 6.45101H19.7937L16.2243 11.8804C16.2243 14.0074 17.9549 15.7314 20.1062 15.7314C22.2574 15.7314 24 14.0074 24 11.8804L20.4186 6.45101ZM6.89835 11.4214H0.877316L3.88182 6.83163L6.89835 11.4214ZM17.0896 11.4214L20.1062 6.83163L23.1227 11.4214H17.0896Z"
		fill="#51C073" />
</svg>