<svg width="24" height="24" viewBox="0 0 24 24" fill="none" xmlns="http://www.w3.org/2000/svg">
	<g clip-path="url(#clip0_459_15383)">
		<path
			d="M14.8154 22.1958C14.8154 22.2293 14.6784 22.6707 14.6514 22.7358C14.3724 23.4018 13.715 23.8396 13.0342 24.0005H10.9707C10.2898 23.8396 9.63249 23.4018 9.35352 22.7358C9.32651 22.6713 9.18945 22.2298 9.18945 22.1958V21.188H14.8154V22.1958ZM11.5244 5.68799C16.7019 5.30795 20.1194 10.9569 17.3662 15.3726C16.7156 16.4155 15.8272 16.9022 15.5859 18.2329C15.482 18.8053 15.694 19.6107 14.9678 19.771L9.16309 19.7837C8.29222 19.7066 8.53478 18.8945 8.42676 18.27C8.16947 16.7798 7.15019 16.3116 6.47852 15.1089C4.20322 11.036 6.88241 6.02808 11.5234 5.68701L11.5244 5.68799ZM20.2881 11.3091C20.6938 11.2351 23.0482 11.2351 23.4541 11.3091C24.1939 11.4441 24.1856 12.5909 23.4141 12.7007C22.4811 12.8333 21.2522 12.6193 20.2881 12.6938C19.5547 12.5406 19.5612 11.4412 20.2881 11.3091ZM0.589844 11.3022C1.55222 11.375 2.69314 11.1909 3.63379 11.2983C4.47365 11.395 4.5008 12.6199 3.58789 12.7056C2.64085 12.7947 1.55211 12.6387 0.589844 12.6997C0.28426 12.6503 0.126759 12.4464 0 12.189V11.813C0.126764 11.5549 0.284235 11.3516 0.589844 11.3022ZM11.7119 8.49951C10.3497 8.60401 8.79222 9.73337 8.59082 11.147C8.51061 11.7133 9.13401 12.1143 9.62891 11.855C9.94598 11.6888 9.96941 11.2708 10.1191 10.9849C10.4392 10.3741 11.0401 10.0197 11.7021 9.89697C11.9499 9.85119 12.1161 9.94041 12.375 9.77197C12.9644 9.38871 12.6913 8.54662 12.0264 8.48584C11.9166 8.47586 11.8187 8.49129 11.7119 8.49951ZM19.9814 3.33154C20.5431 3.33453 20.8593 3.98497 20.5078 4.49854C20.3282 4.76023 18.685 6.40346 18.4219 6.58447C17.7003 7.07815 16.9275 6.302 17.4199 5.5835C17.6372 5.26649 19.1257 3.79178 19.4551 3.54053C19.5642 3.45721 19.7312 3.35977 19.8662 3.34033L19.9814 3.33154ZM3.92773 3.34033C4.14367 3.30929 4.35187 3.39275 4.52441 3.51709C4.8133 3.72549 6.39119 5.29956 6.58496 5.58252C7.07717 6.30098 6.30395 7.07772 5.58301 6.5835C5.3211 6.40382 3.67603 4.7606 3.49609 4.49854C3.18783 4.04827 3.37579 3.41978 3.92773 3.33936V3.34033ZM11.8486 0.0131836C12.2779 -0.0643063 12.6561 0.202602 12.7061 0.635254C12.8146 1.58554 12.6333 2.74531 12.6943 3.71729C12.4994 4.49453 11.3904 4.43442 11.2988 3.63428C11.1915 2.69398 11.3755 1.55426 11.3027 0.592285C11.3415 0.320592 11.5769 0.062056 11.8486 0.0131836Z"
			fill="#51C073" />
	</g>
	<defs>
		<clipPath id="clip0_459_15383">
			<rect width="24" height="24" fill="white" />
		</clipPath>
	</defs>
</svg>