<svg width="24" height="24" viewBox="0 0 24 24" fill="none" xmlns="http://www.w3.org/2000/svg">
	<g clip-path="url(#clip0_459_15386)">
		<path
			d="M23.9987 19.8358C23.9987 20.3934 23.4998 20.8697 22.8671 20.8697H1.08497C0.500872 20.8697 0.00195312 20.3934 0.00195312 19.7544C0.00195312 19.1968 0.500872 18.7205 1.13365 18.7205H22.9157C23.5363 18.7205 24.0474 19.1968 23.9987 19.8358ZM22.5385 17.2799H1.49871C1.49871 12.0984 5.61175 7.83471 10.893 7.30029V5.80161H10.102C9.51792 5.80161 9.019 5.24397 9.019 4.68632C9.019 4.12867 9.51792 3.65234 10.102 3.65234H13.8987C14.5193 3.65234 15.0304 4.12867 15.0304 4.73279C15.0304 5.33691 14.5315 5.81323 13.8987 5.81323H13.1442V7.31191C18.4255 7.84632 22.5385 12.11 22.5385 17.2915V17.2799Z"
			fill="#51C073" />
	</g>
	<defs>
		<clipPath id="clip0_459_15386">
			<rect width="24" height="24" fill="white" />
		</clipPath>
	</defs>
</svg>