<svg width="24" height="24" viewBox="0 0 24 24" fill="none" xmlns="http://www.w3.org/2000/svg">
	<path
		d="M12.3779 23.5227C12.9402 24.1591 13.8518 24.1591 14.4141 23.5227L23.5782 13.1522C24.1406 12.5158 24.1406 11.4842 23.5782 10.8478L14.4141 0.477294C13.8518 -0.159097 12.9402 -0.159097 12.3779 0.477294C11.8155 1.11368 11.8155 2.14523 12.3779 2.78162L19.0838 10.3704L1.44001 10.3704C0.644714 10.3704 1.12775e-06 11.1 1.04907e-06 12C9.70393e-07 12.9 0.644713 13.6296 1.44001 13.6296L19.0838 13.6296L12.3779 21.2184C11.8155 21.8548 11.8155 22.8863 12.3779 23.5227Z"
		fill="#FEF7F0" />
</svg>