<svg width="19" height="19" viewBox="0 0 19 19" fill="none" xmlns="http://www.w3.org/2000/svg">
	<g clip-path="url(#clip0_961_2592)">
		<path
			d="M17.8022 14.2059C17.6612 15.4044 16.8504 16.2857 15.8634 16.6382C14.4887 17.0964 13.4311 16.4267 12.3384 16.8144C11.2456 17.2022 10.8226 18.3654 9.44784 18.8237C8.46083 19.1762 7.26231 18.9294 6.4163 18.0834C5.57029 17.2374 5.07679 15.9332 5.14729 14.7346C5.28829 12.1614 6.83931 8.91832 9.37734 8.03705C11.9154 7.15579 15.1232 8.77731 16.8152 10.7513C17.5907 11.6679 17.9785 13.0074 17.8375 14.1706L17.8022 14.2059Z"
			fill="black" />
		<path
			d="M6.2746 7.82539C4.89983 8.49515 3.20781 7.82539 2.4323 6.34487C1.69204 4.8291 2.18554 3.06658 3.52506 2.39682C4.86458 1.72706 6.59185 2.39682 7.36736 3.87734C8.10762 5.39311 7.61411 7.15563 6.2746 7.82539Z"
			fill="black" />
		<path
			d="M3.73634 12.9725C2.78457 13.7128 1.33931 13.466 0.528545 12.4085C-0.282215 11.351 -0.176464 9.90571 0.775298 9.16545C1.72706 8.42519 3.17233 8.67194 3.98309 9.72946C4.79385 10.787 4.6881 12.2322 3.73634 12.9725Z"
			fill="black" />
		<path
			d="M11.6319 6.02712C13.1124 5.74511 14.0642 4.15884 13.7469 2.50207C13.4297 0.845297 11.9844 -0.247467 10.4686 0.0345366C8.95288 0.31654 8.03637 1.90281 8.35362 3.55958C8.67087 5.21635 10.1514 6.30912 11.6319 6.02712Z"
			fill="black" />
		<path
			d="M16.8144 8.53039C18.013 8.53039 19 7.47288 19 6.13336C19 4.79384 18.013 3.73633 16.8144 3.73633C15.6159 3.73633 14.6289 4.79384 14.6289 6.13336C14.6289 7.47288 15.6159 8.53039 16.8144 8.53039Z"
			fill="black" />
	</g>
	<defs>
		<clipPath id="clip0_961_2592">
			<rect width="19" height="19" fill="white" />
		</clipPath>
	</defs>
</svg>