<svg width="42" height="42" viewBox="0 0 42 42" fill="none" xmlns="http://www.w3.org/2000/svg">
	<path
		d="M21 0C32.598 0 42 9.40202 42 21C42 32.598 32.598 42 21 42C9.40202 42 0 32.598 0 21C0 9.40202 9.40202 0 21 0ZM21.0039 10.5C19.3471 10.5 18.0039 11.8431 18.0039 13.5V17.5H13.0039C11.3471 17.5 10.0039 18.8431 10.0039 20.5C10.0039 22.1569 11.3471 23.5 13.0039 23.5H18.0039V28.5C18.0039 30.1569 19.3471 31.5 21.0039 31.5C22.6608 31.5 24.0039 30.1569 24.0039 28.5V23.5H29.0039C30.6608 23.5 32.0039 22.1569 32.0039 20.5C32.0039 18.8431 30.6608 17.5 29.0039 17.5H24.0039V13.5C24.0039 11.8431 22.6608 10.5 21.0039 10.5Z"
		fill="#FEF7F0" />
</svg>