<svg width="1500" height="375" viewBox="0 0 1500 375" fill="none" xmlns="http://www.w3.org/2000/svg">
	<g clip-path="url(#clip0_459_16743)">
		<path d="M205.078 240.997C215.435 282.82 193.536 335.484 160.344 362.34" stroke="#E5DACE" stroke-width="2.26638"
			stroke-linecap="round" stroke-linejoin="round" stroke-dasharray="0.16 3.12" />
		<path d="M201.78 233.729C213.884 278.262 188.927 340.227 151.555 367.144" stroke="#E5DACE" stroke-width="2.26638"
			stroke-linecap="round" stroke-linejoin="round" stroke-dasharray="0.16 3.12" />
		<path d="M197.465 225.66C212.377 271.61 184.238 340.72 146.18 369.423" stroke="#E5DACE" stroke-width="2.26638"
			stroke-linecap="round" stroke-linejoin="round" stroke-dasharray="0.16 3.12" />
		<path d="M194.095 220.671C207.26 268.592 178.934 339.426 141.188 370.84" stroke="#E5DACE" stroke-width="2.26638"
			stroke-linecap="round" stroke-linejoin="round" stroke-dasharray="0.16 3.12" />
		<path d="M190.413 216.421C200.52 266.313 172.881 337.517 135.695 371.887" stroke="#E5DACE" stroke-width="2.26638"
			stroke-linecap="round" stroke-linejoin="round" stroke-dasharray="0.16 3.12" />
		<path d="M186.113 212.171C192.539 250.237 169.704 336.963 129.898 372.565" stroke="#E5DACE" stroke-width="2.26638"
			stroke-linecap="round" stroke-linejoin="round" stroke-dasharray="0.16 3.12" />
		<path d="M181.182 208.045C184.364 262.126 159.532 331.851 123.906 372.874" stroke="#E5DACE" stroke-width="2.26638"
			stroke-linecap="round" stroke-linejoin="round" stroke-dasharray="0.16 3.12" />
		<path d="M175.638 203.918C175.513 259.662 151.804 328.34 117.738 372.689" stroke="#E5DACE" stroke-width="2.26638"
			stroke-linecap="round" stroke-linejoin="round" stroke-dasharray="0.16 3.12" />
		<path d="M169.699 200.037C165.706 257.444 143.495 324.275 111.238 372.196" stroke="#E5DACE" stroke-width="2.26638"
			stroke-linecap="round" stroke-linejoin="round" stroke-dasharray="0.16 3.12" />
		<path
			d="M163.401 196.341C156.913 245.001 140.129 295.694 120.039 340.412C115.235 351.068 110.431 361.293 104.504 371.394"
			stroke="#E5DACE" stroke-width="2.26638" stroke-linecap="round" stroke-linejoin="round"
			stroke-dasharray="0.16 3.12" />
		<path
			d="M156.788 192.891C147.304 241.489 130.895 290.642 112.365 336.592C107.748 347.987 103.131 359.198 97.6406 370.223"
			stroke="#E5DACE" stroke-width="2.26638" stroke-linecap="round" stroke-linejoin="round"
			stroke-dasharray="0.16 3.12" />
		<path
			d="M149.799 189.628C137.009 239.397 120.351 288.981 102.694 337.21C98.8255 347.743 94.9572 358.214 90.5898 368.624"
			stroke="#E5DACE" stroke-width="2.26638" stroke-linecap="round" stroke-linejoin="round"
			stroke-dasharray="0.16 3.12" />
		<path
			d="M142.558 186.609C126.96 235.578 110.426 284.299 94.5786 333.206C90.9599 344.416 87.3411 355.627 83.5977 366.775"
			stroke="#E5DACE" stroke-width="2.26638" stroke-linecap="round" stroke-linejoin="round"
			stroke-dasharray="0.16 3.12" />
		<path
			d="M135.203 183.898C116.735 232.435 99.8269 281.588 85.6641 331.481C82.5445 342.506 79.5497 353.532 76.6797 364.557"
			stroke="#E5DACE" stroke-width="2.26638" stroke-linecap="round" stroke-linejoin="round"
			stroke-dasharray="0.16 3.12" />
		<path
			d="M127.712 181.558C106.748 228.432 89.5906 278.077 77.2995 327.846C74.4919 339.241 71.8714 350.575 69.8125 362.155"
			stroke="#E5DACE" stroke-width="2.26638" stroke-linecap="round" stroke-linejoin="round"
			stroke-dasharray="0.16 3.12" />
		<path
			d="M120.221 179.587C96.6995 224.613 78.918 276.415 68.6858 325.937C66.3773 337.147 64.3808 348.111 63.1953 359.445"
			stroke="#E5DACE" stroke-width="2.26638" stroke-linecap="round" stroke-linejoin="round"
			stroke-dasharray="0.16 3.12" />
		<path
			d="M112.742 177.985C87.2243 220.363 68.6316 274.69 60.4583 323.227C58.5866 334.376 57.1516 345.155 56.7148 356.427"
			stroke="#E5DACE" stroke-width="2.26638" stroke-linecap="round" stroke-linejoin="round"
			stroke-dasharray="0.16 3.12" />
		<path
			d="M105.503 176.816C78.4876 216.053 59.0838 272.535 52.7823 319.779C51.2849 331.112 50.2866 341.83 50.661 353.225"
			stroke="#E5DACE" stroke-width="2.26638" stroke-linecap="round" stroke-linejoin="round"
			stroke-dasharray="0.16 3.12" />
		<path
			d="M98.4541 176.138C69.8164 212.664 50.2255 269.701 45.4838 316.267C44.2983 327.785 43.7992 338.38 44.9222 349.898"
			stroke="#E5DACE" stroke-width="2.26638" stroke-linecap="round" stroke-linejoin="round"
			stroke-dasharray="0.16 3.12" />
		<path
			d="M91.7822 175.891C60.7737 210.138 40.9956 268.715 38.3751 315.096C37.7512 325.998 37.876 335.607 39.6854 346.263"
			stroke="#E5DACE" stroke-width="2.26638" stroke-linecap="round" stroke-linejoin="round"
			stroke-dasharray="0.16 3.12" />
		<path
			d="M85.4693 176.199C52.5266 207.859 31.875 269.146 31.875 314.542C31.875 324.582 32.6861 332.959 34.8698 342.629"
			stroke="#E5DACE" stroke-width="2.26638" stroke-linecap="round" stroke-linejoin="round"
			stroke-dasharray="0.16 3.12" />
		<path
			d="M79.6701 177.062C43.2958 207.12 19.5247 277.831 26.6997 324.52C27.5108 329.633 28.9458 333.945 30.4432 338.811"
			stroke="#E5DACE" stroke-width="2.26638" stroke-linecap="round" stroke-linejoin="round"
			stroke-dasharray="0.16 3.12" />
		<path d="M74.4316 178.355C32.8165 207.736 8.92057 287.256 26.6397 334.869" stroke="#E5DACE" stroke-width="2.26638"
			stroke-linecap="round" stroke-linejoin="round" stroke-dasharray="0.16 3.12" />
		<path d="M67.5628 181.065C27.0083 209.461 3.05001 285.038 23.3896 330.865" stroke="#E5DACE" stroke-width="2.26638"
			stroke-linecap="round" stroke-linejoin="round" stroke-dasharray="0.16 3.12" />
		<path d="M59.5201 185.069C21.5861 213.342 2.11992 277.709 17.905 322.057" stroke="#E5DACE" stroke-width="2.26638"
			stroke-linecap="round" stroke-linejoin="round" stroke-dasharray="0.16 3.12" />
		<path d="M49.7828 191.229C12.4103 220.671 2.3029 273.52 16.029 314.85" stroke="#E5DACE" stroke-width="2.26638"
			stroke-linecap="round" stroke-linejoin="round" stroke-dasharray="0.16 3.12" />
		<path
			d="M107.739 216.644C108.478 216.644 109.043 216.862 109.618 217.262C109.862 217.431 110.13 217.65 110.427 217.905L111.415 218.769L111.425 218.777L111.434 218.786C116.117 223.045 130.323 236.046 155.531 236.046H156.121L156.321 236.125L156.634 236.248L156.643 236.252L156.651 236.255C160.161 237.71 162.449 240.863 162.591 244.651H162.59C163.967 267.85 155.042 312.201 112.482 330.835C111.237 331.538 109.453 331.998 107.864 331.998H107.677C105.981 331.998 104.451 331.576 102.793 330.794V330.795C60.3625 312.226 51.5035 267.823 52.8262 244.629C53.0387 240.858 55.3157 237.711 58.8271 236.255L58.8359 236.252L58.8447 236.248L59.1562 236.125L59.3574 236.046H59.9473C86.0294 236.046 99.6095 223.103 104.084 218.807L104.091 218.801C104.775 218.155 105.336 217.615 105.845 217.262C106.429 216.856 107.009 216.644 107.739 216.644Z"
			fill="#FDF4EB" stroke="#E5DACE" stroke-width="2.26638" />
		<path
			d="M114.658 264.035H100.558L86.6445 250.299V277.709C86.6445 289.042 95.9409 298.281 107.483 298.281C119.026 298.281 128.509 289.042 128.509 277.709V250.299L114.596 264.035H114.658ZM98.8109 281.158C97.0639 281.158 95.3169 279.618 95.3169 277.709C95.3169 275.799 97.0639 274.259 98.8109 274.259C100.932 274.259 102.305 275.799 102.305 277.709C102.305 279.618 100.932 281.158 98.8109 281.158ZM116.405 281.158C114.471 281.158 112.911 279.618 112.911 277.709C112.911 275.799 114.471 274.259 116.405 274.259C118.339 274.259 119.899 275.799 119.899 277.709C119.899 279.618 118.339 281.158 116.405 281.158Z"
			fill="#E5DACE" />
	</g>
	<g clip-path="url(#clip1_459_16743)">
		<path d="M461.908 92.5674C472.162 133.601 450.481 185.272 417.621 211.62" stroke="#E5DACE" stroke-width="3"
			stroke-linecap="round" stroke-linejoin="round" stroke-dasharray="0.16 3.12" />
		<path d="M458.629 85.4365C470.612 129.13 445.905 189.925 408.906 216.335" stroke="#E5DACE" stroke-width="3"
			stroke-linecap="round" stroke-linejoin="round" stroke-dasharray="0.16 3.12" />
		<path d="M454.371 77.5205C469.133 122.604 441.276 190.409 403.598 218.571" stroke="#E5DACE" stroke-width="3"
			stroke-linecap="round" stroke-linejoin="round" stroke-dasharray="0.16 3.12" />
		<path d="M451.035 72.624C464.068 119.641 436.026 189.139 398.656 219.96" stroke="#E5DACE" stroke-width="3"
			stroke-linecap="round" stroke-linejoin="round" stroke-dasharray="0.16 3.12" />
		<path d="M447.393 68.4551C457.399 117.406 430.036 187.266 393.223 220.988" stroke="#E5DACE" stroke-width="3"
			stroke-linecap="round" stroke-linejoin="round" stroke-dasharray="0.16 3.12" />
		<path d="M443.129 64.2852C449.491 101.633 426.884 186.722 387.477 221.653" stroke="#E5DACE" stroke-width="3"
			stroke-linecap="round" stroke-linejoin="round" stroke-dasharray="0.16 3.12" />
		<path d="M438.249 60.2363C441.4 113.297 416.816 181.707 381.547 221.955" stroke="#E5DACE" stroke-width="3"
			stroke-linecap="round" stroke-linejoin="round" stroke-dasharray="0.16 3.12" />
		<path d="M432.75 56.1865C432.626 110.878 409.155 178.261 375.43 221.773" stroke="#E5DACE" stroke-width="3"
			stroke-linecap="round" stroke-linejoin="round" stroke-dasharray="0.16 3.12" />
		<path d="M426.884 52.3789C422.931 108.703 400.942 174.272 369.008 221.289" stroke="#E5DACE" stroke-width="3"
			stroke-linecap="round" stroke-linejoin="round" stroke-dasharray="0.16 3.12" />
		<path
			d="M420.645 48.7539C414.221 96.496 397.605 146.232 377.716 190.107C372.96 200.562 368.204 210.594 362.336 220.505"
			stroke="#E5DACE" stroke-width="3" stroke-linecap="round" stroke-linejoin="round" stroke-dasharray="0.16 3.12" />
		<path
			d="M414.099 45.3701C404.71 93.0518 388.465 141.277 370.12 186.36C365.549 197.541 360.979 208.539 355.543 219.357"
			stroke="#E5DACE" stroke-width="3" stroke-linecap="round" stroke-linejoin="round" stroke-dasharray="0.16 3.12" />
		<path
			d="M407.188 42.166C394.525 90.9959 378.033 139.645 360.553 186.964C356.724 197.298 352.894 207.571 348.57 217.784"
			stroke="#E5DACE" stroke-width="3" stroke-linecap="round" stroke-linejoin="round" stroke-dasharray="0.16 3.12" />
		<path
			d="M400.019 39.2051C384.577 87.2493 368.208 135.052 352.52 183.036C348.937 194.035 345.354 205.033 341.648 215.972"
			stroke="#E5DACE" stroke-width="3" stroke-linecap="round" stroke-linejoin="round" stroke-dasharray="0.16 3.12" />
		<path
			d="M392.727 36.5469C374.444 84.1681 357.705 132.394 343.684 181.344C340.595 192.162 337.63 202.979 334.789 213.797"
			stroke="#E5DACE" stroke-width="3" stroke-linecap="round" stroke-linejoin="round" stroke-dasharray="0.16 3.12" />
		<path
			d="M385.316 34.25C364.562 80.2395 347.576 128.949 335.408 177.778C332.629 188.959 330.034 200.078 327.996 211.44"
			stroke="#E5DACE" stroke-width="3" stroke-linecap="round" stroke-linejoin="round" stroke-dasharray="0.16 3.12" />
		<path
			d="M377.905 32.3154C354.618 76.492 337.015 127.316 326.885 175.904C324.599 186.903 322.623 197.66 321.449 208.78"
			stroke="#E5DACE" stroke-width="3" stroke-linecap="round" stroke-linejoin="round" stroke-dasharray="0.16 3.12" />
		<path
			d="M370.487 30.7451C345.224 72.3231 326.817 125.625 318.726 173.246C316.873 184.185 315.452 194.76 315.02 205.82"
			stroke="#E5DACE" stroke-width="3" stroke-linecap="round" stroke-linejoin="round" stroke-dasharray="0.16 3.12" />
		<path
			d="M363.329 29.5957C336.584 68.0915 317.374 123.509 311.135 169.861C309.653 180.98 308.665 191.496 309.035 202.676"
			stroke="#E5DACE" stroke-width="3" stroke-linecap="round" stroke-linejoin="round" stroke-dasharray="0.16 3.12" />
		<path
			d="M356.346 28.9316C327.995 64.7684 308.6 120.729 303.905 166.417C302.732 177.718 302.238 188.112 303.35 199.413"
			stroke="#E5DACE" stroke-width="3" stroke-linecap="round" stroke-linejoin="round" stroke-dasharray="0.16 3.12" />
		<path
			d="M349.737 28.6895C319.038 62.2902 299.458 119.762 296.864 165.268C296.246 175.965 296.37 185.392 298.161 195.847"
			stroke="#E5DACE" stroke-width="3" stroke-linecap="round" stroke-linejoin="round" stroke-dasharray="0.16 3.12" />
		<path
			d="M343.504 28.9922C310.89 60.0548 290.445 120.186 290.445 164.725C290.445 174.575 291.248 182.794 293.41 192.282"
			stroke="#E5DACE" stroke-width="3" stroke-linecap="round" stroke-linejoin="round" stroke-dasharray="0.16 3.12" />
		<path
			d="M337.756 29.8379C301.746 59.3292 278.213 128.706 285.316 174.515C286.119 179.531 287.539 183.761 289.022 188.535"
			stroke="#E5DACE" stroke-width="3" stroke-linecap="round" stroke-linejoin="round" stroke-dasharray="0.16 3.12" />
		<path d="M332.566 31.1074C291.367 59.934 267.711 137.953 285.252 184.668" stroke="#E5DACE" stroke-width="3"
			stroke-linecap="round" stroke-linejoin="round" stroke-dasharray="0.16 3.12" />
		<path d="M325.77 33.7666C285.621 61.6262 261.902 135.778 282.038 180.74" stroke="#E5DACE" stroke-width="3"
			stroke-linecap="round" stroke-linejoin="round" stroke-dasharray="0.16 3.12" />
		<path d="M317.799 37.6953C280.244 65.4341 260.973 128.587 276.6 172.098" stroke="#E5DACE" stroke-width="3"
			stroke-linecap="round" stroke-linejoin="round" stroke-dasharray="0.16 3.12" />
		<path d="M308.168 43.7373C271.169 72.6243 261.163 124.476 274.752 165.026" stroke="#E5DACE" stroke-width="3"
			stroke-linecap="round" stroke-linejoin="round" stroke-dasharray="0.16 3.12" />
		<path
			d="M384.468 71.7139C390.536 71.7139 396.252 74.3068 400.198 78.916C403.205 82.4252 404.91 86.7609 405.084 91.2998C409.444 92.1797 413.333 94.3963 416.341 97.7119L416.649 98.0596L416.653 98.0645C424.01 106.621 422.916 119.477 414.25 126.729L414.246 126.731C410.534 129.813 405.822 131.558 400.967 131.558C395.11 131.558 389.584 129.143 385.658 124.871L365.249 141.928C368.513 145.971 370.092 151.057 369.655 156.265C369.201 161.681 366.656 166.566 362.484 170.057C358.764 173.19 354.048 174.89 349.199 174.89H348.734L348.685 174.841C342.789 174.708 337.268 172.09 333.468 167.644V167.645C330.461 164.135 328.755 159.799 328.581 155.26C324.071 154.35 320.027 152.011 317.015 148.496V148.497C313.43 144.334 311.747 139.087 312.201 133.67C312.655 128.249 315.246 123.321 319.417 119.832L319.42 119.83C323.136 116.745 327.806 115.045 332.657 115.045C337.873 115.045 342.818 116.965 346.594 120.407L367.218 103.165C364.734 99.3992 363.59 94.9453 363.969 90.3818V90.3809C364.409 85.1292 366.853 80.34 370.798 76.874L371.185 76.543C374.905 73.4113 379.62 71.7139 384.468 71.7139Z"
			fill="#FDF4EB" stroke="#E5DACE" stroke-width="2.26638" />
	</g>
	<g clip-path="url(#clip2_459_16743)">
		<path d="M720.715 240.998C731.072 282.821 709.173 335.485 675.98 362.341" stroke="#E5DACE" stroke-width="3"
			stroke-linecap="round" stroke-linejoin="round" stroke-dasharray="0.16 3.12" />
		<path d="M717.42 233.729C729.524 278.263 704.568 340.228 667.195 367.145" stroke="#E5DACE" stroke-width="3"
			stroke-linecap="round" stroke-linejoin="round" stroke-dasharray="0.16 3.12" />
		<path d="M713.106 225.66C728.018 271.61 699.879 340.72 661.82 369.423" stroke="#E5DACE" stroke-width="3"
			stroke-linecap="round" stroke-linejoin="round" stroke-dasharray="0.16 3.12" />
		<path d="M709.736 220.672C722.901 268.593 694.575 339.427 656.828 370.841" stroke="#E5DACE" stroke-width="3"
			stroke-linecap="round" stroke-linejoin="round" stroke-dasharray="0.16 3.12" />
		<path d="M706.053 216.422C716.161 266.314 688.521 337.518 651.336 371.888" stroke="#E5DACE" stroke-width="3"
			stroke-linecap="round" stroke-linejoin="round" stroke-dasharray="0.16 3.12" />
		<path d="M701.754 212.172C708.18 250.238 685.345 336.964 645.539 372.566" stroke="#E5DACE" stroke-width="3"
			stroke-linecap="round" stroke-linejoin="round" stroke-dasharray="0.16 3.12" />
		<path d="M696.822 208.045C700.004 262.126 675.172 331.851 639.547 372.874" stroke="#E5DACE" stroke-width="3"
			stroke-linecap="round" stroke-linejoin="round" stroke-dasharray="0.16 3.12" />
		<path d="M691.278 203.918C691.153 259.662 667.445 328.34 633.379 372.689" stroke="#E5DACE" stroke-width="3"
			stroke-linecap="round" stroke-linejoin="round" stroke-dasharray="0.16 3.12" />
		<path d="M685.344 200.038C681.351 257.445 659.139 324.276 626.883 372.197" stroke="#E5DACE" stroke-width="3"
			stroke-linecap="round" stroke-linejoin="round" stroke-dasharray="0.16 3.12" />
		<path
			d="M679.042 196.342C672.553 245.002 655.77 295.695 635.68 340.413C630.876 351.069 626.072 361.294 620.145 371.395"
			stroke="#E5DACE" stroke-width="3" stroke-linecap="round" stroke-linejoin="round" stroke-dasharray="0.16 3.12" />
		<path
			d="M672.428 192.892C662.945 241.49 646.536 290.643 628.006 336.593C623.389 347.988 618.772 359.199 613.281 370.224"
			stroke="#E5DACE" stroke-width="3" stroke-linecap="round" stroke-linejoin="round" stroke-dasharray="0.16 3.12" />
		<path
			d="M665.44 189.628C652.65 239.397 635.991 288.981 618.334 337.21C614.466 347.743 610.598 358.214 606.23 368.624"
			stroke="#E5DACE" stroke-width="3" stroke-linecap="round" stroke-linejoin="round" stroke-dasharray="0.16 3.12" />
		<path
			d="M658.202 186.609C642.604 235.578 626.071 284.299 610.223 333.206C606.604 344.416 602.986 355.627 599.242 366.775"
			stroke="#E5DACE" stroke-width="3" stroke-linecap="round" stroke-linejoin="round" stroke-dasharray="0.16 3.12" />
		<path
			d="M650.844 183.899C632.376 232.436 615.468 281.589 601.305 331.482C598.185 342.507 595.19 353.533 592.32 364.558"
			stroke="#E5DACE" stroke-width="3" stroke-linecap="round" stroke-linejoin="round" stroke-dasharray="0.16 3.12" />
		<path
			d="M643.352 181.559C622.389 228.433 605.231 278.078 592.94 327.847C590.132 339.242 587.512 350.576 585.453 362.156"
			stroke="#E5DACE" stroke-width="3" stroke-linecap="round" stroke-linejoin="round" stroke-dasharray="0.16 3.12" />
		<path
			d="M635.862 179.588C612.34 224.614 594.559 276.416 584.326 325.938C582.018 337.148 580.021 348.112 578.836 359.446"
			stroke="#E5DACE" stroke-width="3" stroke-linecap="round" stroke-linejoin="round" stroke-dasharray="0.16 3.12" />
		<path
			d="M628.383 177.986C602.865 220.364 584.272 274.691 576.099 323.228C574.227 334.377 572.792 345.156 572.355 356.428"
			stroke="#E5DACE" stroke-width="3" stroke-linecap="round" stroke-linejoin="round" stroke-dasharray="0.16 3.12" />
		<path
			d="M621.148 176.816C594.132 216.053 574.728 272.535 568.427 319.779C566.929 331.112 565.931 341.83 566.306 353.225"
			stroke="#E5DACE" stroke-width="3" stroke-linecap="round" stroke-linejoin="round" stroke-dasharray="0.16 3.12" />
		<path
			d="M614.095 176.138C585.457 212.664 565.866 269.701 561.124 316.267C559.939 327.785 559.44 338.38 560.563 349.898"
			stroke="#E5DACE" stroke-width="3" stroke-linecap="round" stroke-linejoin="round" stroke-dasharray="0.16 3.12" />
		<path
			d="M607.423 175.892C576.414 210.139 556.636 268.716 554.016 315.097C553.392 325.999 553.517 335.608 555.326 346.264"
			stroke="#E5DACE" stroke-width="3" stroke-linecap="round" stroke-linejoin="round" stroke-dasharray="0.16 3.12" />
		<path d="M601.114 176.2C568.171 207.86 547.52 269.147 547.52 314.543C547.52 324.583 548.331 332.96 550.514 342.63"
			stroke="#E5DACE" stroke-width="3" stroke-linecap="round" stroke-linejoin="round" stroke-dasharray="0.16 3.12" />
		<path
			d="M595.311 177.062C558.936 207.121 535.165 277.832 542.34 324.521C543.151 329.634 544.586 333.946 546.084 338.812"
			stroke="#E5DACE" stroke-width="3" stroke-linecap="round" stroke-linejoin="round" stroke-dasharray="0.16 3.12" />
		<path d="M590.072 178.355C548.457 207.736 524.561 287.256 542.28 334.869" stroke="#E5DACE" stroke-width="3"
			stroke-linecap="round" stroke-linejoin="round" stroke-dasharray="0.16 3.12" />
		<path d="M583.203 181.066C542.649 209.462 518.691 285.039 539.03 330.866" stroke="#E5DACE" stroke-width="3"
			stroke-linecap="round" stroke-linejoin="round" stroke-dasharray="0.16 3.12" />
		<path d="M575.161 185.07C537.227 213.343 517.761 277.71 533.546 322.058" stroke="#E5DACE" stroke-width="3"
			stroke-linecap="round" stroke-linejoin="round" stroke-dasharray="0.16 3.12" />
		<path d="M565.423 191.229C528.051 220.672 517.944 273.521 531.67 314.851" stroke="#E5DACE" stroke-width="3"
			stroke-linecap="round" stroke-linejoin="round" stroke-dasharray="0.16 3.12" />
		<path
			d="M587.466 278.466C587.795 278.466 588.108 278.608 588.323 278.857C588.538 279.107 588.635 279.438 588.587 279.764C588.023 283.603 588.037 289.283 589.781 293.943C590.649 296.26 591.924 298.271 593.713 299.7C595.487 301.117 597.839 302.021 600.983 302.021C604.129 302.02 606.449 301.117 608.166 299.709C609.898 298.289 611.096 296.29 611.863 293.983C613.408 289.338 613.124 283.677 612.172 279.874C612.087 279.535 612.163 279.177 612.378 278.901C612.593 278.626 612.922 278.466 613.271 278.466H625.969C626.303 278.466 626.621 278.613 626.836 278.869C627.051 279.125 627.143 279.462 627.086 279.791C626.422 283.633 626.288 289.349 627.958 294.042C628.787 296.373 630.042 298.397 631.842 299.837C633.627 301.265 636.029 302.183 639.281 302.183C642.535 302.183 644.875 301.265 646.568 299.852C648.277 298.426 649.42 296.417 650.127 294.092C651.551 289.408 651.124 283.695 650.26 279.847C650.184 279.511 650.265 279.159 650.48 278.891C650.696 278.622 651.021 278.466 651.365 278.466H668.979C670.204 278.466 671.479 278.589 672.352 279.488C673.207 280.37 673.389 281.703 673.389 283.217V315.576C673.389 316.202 672.881 316.709 672.255 316.709H570.672C570.046 316.709 569.539 316.202 569.539 315.576V283.217C569.539 281.396 569.82 279.921 571.008 279.113C571.563 278.736 572.2 278.593 572.796 278.528C573.388 278.464 574.071 278.466 574.768 278.466H587.466Z"
			fill="#FDF4EB" stroke="#E5DACE" stroke-width="2.26638" stroke-linejoin="round" />
		<path
			d="M607.257 237.344C607.584 236.883 608.201 236.734 608.702 236.994C609.204 237.254 609.437 237.844 609.249 238.377C606.075 247.368 606.712 255.899 608.19 264.282C609.653 272.576 612.007 280.946 612.007 289.108C612.007 297.672 606.289 302.825 600.254 302.617C597.255 302.514 594.299 301.071 592.117 298.216C589.944 295.372 588.578 291.185 588.578 285.604C588.578 276.726 591.729 266.819 595.602 258.107C599.482 249.377 604.138 241.733 607.257 237.344Z"
			fill="#FDF4EB" stroke="#E5DACE" stroke-width="2.26638" stroke-linecap="round" stroke-linejoin="round" />
		<path
			d="M645.354 237.344C645.682 236.883 646.298 236.734 646.8 236.994C647.301 237.254 647.535 237.844 647.347 238.377C644.173 247.368 644.809 255.899 646.288 264.282C647.751 272.576 650.104 280.946 650.104 289.108C650.104 297.672 644.386 302.825 638.352 302.617C635.353 302.514 632.396 301.071 630.215 298.216C628.042 295.372 626.676 291.185 626.676 285.604C626.676 276.726 629.827 266.819 633.699 258.107C637.58 249.377 642.235 241.733 645.354 237.344Z"
			fill="#FDF4EB" stroke="#E5DACE" stroke-width="2.26638" stroke-linecap="round" stroke-linejoin="round" />
		<path
			d="M576.909 227.799C577.557 225.575 580.708 225.575 581.355 227.799L583.998 236.875C584.445 238.409 585.657 239.599 587.199 240.017L596.169 242.444C598.449 243.062 598.449 246.298 596.169 246.915L587.199 249.343C585.657 249.76 584.445 250.951 583.998 252.484L581.355 261.561C580.708 263.785 577.557 263.785 576.909 261.561L574.267 252.484C573.82 250.951 572.607 249.76 571.065 249.343L562.096 246.915C559.816 246.298 559.816 243.062 562.096 242.444L571.065 240.017C572.607 239.599 573.82 238.409 574.267 236.875L576.909 227.799Z"
			fill="#FDF4EB" stroke="#E5DACE" stroke-width="2.26638" />
		<path
			d="M619.233 200.287C619.881 198.063 623.032 198.063 623.68 200.287L626.322 209.363C626.769 210.897 627.982 212.087 629.523 212.505L638.493 214.933C640.773 215.55 640.773 218.786 638.493 219.403L629.523 221.831C627.982 222.249 626.769 223.439 626.322 224.973L623.68 234.049C623.032 236.273 619.881 236.273 619.233 234.049L616.591 224.973C616.144 223.439 614.931 222.249 613.39 221.831L604.42 219.403C602.14 218.786 602.14 215.55 604.42 214.933L613.39 212.505C614.931 212.087 616.144 210.897 616.591 209.363L619.233 200.287Z"
			fill="#FDF4EB" stroke="#E5DACE" stroke-width="2.26638" />
		<path
			d="M663.673 232.475C664.305 230.222 667.498 230.222 668.131 232.475L670.782 241.917C671.214 243.456 672.417 244.658 673.955 245.09L683.397 247.741C685.65 248.374 685.65 251.567 683.397 252.199L673.955 254.851C672.417 255.283 671.214 256.485 670.782 258.023L668.131 267.466C667.498 269.719 664.305 269.719 663.673 267.466L661.021 258.023C660.59 256.485 659.387 255.283 657.849 254.851L648.406 252.199C646.154 251.567 646.154 248.374 648.406 247.741L657.849 245.09C659.387 244.658 660.59 243.456 661.021 241.917L663.673 232.475Z"
			fill="#FDF4EB" stroke="#E5DACE" stroke-width="2.26638" />
	</g>
	<g clip-path="url(#clip3_459_16743)">
		<path d="M1236.37 241.388C1246.72 282.816 1224.83 334.983 1191.63 361.586" stroke="#4CC9E9" stroke-width="3"
			stroke-linecap="round" stroke-linejoin="round" stroke-dasharray="0.16 3.12" />
		<path d="M1233.07 234.188C1245.17 278.301 1220.22 339.681 1182.84 366.344" stroke="#4CC9E9" stroke-width="3"
			stroke-linecap="round" stroke-linejoin="round" stroke-dasharray="0.16 3.12" />
		<path d="M1228.75 226.195C1243.67 271.712 1215.53 340.17 1177.47 368.602" stroke="#4CC9E9" stroke-width="3"
			stroke-linecap="round" stroke-linejoin="round" stroke-dasharray="0.16 3.12" />
		<path d="M1225.38 221.253C1238.55 268.722 1210.22 338.888 1172.48 370.005" stroke="#4CC9E9" stroke-width="3"
			stroke-linecap="round" stroke-linejoin="round" stroke-dasharray="0.16 3.12" />
		<path d="M1221.7 217.043C1231.81 266.464 1204.17 336.997 1166.98 371.043" stroke="#4CC9E9" stroke-width="3"
			stroke-linecap="round" stroke-linejoin="round" stroke-dasharray="0.16 3.12" />
		<path d="M1217.4 212.833C1223.83 250.54 1200.99 336.448 1161.19 371.714" stroke="#4CC9E9" stroke-width="3"
			stroke-linecap="round" stroke-linejoin="round" stroke-dasharray="0.16 3.12" />
		<path d="M1212.47 208.745C1215.65 262.316 1190.82 331.383 1155.2 372.019" stroke="#4CC9E9" stroke-width="3"
			stroke-linecap="round" stroke-linejoin="round" stroke-dasharray="0.16 3.12" />
		<path d="M1206.93 204.657C1206.8 259.875 1183.09 327.906 1149.03 371.836" stroke="#4CC9E9" stroke-width="3"
			stroke-linecap="round" stroke-linejoin="round" stroke-dasharray="0.16 3.12" />
		<path d="M1200.99 200.813C1197 257.679 1174.78 323.879 1142.53 371.348" stroke="#4CC9E9" stroke-width="3"
			stroke-linecap="round" stroke-linejoin="round" stroke-dasharray="0.16 3.12" />
		<path
			d="M1194.69 197.152C1188.2 245.354 1171.42 295.568 1151.33 339.864C1146.52 350.42 1141.72 360.548 1135.79 370.554"
			stroke="#4CC9E9" stroke-width="3" stroke-linecap="round" stroke-linejoin="round" stroke-dasharray="0.16 3.12" />
		<path
			d="M1188.08 193.735C1178.59 241.875 1162.18 290.565 1143.65 336.081C1139.04 347.369 1134.42 358.473 1128.93 369.395"
			stroke="#4CC9E9" stroke-width="3" stroke-linecap="round" stroke-linejoin="round" stroke-dasharray="0.16 3.12" />
		<path
			d="M1181.09 190.501C1168.3 239.8 1151.64 288.917 1133.98 336.691C1130.11 347.124 1126.25 357.497 1121.88 367.808"
			stroke="#4CC9E9" stroke-width="3" stroke-linecap="round" stroke-linejoin="round" stroke-dasharray="0.16 3.12" />
		<path
			d="M1173.85 187.512C1158.25 236.018 1141.72 284.28 1125.87 332.725C1122.25 343.83 1118.63 354.934 1114.89 365.978"
			stroke="#4CC9E9" stroke-width="3" stroke-linecap="round" stroke-linejoin="round" stroke-dasharray="0.16 3.12" />
		<path
			d="M1166.49 184.827C1148.02 232.906 1131.12 281.596 1116.95 331.017C1113.83 341.939 1110.84 352.86 1107.97 363.782"
			stroke="#4CC9E9" stroke-width="3" stroke-linecap="round" stroke-linejoin="round" stroke-dasharray="0.16 3.12" />
		<path
			d="M1159 182.51C1138.04 228.942 1120.88 278.119 1108.59 327.418C1105.78 338.706 1103.16 349.933 1101.1 361.403"
			stroke="#4CC9E9" stroke-width="3" stroke-linecap="round" stroke-linejoin="round" stroke-dasharray="0.16 3.12" />
		<path
			d="M1151.51 180.556C1127.99 225.157 1110.21 276.47 1099.97 325.525C1097.67 336.63 1095.67 347.49 1094.48 358.717"
			stroke="#4CC9E9" stroke-width="3" stroke-linecap="round" stroke-linejoin="round" stroke-dasharray="0.16 3.12" />
		<path
			d="M1144.03 178.97C1118.51 220.947 1099.92 274.762 1091.75 322.841C1089.88 333.885 1088.44 344.562 1088 355.728"
			stroke="#4CC9E9" stroke-width="3" stroke-linecap="round" stroke-linejoin="round" stroke-dasharray="0.16 3.12" />
		<path
			d="M1136.79 177.811C1109.78 216.677 1090.37 272.626 1084.07 319.424C1082.57 330.651 1081.58 341.267 1081.95 352.555"
			stroke="#4CC9E9" stroke-width="3" stroke-linecap="round" stroke-linejoin="round" stroke-dasharray="0.16 3.12" />
		<path
			d="M1129.74 177.14C1101.11 213.321 1081.51 269.82 1076.77 315.947C1075.59 327.356 1075.09 337.851 1076.21 349.261"
			stroke="#4CC9E9" stroke-width="3" stroke-linecap="round" stroke-linejoin="round" stroke-dasharray="0.16 3.12" />
		<path
			d="M1123.07 176.896C1092.06 210.819 1072.28 268.844 1069.66 314.787C1069.04 325.587 1069.17 335.105 1070.97 345.661"
			stroke="#4CC9E9" stroke-width="3" stroke-linecap="round" stroke-linejoin="round" stroke-dasharray="0.16 3.12" />
		<path
			d="M1116.76 177.2C1083.82 208.561 1063.17 269.27 1063.17 314.238C1063.17 324.183 1063.98 332.481 1066.16 342.06"
			stroke="#4CC9E9" stroke-width="3" stroke-linecap="round" stroke-linejoin="round" stroke-dasharray="0.16 3.12" />
		<path
			d="M1110.96 178.055C1074.58 207.83 1050.81 277.874 1057.99 324.122C1058.8 329.187 1060.23 333.458 1061.73 338.278"
			stroke="#4CC9E9" stroke-width="3" stroke-linecap="round" stroke-linejoin="round" stroke-dasharray="0.16 3.12" />
		<path d="M1105.72 179.336C1064.11 208.44 1040.21 287.209 1057.93 334.373" stroke="#4CC9E9" stroke-width="3"
			stroke-linecap="round" stroke-linejoin="round" stroke-dasharray="0.16 3.12" />
		<path d="M1098.85 182.021C1058.3 210.148 1034.34 285.012 1054.68 330.407" stroke="#4CC9E9" stroke-width="3"
			stroke-linecap="round" stroke-linejoin="round" stroke-dasharray="0.16 3.12" />
		<path d="M1090.81 185.986C1052.88 213.992 1033.41 277.752 1049.19 321.682" stroke="#4CC9E9" stroke-width="3"
			stroke-linecap="round" stroke-linejoin="round" stroke-dasharray="0.16 3.12" />
		<path d="M1081.07 192.089C1043.7 221.254 1033.59 273.604 1047.32 314.544" stroke="#4CC9E9" stroke-width="3"
			stroke-linecap="round" stroke-linejoin="round" stroke-dasharray="0.16 3.12" />
		<path
			d="M1148.39 222.539C1153.22 223.421 1157.77 226.995 1158.87 232.119C1158.99 232.684 1159.04 233.239 1159.09 233.682C1159.1 233.774 1159.11 233.862 1159.12 233.947C1163.83 233.707 1168.37 235.873 1171.57 239.203C1175.02 242.786 1177.06 247.848 1176.06 252.99C1175.63 255.217 1174.3 257.453 1172.54 259.131C1170.79 260.806 1168.48 262.043 1166.04 262.043H1162.16V265.479H1166.6C1166.81 265.478 1167.4 265.372 1168.15 265.185C1168.85 265.009 1169.55 264.802 1169.91 264.678C1173.19 263.556 1175.75 261.294 1177.76 258.372L1178.58 257.172L1179.54 258.267C1186.54 266.247 1186.54 278.386 1179.54 286.365L1178.58 287.461L1177.76 286.26C1175.75 283.338 1173.19 281.073 1169.91 279.954C1169.55 279.83 1168.85 279.623 1168.15 279.447C1167.4 279.26 1166.82 279.153 1166.6 279.153H1162.16V282.589H1166.04C1168.49 282.589 1170.79 283.822 1172.55 285.497C1174.3 287.175 1175.63 289.412 1176.06 291.642C1177.06 296.785 1175.03 301.842 1171.58 305.423C1168.37 308.751 1163.83 310.913 1159.12 310.682C1159.11 310.767 1159.1 310.857 1159.09 310.95C1159.04 311.393 1158.99 311.948 1158.87 312.513C1157.77 317.619 1153.2 321.208 1148.39 322.093L1148.29 322.111H1145.57L1145.42 322.066C1143.4 321.482 1141.52 320.33 1140.52 318.164C1140.44 317.994 1140.29 317.577 1140.17 317.245C1140.11 317.066 1140.05 316.884 1140 316.734C1139.98 316.661 1139.95 316.585 1139.94 316.518C1139.93 316.485 1139.92 316.442 1139.91 316.397C1139.9 316.377 1139.88 316.266 1139.88 316.134V294.866L1141.49 295.626C1142.83 296.255 1144.13 296.645 1145.55 296.879V293.368C1143.72 293.098 1141.99 291.936 1141.04 290.496V290.495C1140.85 290.205 1140.57 289.58 1140.36 289.073C1140.25 288.799 1140.14 288.516 1140.06 288.269C1140.01 288.146 1139.98 288.019 1139.95 287.9C1139.92 287.809 1139.88 287.627 1139.88 287.434V263.258L1141.52 264.087C1142.83 264.745 1144.17 265.221 1145.55 265.403V261.908C1142.55 261.291 1140.16 258.837 1139.88 255.605V255.604C1139.5 251.259 1139.64 246.656 1139.81 242.115C1139.97 237.548 1140.16 233.045 1139.9 228.789L1139.9 228.669L1139.91 228.55C1140.39 225.452 1142.55 223.313 1145.45 222.566L1145.59 222.53H1146.74L1146.66 222.223L1148.39 222.539Z"
			fill="#FDF4EB" stroke="#4CC9E9" stroke-width="2.26638" />
		<path
			d="M1136.46 264.299L1136.45 264.383C1135.81 268.593 1132.52 270.671 1129.33 270.546C1126.41 270.432 1123.6 268.474 1123 264.893H1119.52C1120.12 272.006 1128.45 276.436 1134.77 272.671L1136.48 271.649V316.126C1136.48 316.537 1136.34 316.965 1136.22 317.28C1136.08 317.632 1135.9 318.005 1135.7 318.355C1135.33 319.029 1134.85 319.76 1134.47 320.154V320.155C1133.39 321.272 1132.01 321.657 1131.03 322.031L1130.79 322.125L1130.53 322.103C1130.23 322.077 1129.9 322.094 1129.45 322.116C1129.04 322.136 1128.53 322.16 1128.03 322.098V322.097C1125.59 321.789 1123.22 320.57 1121.34 318.874C1119.47 317.178 1118.01 314.939 1117.49 312.508L1117.41 312.088C1117.34 311.673 1117.31 311.278 1117.27 310.945C1117.26 310.844 1117.25 310.748 1117.24 310.655C1107.08 310.987 1098.66 301.566 1100.24 291.338L1100.44 290.044L1101.69 290.426C1107.52 292.206 1113.78 290.826 1118.62 287.158L1116.26 284.533C1109.19 290.102 1098.71 288.239 1093.89 280.498C1091.12 276.05 1090.98 270.794 1092.48 266.069C1093.9 261.62 1096.81 257.547 1100.53 254.912C1099.08 248.587 1101.12 242.131 1106.09 237.897C1108.84 235.563 1112.55 234.064 1116.19 233.977C1119.59 233.895 1122.98 235.058 1125.36 237.983L1128.23 236.022C1126.03 233.305 1122.91 231.298 1119.53 230.854L1118.02 230.655L1118.64 229.266C1119.43 227.502 1120.89 225.935 1122.55 224.765C1124.21 223.593 1126.16 222.753 1128.04 222.528L1128.11 222.521H1130.77L1130.91 222.556C1133.81 223.302 1135.98 225.442 1136.45 228.54L1136.46 228.625V264.299Z"
			fill="#FDF4EB" stroke="#4CC9E9" stroke-width="2.26638" />
	</g>
	<path d="M977.553 90.5439C987.806 132.367 966.126 185.031 933.266 211.887" stroke="#E5DACE" stroke-width="3"
		stroke-linecap="round" stroke-linejoin="round" stroke-dasharray="0.16 3.12" />
	<path d="M974.274 83.2773C986.257 127.811 961.55 189.775 924.551 216.693" stroke="#E5DACE" stroke-width="3"
		stroke-linecap="round" stroke-linejoin="round" stroke-dasharray="0.16 3.12" />
	<path d="M970.015 75.207C984.778 121.157 956.92 190.267 919.242 218.97" stroke="#E5DACE" stroke-width="3"
		stroke-linecap="round" stroke-linejoin="round" stroke-dasharray="0.16 3.12" />
	<path d="M966.684 70.2178C979.717 118.139 951.674 188.973 914.305 220.387" stroke="#E5DACE" stroke-width="3"
		stroke-linecap="round" stroke-linejoin="round" stroke-dasharray="0.16 3.12" />
	<path d="M963.037 65.9688C973.044 115.861 945.681 187.065 908.867 221.435" stroke="#E5DACE" stroke-width="3"
		stroke-linecap="round" stroke-linejoin="round" stroke-dasharray="0.16 3.12" />
	<path d="M958.778 61.7188C965.14 99.7846 942.533 186.511 903.125 222.113" stroke="#E5DACE" stroke-width="3"
		stroke-linecap="round" stroke-linejoin="round" stroke-dasharray="0.16 3.12" />
	<path d="M953.894 57.5908C957.044 111.671 932.461 181.397 897.191 222.42" stroke="#E5DACE" stroke-width="3"
		stroke-linecap="round" stroke-linejoin="round" stroke-dasharray="0.16 3.12" />
	<path d="M948.398 53.4639C948.275 109.208 924.803 177.886 891.078 222.235" stroke="#E5DACE" stroke-width="3"
		stroke-linecap="round" stroke-linejoin="round" stroke-dasharray="0.16 3.12" />
	<path d="M942.532 49.584C938.579 106.991 916.59 173.822 884.656 221.743" stroke="#E5DACE" stroke-width="3"
		stroke-linecap="round" stroke-linejoin="round" stroke-dasharray="0.16 3.12" />
	<path
		d="M936.285 45.8887C929.861 94.5489 913.246 145.242 893.357 189.96C888.601 200.616 883.844 210.841 877.977 220.942"
		stroke="#E5DACE" stroke-width="3" stroke-linecap="round" stroke-linejoin="round" stroke-dasharray="0.16 3.12" />
	<path
		d="M929.743 42.4395C920.354 91.0381 904.11 140.191 885.765 186.141C881.194 197.536 876.623 208.747 871.188 219.772"
		stroke="#E5DACE" stroke-width="3" stroke-linecap="round" stroke-linejoin="round" stroke-dasharray="0.16 3.12" />
	<path
		d="M922.828 39.1738C910.166 88.9428 893.674 138.527 876.194 186.756C872.364 197.289 868.535 207.76 864.211 218.17"
		stroke="#E5DACE" stroke-width="3" stroke-linecap="round" stroke-linejoin="round" stroke-dasharray="0.16 3.12" />
	<path
		d="M915.659 36.1553C900.218 85.1235 883.849 133.845 868.16 182.752C864.578 193.962 860.995 205.173 857.289 216.321"
		stroke="#E5DACE" stroke-width="3" stroke-linecap="round" stroke-linejoin="round" stroke-dasharray="0.16 3.12" />
	<path
		d="M908.368 33.4463C890.084 81.9833 873.345 131.136 859.324 181.028C856.236 192.054 853.271 203.08 850.43 214.105"
		stroke="#E5DACE" stroke-width="3" stroke-linecap="round" stroke-linejoin="round" stroke-dasharray="0.16 3.12" />
	<path
		d="M900.961 31.1055C880.207 77.9794 863.221 127.625 851.053 177.394C848.273 188.789 845.679 200.123 843.641 211.703"
		stroke="#E5DACE" stroke-width="3" stroke-linecap="round" stroke-linejoin="round" stroke-dasharray="0.16 3.12" />
	<path
		d="M893.549 29.1348C870.263 74.1609 852.659 125.962 842.529 175.485C840.244 186.695 838.267 197.659 837.094 208.993"
		stroke="#E5DACE" stroke-width="3" stroke-linecap="round" stroke-linejoin="round" stroke-dasharray="0.16 3.12" />
	<path
		d="M886.131 27.5332C860.868 69.9107 842.462 124.238 834.37 172.775C832.517 183.923 831.096 194.703 830.664 205.975"
		stroke="#E5DACE" stroke-width="3" stroke-linecap="round" stroke-linejoin="round" stroke-dasharray="0.16 3.12" />
	<path
		d="M878.973 26.3623C852.228 65.5985 833.018 122.081 826.78 169.325C825.297 180.658 824.309 191.376 824.68 202.771"
		stroke="#E5DACE" stroke-width="3" stroke-linecap="round" stroke-linejoin="round" stroke-dasharray="0.16 3.12" />
	<path
		d="M871.991 25.6855C843.639 62.2115 824.244 119.249 819.55 165.815C818.376 177.333 817.882 187.927 818.994 199.446"
		stroke="#E5DACE" stroke-width="3" stroke-linecap="round" stroke-linejoin="round" stroke-dasharray="0.16 3.12" />
	<path
		d="M865.381 25.4385C834.683 59.6854 815.103 118.262 812.508 164.644C811.891 175.546 812.014 185.155 813.806 195.811"
		stroke="#E5DACE" stroke-width="3" stroke-linecap="round" stroke-linejoin="round" stroke-dasharray="0.16 3.12" />
	<path
		d="M859.144 25.7471C826.531 57.407 806.086 118.694 806.086 164.09C806.086 174.13 806.889 182.507 809.051 192.177"
		stroke="#E5DACE" stroke-width="3" stroke-linecap="round" stroke-linejoin="round" stroke-dasharray="0.16 3.12" />
	<path
		d="M853.401 26.6094C817.391 56.6678 793.857 127.379 800.96 174.068C801.763 179.181 803.184 183.492 804.666 188.358"
		stroke="#E5DACE" stroke-width="3" stroke-linecap="round" stroke-linejoin="round" stroke-dasharray="0.16 3.12" />
	<path d="M848.215 27.9023C807.016 57.2833 783.359 136.803 800.901 184.416" stroke="#E5DACE" stroke-width="3"
		stroke-linecap="round" stroke-linejoin="round" stroke-dasharray="0.16 3.12" />
	<path d="M841.414 30.6133C801.266 59.0087 777.547 134.586 797.683 180.413" stroke="#E5DACE" stroke-width="3"
		stroke-linecap="round" stroke-linejoin="round" stroke-dasharray="0.16 3.12" />
	<path d="M833.447 34.6152C795.893 62.8874 776.621 127.254 792.248 171.603" stroke="#E5DACE" stroke-width="3"
		stroke-linecap="round" stroke-linejoin="round" stroke-dasharray="0.16 3.12" />
	<path d="M823.813 40.7764C786.814 70.2189 776.807 123.068 790.396 164.398" stroke="#E5DACE" stroke-width="3"
		stroke-linecap="round" stroke-linejoin="round" stroke-dasharray="0.16 3.12" />
	<path
		d="M889.848 77.1719L890.115 77.3301C890.794 77.7333 891.285 78.2426 891.593 78.8535C891.895 79.4532 891.979 80.0703 891.98 80.6279C891.982 81.1729 891.903 81.7233 891.835 82.1895C891.763 82.6851 891.701 83.1007 891.688 83.501C891.6 86.3848 891.73 89.5472 892.511 92.2334C895.875 89.3686 899.619 87.8798 903.44 87.8467C907.755 87.8093 912.02 89.6301 915.797 93.1436C921.467 98.4193 925.273 106.414 926.989 114.763C928.706 123.113 928.363 131.97 925.566 139.029C920.355 152.187 906.11 163.623 891.965 165.774H891.964C891.437 165.854 890.871 165.894 890.414 165.938C889.926 165.984 889.513 166.038 889.146 166.137L888.973 166.184L888.793 166.175C888.149 166.142 887.477 166.163 886.742 166.185C886.028 166.206 885.254 166.226 884.496 166.173V166.172C878.728 165.768 873.358 163.212 868.872 159.926C867.836 159.167 865.771 157.332 863.877 155.757C862.903 154.947 861.955 154.188 861.146 153.611C860.741 153.323 860.386 153.091 860.092 152.925C859.857 152.792 859.702 152.725 859.614 152.694L859.549 152.675C858.586 152.47 857.802 152.862 857.146 153.713C856.463 154.597 856.039 155.858 855.946 156.93H855.945C855.924 157.174 855.935 157.469 855.942 157.904C855.949 158.298 855.95 158.79 855.878 159.269C855.805 159.748 855.644 160.315 855.25 160.803C854.832 161.319 854.242 161.636 853.524 161.748L853.525 161.749C852.127 161.969 850.316 161.884 848.599 161.613C846.882 161.342 845.127 160.864 843.856 160.215H843.855C842.844 159.697 841.671 158.745 840.746 157.658C839.851 156.606 838.999 155.205 839 153.775C839 153.351 839.113 152.809 839.239 152.313C839.374 151.784 839.554 151.185 839.745 150.598C840.127 149.423 840.565 148.24 840.802 147.643L840.803 147.642C842.741 142.752 845.359 139.252 848.939 137.119C852.514 134.99 856.895 134.317 862.18 134.776C864.665 134.993 867.176 135.462 869.467 135.821C871.801 136.187 873.921 136.44 875.803 136.295C877.658 136.152 879.209 135.626 880.469 134.487C881.741 133.337 882.837 131.454 883.56 128.364C884.902 122.627 885.069 116.19 882.924 110.838L882.709 110.323C881.607 107.787 880.43 105.543 879.304 103.371C878.184 101.212 877.109 99.1126 876.261 96.9307C874.541 92.5082 873.763 87.7729 875.164 81.2793C875.409 80.1433 875.588 78.1873 877.607 77.2725L877.83 77.1719H889.848Z"
		fill="#FDF4EB" stroke="#E5DACE" stroke-width="2.26638" />
	<path
		d="M850.707 96.3516C852.035 96.1455 853.565 96.2218 854.961 96.2979C856.416 96.3772 857.74 96.4566 858.864 96.333L858.899 96.3301L858.935 96.3281C859.38 96.3072 859.755 96.4657 860.019 96.627C860.288 96.7923 860.516 97.0059 860.695 97.2178C860.876 97.4315 861.033 97.6746 861.15 97.9258C861.26 98.1619 861.371 98.4823 861.371 98.835V103.729H866.382C867.4 103.73 867.966 104.511 868.208 104.97C868.478 105.481 868.617 106.068 868.649 106.505C868.779 108.267 868.869 112.348 868.626 114.134C868.562 114.607 868.322 115.127 868.038 115.521C867.888 115.728 867.691 115.952 867.442 116.134C867.198 116.313 866.833 116.5 866.38 116.5H861.369V121.275C861.369 121.994 860.974 122.605 860.594 122.987C860.211 123.373 859.606 123.767 858.893 123.783L858.823 123.785L858.755 123.778C857.639 123.667 856.36 123.74 854.962 123.811C853.615 123.879 852.149 123.946 850.841 123.76V123.759C850.386 123.694 849.9 123.453 849.547 123.199C849.358 123.063 849.15 122.883 848.978 122.66C848.815 122.449 848.604 122.094 848.604 121.633V116.5H843.356C842.921 116.5 842.574 116.317 842.352 116.158C842.12 115.993 841.932 115.79 841.787 115.599C841.52 115.245 841.261 114.742 841.208 114.242L841.163 113.72C841.077 112.491 841.128 111.198 841.183 109.974C841.246 108.539 841.313 107.197 841.22 105.971L841.223 105.97C841.181 105.481 841.411 105.099 841.513 104.946C841.655 104.734 841.831 104.548 841.987 104.405C842.147 104.259 842.325 104.122 842.497 104.014C842.583 103.96 842.686 103.901 842.798 103.853C842.88 103.817 843.091 103.73 843.356 103.729H848.606V98.4775C848.606 98.0583 848.778 97.7224 848.924 97.5078C849.077 97.2836 849.265 97.0985 849.441 96.9551C849.766 96.6915 850.234 96.4258 850.707 96.3525V96.3516Z"
		fill="#FDF4EB" stroke="#E5DACE" stroke-width="2.26638" />
	<g clip-path="url(#clip4_459_16743)">
		<path
			d="M224.338 190.669C223.813 189.873 224.034 188.802 224.83 188.278C226.066 187.463 227.486 187.719 228.558 188.155C229.675 188.611 230.846 189.424 231.998 190.43C234.319 192.46 236.882 195.563 239.197 199.25C241.515 202.941 243.174 206.595 243.977 209.575C244.376 211.054 244.591 212.462 244.516 213.669C244.444 214.825 244.072 216.194 242.87 216.986C242.074 217.51 241.002 217.29 240.478 216.494C239.965 215.714 240.166 214.674 240.921 214.138C240.942 214.106 241.039 213.939 241.069 213.455C241.112 212.77 240.993 211.766 240.644 210.473C239.952 207.907 238.461 204.57 236.273 201.086C234.083 197.598 231.727 194.78 229.725 193.03C228.716 192.147 227.875 191.605 227.256 191.353C226.893 191.205 226.717 191.198 226.66 191.201C225.872 191.67 224.848 191.443 224.338 190.669Z"
			fill="#E5DACE" />
		<path
			d="M208.482 201.437C207.958 200.641 208.178 199.57 208.974 199.045C210.21 198.231 211.631 198.487 212.703 198.923C213.82 199.378 214.991 200.191 216.142 201.198C218.463 203.227 221.027 206.33 223.342 210.017C225.66 213.709 227.319 217.363 228.122 220.342C228.521 221.822 228.735 223.23 228.66 224.437C228.588 225.593 228.216 226.961 227.014 227.753C226.218 228.278 225.147 228.058 224.622 227.261C224.109 226.482 224.31 225.441 225.065 224.906C225.087 224.874 225.184 224.707 225.214 224.223C225.256 223.537 225.137 222.534 224.789 221.241C224.097 218.675 222.605 215.338 220.418 211.854C218.228 208.365 215.871 205.547 213.87 203.797C212.86 202.915 212.019 202.373 211.4 202.12C211.038 201.973 210.861 201.965 210.805 201.969C210.016 202.438 208.992 202.21 208.482 201.437Z"
			fill="#E5DACE" />
		<path
			d="M192.057 211.145C191.532 210.349 191.752 209.278 192.548 208.753C193.784 207.939 195.205 208.195 196.277 208.631C197.394 209.086 198.565 209.899 199.717 210.906C202.038 212.935 204.601 216.038 206.916 219.725C209.234 223.417 210.893 227.071 211.696 230.05C212.095 231.53 212.309 232.938 212.234 234.145C212.162 235.301 211.79 236.669 210.589 237.461C209.792 237.986 208.721 237.766 208.197 236.969C207.683 236.19 207.884 235.149 208.64 234.614C208.661 234.582 208.758 234.415 208.788 233.931C208.831 233.245 208.711 232.242 208.363 230.949C207.671 228.383 206.179 225.046 203.992 221.562C201.802 218.073 199.445 215.255 197.444 213.505C196.434 212.623 195.593 212.081 194.974 211.828C194.612 211.681 194.436 211.673 194.379 211.677C193.591 212.146 192.566 211.918 192.057 211.145Z"
			fill="#E5DACE" />
		<path
			d="M238.635 181.428C238.11 180.632 238.33 179.561 239.127 179.036C240.363 178.222 241.783 178.478 242.855 178.914C243.972 179.369 245.143 180.182 246.295 181.189C248.616 183.219 251.179 186.322 253.494 190.009C255.812 193.7 257.471 197.354 258.274 200.334C258.673 201.813 258.887 203.221 258.812 204.428C258.74 205.584 258.368 206.952 257.167 207.744C256.37 208.269 255.299 208.049 254.775 207.253C254.262 206.473 254.462 205.432 255.218 204.897C255.239 204.865 255.336 204.698 255.366 204.214C255.409 203.529 255.29 202.525 254.941 201.232C254.249 198.666 252.757 195.329 250.57 191.845C248.38 188.357 246.023 185.538 244.022 183.789C243.012 182.906 242.172 182.364 241.553 182.112C241.19 181.964 241.014 181.956 240.957 181.96C240.169 182.429 239.145 182.202 238.635 181.428Z"
			fill="#E5DACE" />
		<path
			d="M252.943 172.185C252.419 171.389 252.639 170.318 253.435 169.793C254.671 168.979 256.092 169.235 257.163 169.671C258.281 170.126 259.452 170.939 260.603 171.946C262.924 173.975 265.488 177.078 267.803 180.765C270.121 184.457 271.779 188.111 272.583 191.09C272.982 192.57 273.196 193.978 273.121 195.185C273.049 196.341 272.677 197.709 271.475 198.501C270.679 199.026 269.608 198.806 269.083 198.009C268.57 197.23 268.771 196.189 269.526 195.654C269.548 195.622 269.645 195.455 269.675 194.971C269.717 194.285 269.598 193.282 269.25 191.989C268.558 189.423 267.066 186.086 264.879 182.602C262.689 179.114 260.332 176.295 258.331 174.545C257.321 173.663 256.48 173.121 255.861 172.868C255.499 172.721 255.322 172.713 255.265 172.717C254.477 173.186 253.453 172.958 252.943 172.185Z"
			fill="#E5DACE" />
		<path
			d="M267.236 162.95C266.712 162.153 266.932 161.082 267.728 160.558C268.964 159.744 270.385 159.999 271.456 160.436C272.574 160.891 273.745 161.704 274.896 162.711C277.217 164.74 279.781 167.843 282.096 171.53C284.414 175.222 286.072 178.875 286.876 181.855C287.275 183.335 287.489 184.743 287.414 185.95C287.342 187.106 286.97 188.474 285.768 189.266C284.972 189.79 283.901 189.57 283.376 188.774C282.863 187.995 283.064 186.954 283.819 186.418C283.841 186.387 283.938 186.219 283.968 185.736C284.01 185.05 283.891 184.046 283.543 182.753C282.851 180.187 281.359 176.85 279.172 173.366C276.981 169.878 274.625 167.06 272.624 165.31C271.614 164.427 270.773 163.885 270.154 163.633C269.792 163.486 269.615 163.478 269.558 163.481C268.77 163.95 267.746 163.723 267.236 162.95Z"
			fill="#E5DACE" />
	</g>
	<g clip-path="url(#clip5_459_16743)">
		<path
			d="M736.018 190.67C735.493 189.874 735.713 188.803 736.509 188.278C737.745 187.464 739.166 187.72 740.238 188.156C741.355 188.611 742.526 189.425 743.678 190.431C745.999 192.461 748.562 195.564 750.877 199.251C753.195 202.942 754.854 206.596 755.657 209.576C756.056 211.055 756.27 212.463 756.195 213.67C756.123 214.826 755.751 216.195 754.549 216.987C753.753 217.511 752.682 217.291 752.158 216.495C751.644 215.715 751.845 214.675 752.601 214.139C752.622 214.107 752.719 213.94 752.749 213.456C752.792 212.771 752.672 211.767 752.324 210.474C751.632 207.908 750.14 204.571 747.953 201.087C745.763 197.599 743.406 194.781 741.405 193.031C740.395 192.148 739.554 191.606 738.935 191.354C738.573 191.206 738.397 191.199 738.34 191.202C737.552 191.671 736.527 191.444 736.018 190.67Z"
			fill="#E5DACE" />
		<path
			d="M720.162 201.437C719.638 200.641 719.858 199.57 720.654 199.045C721.89 198.231 723.311 198.487 724.382 198.923C725.499 199.378 726.671 200.191 727.822 201.198C730.143 203.227 732.707 206.33 735.021 210.017C737.339 213.709 738.998 217.363 739.802 220.342C740.2 221.822 740.415 223.23 740.34 224.437C740.268 225.593 739.896 226.961 738.694 227.753C737.898 228.278 736.827 228.058 736.302 227.261C735.789 226.482 735.99 225.441 736.745 224.906C736.766 224.874 736.863 224.707 736.893 224.223C736.936 223.537 736.817 222.534 736.468 221.241C735.776 218.675 734.285 215.338 732.097 211.854C729.907 208.365 727.551 205.547 725.549 203.797C724.54 202.915 723.699 202.373 723.08 202.12C722.718 201.973 722.541 201.965 722.484 201.969C721.696 202.438 720.672 202.21 720.162 201.437Z"
			fill="#E5DACE" />
		<path
			d="M703.736 211.145C703.212 210.349 703.432 209.278 704.228 208.753C705.464 207.939 706.885 208.195 707.956 208.631C709.074 209.086 710.245 209.899 711.396 210.906C713.717 212.935 716.281 216.038 718.596 219.725C720.914 223.417 722.572 227.071 723.376 230.05C723.775 231.53 723.989 232.938 723.914 234.145C723.842 235.301 723.47 236.669 722.268 237.461C721.472 237.986 720.401 237.766 719.876 236.969C719.363 236.19 719.564 235.149 720.319 234.614C720.341 234.582 720.438 234.415 720.468 233.931C720.51 233.245 720.391 232.242 720.043 230.949C719.351 228.383 717.859 225.046 715.672 221.562C713.481 218.073 711.125 215.255 709.124 213.505C708.114 212.623 707.273 212.081 706.654 211.828C706.292 211.681 706.115 211.673 706.058 211.677C705.27 212.146 704.246 211.918 703.736 211.145Z"
			fill="#E5DACE" />
		<path
			d="M750.314 181.428C749.79 180.632 750.01 179.561 750.806 179.036C752.042 178.222 753.463 178.478 754.535 178.914C755.652 179.369 756.823 180.182 757.974 181.189C760.295 183.219 762.859 186.322 765.174 190.009C767.492 193.7 769.151 197.354 769.954 200.334C770.353 201.813 770.567 203.221 770.492 204.428C770.42 205.584 770.048 206.952 768.846 207.744C768.05 208.269 766.979 208.049 766.454 207.253C765.941 206.473 766.142 205.432 766.897 204.897C766.919 204.865 767.016 204.698 767.046 204.214C767.088 203.529 766.969 202.525 766.621 201.232C765.929 198.666 764.437 195.329 762.25 191.845C760.06 188.357 757.703 185.538 755.702 183.789C754.692 182.906 753.851 182.364 753.232 182.112C752.87 181.964 752.693 181.956 752.637 181.96C751.848 182.429 750.824 182.202 750.314 181.428Z"
			fill="#E5DACE" />
		<path
			d="M764.623 172.185C764.098 171.389 764.319 170.318 765.115 169.793C766.351 168.979 767.772 169.235 768.843 169.671C769.96 170.126 771.132 170.939 772.283 171.946C774.604 173.975 777.167 177.078 779.482 180.765C781.8 184.457 783.459 188.111 784.262 191.09C784.661 192.57 784.876 193.978 784.801 195.185C784.729 196.341 784.357 197.709 783.155 198.501C782.359 199.026 781.288 198.806 780.763 198.009C780.25 197.23 780.451 196.189 781.206 195.654C781.227 195.622 781.324 195.455 781.354 194.971C781.397 194.285 781.278 193.282 780.929 191.989C780.237 189.423 778.746 186.086 776.558 182.602C774.368 179.114 772.012 176.295 770.01 174.545C769.001 173.663 768.16 173.121 767.541 172.868C767.179 172.721 767.002 172.713 766.945 172.717C766.157 173.186 765.133 172.958 764.623 172.185Z"
			fill="#E5DACE" />
		<path
			d="M778.916 162.95C778.391 162.153 778.612 161.082 779.408 160.558C780.644 159.744 782.065 159.999 783.136 160.436C784.253 160.891 785.425 161.704 786.576 162.711C788.897 164.74 791.46 167.843 793.775 171.53C796.093 175.222 797.752 178.875 798.555 181.855C798.954 183.335 799.169 184.743 799.094 185.95C799.022 187.106 798.65 188.474 797.448 189.266C796.652 189.79 795.581 189.57 795.056 188.774C794.543 187.995 794.744 186.954 795.499 186.418C795.52 186.387 795.617 186.219 795.647 185.736C795.69 185.05 795.571 184.046 795.222 182.753C794.53 180.187 793.039 176.85 790.851 173.366C788.661 169.878 786.305 167.06 784.303 165.31C783.294 164.427 782.453 163.885 781.834 163.633C781.471 163.486 781.295 163.478 781.238 163.481C780.45 163.95 779.426 163.723 778.916 162.95Z"
			fill="#E5DACE" />
	</g>
	<g clip-path="url(#clip6_459_16743)">
		<path
			d="M1254.21 190.669C1253.68 189.873 1253.9 188.802 1254.7 188.278C1255.93 187.463 1257.35 187.719 1258.43 188.155C1259.54 188.611 1260.71 189.424 1261.87 190.43C1264.19 192.46 1266.75 195.563 1269.06 199.25C1271.38 202.941 1273.04 206.595 1273.84 209.575C1274.24 211.054 1274.46 212.462 1274.38 213.669C1274.31 214.825 1273.94 216.194 1272.74 216.986C1271.94 217.51 1270.87 217.29 1270.35 216.494C1269.83 215.714 1270.03 214.674 1270.79 214.138C1270.81 214.106 1270.91 213.939 1270.94 213.455C1270.98 212.77 1270.86 211.766 1270.51 210.473C1269.82 207.907 1268.33 204.57 1266.14 201.086C1263.95 197.598 1261.59 194.78 1259.59 193.03C1258.58 192.147 1257.74 191.605 1257.12 191.353C1256.76 191.205 1256.58 191.198 1256.53 191.201C1255.74 191.67 1254.71 191.443 1254.21 190.669Z"
			fill="#4CC9E9" />
		<path
			d="M1238.35 201.437C1237.83 200.641 1238.05 199.57 1238.85 199.045C1240.08 198.231 1241.5 198.487 1242.57 198.923C1243.69 199.378 1244.86 200.191 1246.01 201.198C1248.33 203.227 1250.9 206.33 1253.21 210.017C1255.53 213.709 1257.19 217.363 1257.99 220.342C1258.39 221.822 1258.61 223.23 1258.53 224.437C1258.46 225.593 1258.09 226.961 1256.89 227.753C1256.09 228.278 1255.02 228.058 1254.49 227.261C1253.98 226.482 1254.18 225.441 1254.94 224.906C1254.96 224.874 1255.05 224.707 1255.08 224.223C1255.13 223.537 1255.01 222.534 1254.66 221.241C1253.97 218.675 1252.48 215.338 1250.29 211.854C1248.1 208.365 1245.74 205.547 1243.74 203.797C1242.73 202.915 1241.89 202.373 1241.27 202.12C1240.91 201.973 1240.73 201.965 1240.68 201.969C1239.89 202.438 1238.86 202.21 1238.35 201.437Z"
			fill="#4CC9E9" />
		<path
			d="M1221.92 211.145C1221.4 210.349 1221.62 209.278 1222.42 208.753C1223.65 207.939 1225.07 208.195 1226.14 208.631C1227.26 209.086 1228.43 209.899 1229.58 210.906C1231.9 212.935 1234.47 216.038 1236.78 219.725C1239.1 223.417 1240.76 227.071 1241.56 230.05C1241.96 231.53 1242.18 232.938 1242.1 234.145C1242.03 235.301 1241.66 236.669 1240.46 237.461C1239.66 237.986 1238.59 237.766 1238.06 236.969C1237.55 236.19 1237.75 235.149 1238.51 234.614C1238.53 234.582 1238.63 234.415 1238.66 233.931C1238.7 233.245 1238.58 232.242 1238.23 230.949C1237.54 228.383 1236.05 225.046 1233.86 221.562C1231.67 218.073 1229.31 215.255 1227.31 213.505C1226.3 212.623 1225.46 212.081 1224.84 211.828C1224.48 211.681 1224.3 211.673 1224.25 211.677C1223.46 212.146 1222.43 211.918 1221.92 211.145Z"
			fill="#4CC9E9" />
		<path
			d="M1268.51 181.428C1267.98 180.632 1268.2 179.561 1269 179.036C1270.23 178.222 1271.65 178.478 1272.73 178.914C1273.84 179.369 1275.01 180.182 1276.17 181.189C1278.49 183.219 1281.05 186.322 1283.37 190.009C1285.68 193.7 1287.34 197.354 1288.15 200.334C1288.54 201.813 1288.76 203.221 1288.68 204.428C1288.61 205.584 1288.24 206.952 1287.04 207.744C1286.24 208.269 1285.17 208.049 1284.65 207.253C1284.13 206.473 1284.33 205.432 1285.09 204.897C1285.11 204.865 1285.21 204.698 1285.24 204.214C1285.28 203.529 1285.16 202.525 1284.81 201.232C1284.12 198.666 1282.63 195.329 1280.44 191.845C1278.25 188.357 1275.89 185.538 1273.89 183.789C1272.88 182.906 1272.04 182.364 1271.42 182.112C1271.06 181.964 1270.88 181.956 1270.83 181.96C1270.04 182.429 1269.02 182.202 1268.51 181.428Z"
			fill="#E5DACE" />
		<path
			d="M1282.81 172.185C1282.29 171.389 1282.51 170.318 1283.3 169.793C1284.54 168.979 1285.96 169.235 1287.03 169.671C1288.15 170.126 1289.32 170.939 1290.47 171.946C1292.79 173.975 1295.35 177.078 1297.67 180.765C1299.99 184.457 1301.65 188.111 1302.45 191.09C1302.85 192.57 1303.06 193.978 1302.99 195.185C1302.92 196.341 1302.54 197.709 1301.34 198.501C1300.55 199.026 1299.48 198.806 1298.95 198.009C1298.44 197.23 1298.64 196.189 1299.39 195.654C1299.41 195.622 1299.51 195.455 1299.54 194.971C1299.58 194.285 1299.47 193.282 1299.12 191.989C1298.42 189.423 1296.93 186.086 1294.75 182.602C1292.56 179.114 1290.2 176.295 1288.2 174.545C1287.19 173.663 1286.35 173.121 1285.73 172.868C1285.37 172.721 1285.19 172.713 1285.13 172.717C1284.34 173.186 1283.32 172.958 1282.81 172.185Z"
			fill="#E5DACE" />
		<path
			d="M1297.1 162.95C1296.58 162.153 1296.8 161.082 1297.6 160.558C1298.83 159.744 1300.25 159.999 1301.32 160.436C1302.44 160.891 1303.61 161.704 1304.76 162.711C1307.08 164.74 1309.65 167.843 1311.96 171.53C1314.28 175.222 1315.94 178.875 1316.74 181.855C1317.14 183.335 1317.36 184.743 1317.28 185.95C1317.21 187.106 1316.84 188.474 1315.64 189.266C1314.84 189.79 1313.77 189.57 1313.24 188.774C1312.73 187.995 1312.93 186.954 1313.69 186.418C1313.71 186.387 1313.8 186.219 1313.83 185.736C1313.88 185.05 1313.76 184.046 1313.41 182.753C1312.72 180.187 1311.23 176.85 1309.04 173.366C1306.85 169.878 1304.49 167.06 1302.49 165.31C1301.48 164.427 1300.64 163.885 1300.02 163.633C1299.66 163.486 1299.48 163.478 1299.43 163.481C1298.64 163.95 1297.61 163.723 1297.1 162.95Z"
			fill="#E5DACE" />
	</g>
	<path
		d="M492.735 222.595C492.266 223.425 491.212 223.717 490.382 223.248C489.094 222.519 488.674 221.138 488.573 219.985C488.469 218.784 488.658 217.37 489.029 215.886C489.777 212.895 491.369 209.199 493.595 205.457C495.823 201.711 498.318 198.568 500.603 196.495C501.738 195.465 502.894 194.632 504.002 194.148C505.064 193.685 506.451 193.392 507.704 194.1C508.534 194.57 508.826 195.624 508.357 196.453C507.897 197.266 506.88 197.561 506.058 197.134C506.02 197.129 505.827 197.119 505.383 197.313C504.754 197.587 503.915 198.151 502.923 199.051C500.955 200.837 498.665 203.687 496.562 207.222C494.457 210.762 493.024 214.144 492.379 216.724C492.054 218.025 491.955 219.02 492.013 219.686C492.047 220.076 492.12 220.236 492.149 220.286C492.926 220.773 493.191 221.788 492.735 222.595Z"
		fill="#E5DACE" />
	<path
		d="M509.552 231.794C509.082 232.624 508.029 232.916 507.199 232.447C505.91 231.718 505.49 230.337 505.39 229.185C505.285 227.983 505.475 226.57 505.846 225.086C506.593 222.095 508.186 218.398 510.411 214.656C512.639 210.91 515.134 207.768 517.42 205.694C518.555 204.664 519.71 203.831 520.818 203.347C521.88 202.884 523.267 202.591 524.52 203.3C525.35 203.769 525.643 204.823 525.173 205.653C524.714 206.465 523.696 206.761 522.875 206.333C522.837 206.328 522.644 206.318 522.2 206.512C521.57 206.787 520.731 207.351 519.739 208.251C517.771 210.036 515.482 212.886 513.379 216.421C511.273 219.961 509.84 223.344 509.195 225.923C508.87 227.224 508.771 228.219 508.829 228.885C508.863 229.275 508.937 229.436 508.966 229.485C509.743 229.972 510.007 230.987 509.552 231.794Z"
		fill="#E5DACE" />
	<path
		d="M525.68 241.982C525.211 242.812 524.157 243.105 523.327 242.635C522.039 241.907 521.619 240.526 521.519 239.373C521.414 238.171 521.604 236.758 521.974 235.274C522.722 232.283 524.314 228.587 526.54 224.845C528.768 221.099 531.263 217.956 533.549 215.882C534.684 214.853 535.839 214.02 536.947 213.536C538.009 213.073 539.396 212.78 540.649 213.488C541.479 213.958 541.772 215.011 541.302 215.841C540.843 216.653 539.825 216.949 539.004 216.521C538.966 216.517 538.773 216.507 538.329 216.7C537.699 216.975 536.86 217.539 535.868 218.439C533.9 220.225 531.611 223.074 529.508 226.61C527.402 230.15 525.969 233.532 525.324 236.111C524.999 237.412 524.9 238.408 524.958 239.074C524.992 239.464 525.066 239.624 525.095 239.673C525.871 240.161 526.136 241.176 525.68 241.982Z"
		fill="#E5DACE" />
	<path
		d="M477.993 214.084C477.524 214.914 476.47 215.206 475.64 214.737C474.352 214.008 473.931 212.627 473.831 211.475C473.727 210.273 473.916 208.86 474.287 207.376C475.035 204.385 476.627 200.688 478.852 196.947C481.081 193.2 483.576 190.058 485.861 187.984C486.996 186.954 488.151 186.121 489.26 185.638C490.321 185.174 491.709 184.881 492.962 185.59C493.792 186.059 494.084 187.113 493.615 187.943C493.155 188.755 492.137 189.051 491.316 188.623C491.278 188.618 491.085 188.608 490.641 188.802C490.012 189.077 489.173 189.641 488.181 190.541C486.213 192.326 483.923 195.176 481.82 198.711C479.715 202.251 478.281 205.634 477.637 208.213C477.312 209.514 477.213 210.509 477.271 211.175C477.304 211.565 477.378 211.726 477.407 211.775C478.184 212.262 478.449 213.277 477.993 214.084Z"
		fill="#E5DACE" />
	<path
		d="M463.239 205.568C462.77 206.398 461.716 206.691 460.886 206.221C459.598 205.493 459.177 204.112 459.077 202.959C458.973 201.757 459.162 200.344 459.533 198.86C460.281 195.869 461.873 192.173 464.099 188.431C466.327 184.685 468.822 181.542 471.107 179.468C472.242 178.438 473.398 177.605 474.506 177.122C475.568 176.659 476.955 176.366 478.208 177.074C479.038 177.543 479.33 178.597 478.861 179.427C478.401 180.239 477.384 180.535 476.562 180.107C476.524 180.103 476.331 180.093 475.887 180.286C475.258 180.561 474.419 181.125 473.427 182.025C471.459 183.811 469.169 186.66 467.066 190.196C464.961 193.736 463.527 197.118 462.883 199.697C462.558 200.998 462.459 201.994 462.517 202.66C462.551 203.05 462.624 203.21 462.653 203.259C463.43 203.747 463.695 204.762 463.239 205.568Z"
		fill="#E5DACE" />
	<path
		d="M448.501 197.056C448.031 197.885 446.978 198.178 446.148 197.709C444.86 196.98 444.439 195.599 444.339 194.446C444.234 193.245 444.424 191.831 444.795 190.347C445.542 187.356 447.135 183.66 449.36 179.918C451.589 176.172 454.084 173.029 456.369 170.955C457.504 169.926 458.659 169.093 459.768 168.609C460.829 168.146 462.217 167.853 463.47 168.561C464.299 169.031 464.592 170.084 464.123 170.914C463.663 171.727 462.645 172.022 461.824 171.595C461.786 171.59 461.593 171.58 461.149 171.774C460.519 172.048 459.68 172.612 458.689 173.512C456.721 175.298 454.431 178.148 452.328 181.683C450.223 185.223 448.789 188.605 448.145 191.184C447.819 192.486 447.72 193.481 447.778 194.147C447.812 194.537 447.886 194.697 447.915 194.746C448.692 195.234 448.957 196.249 448.501 197.056Z"
		fill="#E5DACE" />
	<path
		d="M1004.41 222.595C1003.95 223.425 1002.89 223.717 1002.06 223.248C1000.77 222.519 1000.35 221.138 1000.25 219.985C1000.15 218.784 1000.34 217.37 1000.71 215.886C1001.46 212.895 1003.05 209.199 1005.27 205.457C1007.5 201.711 1010 198.568 1012.28 196.495C1013.42 195.465 1014.57 194.632 1015.68 194.148C1016.74 193.685 1018.13 193.392 1019.38 194.1C1020.21 194.57 1020.51 195.624 1020.04 196.453C1019.58 197.266 1018.56 197.561 1017.74 197.134C1017.7 197.129 1017.51 197.119 1017.06 197.313C1016.43 197.587 1015.59 198.151 1014.6 199.051C1012.63 200.837 1010.35 203.687 1008.24 207.222C1006.14 210.762 1004.7 214.144 1004.06 216.724C1003.73 218.025 1003.63 219.02 1003.69 219.686C1003.73 220.076 1003.8 220.236 1003.83 220.286C1004.61 220.773 1004.87 221.788 1004.41 222.595Z"
		fill="#4CC9E9" />
	<path
		d="M1021.23 231.794C1020.76 232.624 1019.7 232.916 1018.87 232.447C1017.59 231.718 1017.17 230.337 1017.07 229.185C1016.96 227.983 1017.15 226.57 1017.52 225.086C1018.27 222.095 1019.86 218.398 1022.09 214.656C1024.32 210.91 1026.81 207.768 1029.1 205.694C1030.23 204.664 1031.39 203.831 1032.49 203.347C1033.56 202.884 1034.94 202.591 1036.2 203.3C1037.03 203.769 1037.32 204.823 1036.85 205.653C1036.39 206.465 1035.37 206.761 1034.55 206.333C1034.51 206.328 1034.32 206.318 1033.88 206.512C1033.25 206.787 1032.41 207.351 1031.42 208.251C1029.45 210.036 1027.16 212.886 1025.05 216.421C1022.95 219.961 1021.52 223.344 1020.87 225.923C1020.55 227.224 1020.45 228.219 1020.5 228.885C1020.54 229.275 1020.61 229.436 1020.64 229.485C1021.42 229.972 1021.68 230.987 1021.23 231.794Z"
		fill="#4CC9E9" />
	<path
		d="M1037.36 241.982C1036.89 242.812 1035.83 243.105 1035 242.635C1033.71 241.907 1033.29 240.526 1033.19 239.373C1033.09 238.171 1033.28 236.758 1033.65 235.274C1034.4 232.283 1035.99 228.587 1038.22 224.845C1040.44 221.099 1042.94 217.956 1045.22 215.882C1046.36 214.853 1047.51 214.02 1048.62 213.536C1049.68 213.073 1051.07 212.78 1052.33 213.488C1053.15 213.958 1053.45 215.011 1052.98 215.841C1052.52 216.653 1051.5 216.949 1050.68 216.521C1050.64 216.517 1050.45 216.507 1050 216.7C1049.37 216.975 1048.54 217.539 1047.54 218.439C1045.58 220.225 1043.29 223.074 1041.18 226.61C1039.08 230.15 1037.64 233.532 1037 236.111C1036.67 237.412 1036.58 238.408 1036.63 239.074C1036.67 239.464 1036.74 239.624 1036.77 239.673C1037.55 240.161 1037.81 241.176 1037.36 241.982Z"
		fill="#4CC9E9" />
	<path
		d="M989.673 214.084C989.203 214.914 988.15 215.206 987.32 214.737C986.031 214.008 985.611 212.627 985.511 211.475C985.406 210.273 985.596 208.86 985.967 207.376C986.714 204.385 988.307 200.688 990.532 196.947C992.76 193.2 995.256 190.058 997.541 187.984C998.676 186.954 999.831 186.121 1000.94 185.638C1002 185.174 1003.39 184.881 1004.64 185.59C1005.47 186.059 1005.76 187.113 1005.29 187.943C1004.84 188.755 1003.82 189.051 1003 188.623C1002.96 188.618 1002.76 188.608 1002.32 188.802C1001.69 189.077 1000.85 189.641 999.86 190.541C997.893 192.326 995.603 195.176 993.5 198.711C991.394 202.251 989.961 205.634 989.316 208.213C988.991 209.514 988.892 210.509 988.95 211.175C988.984 211.565 989.058 211.726 989.087 211.775C989.864 212.262 990.128 213.277 989.673 214.084Z"
		fill="#E5DACE" />
	<path
		d="M974.919 205.568C974.449 206.398 973.396 206.691 972.566 206.221C971.277 205.493 970.857 204.112 970.757 202.959C970.652 201.757 970.842 200.344 971.213 198.86C971.96 195.869 973.553 192.173 975.778 188.431C978.007 184.685 980.502 181.542 982.787 179.468C983.922 178.438 985.077 177.605 986.186 177.122C987.247 176.659 988.635 176.366 989.888 177.074C990.717 177.543 991.01 178.597 990.541 179.427C990.081 180.239 989.063 180.535 988.242 180.107C988.204 180.103 988.011 180.093 987.567 180.286C986.937 180.561 986.098 181.125 985.107 182.025C983.139 183.811 980.849 186.66 978.746 190.196C976.64 193.736 975.207 197.118 974.563 199.697C974.237 200.998 974.138 201.994 974.196 202.66C974.23 203.05 974.304 203.21 974.333 203.259C975.11 203.747 975.375 204.762 974.919 205.568Z"
		fill="#E5DACE" />
	<path
		d="M960.18 197.056C959.711 197.885 958.657 198.178 957.827 197.709C956.539 196.98 956.119 195.599 956.019 194.446C955.914 193.245 956.104 191.831 956.474 190.347C957.222 187.356 958.814 183.66 961.04 179.918C963.268 176.172 965.763 173.029 968.049 170.955C969.184 169.926 970.339 169.093 971.447 168.609C972.509 168.146 973.896 167.853 975.149 168.561C975.979 169.031 976.272 170.084 975.802 170.914C975.343 171.727 974.325 172.022 973.504 171.595C973.466 171.59 973.273 171.58 972.829 171.774C972.199 172.048 971.36 172.612 970.368 173.512C968.4 175.298 966.111 178.148 964.008 181.683C961.902 185.223 960.469 188.605 959.824 191.184C959.499 192.486 959.4 193.481 959.458 194.147C959.492 194.537 959.566 194.697 959.595 194.746C960.371 195.234 960.636 196.249 960.18 197.056Z"
		fill="#E5DACE" />
	<g clip-path="url(#clip7_459_16743)">
		<path d="M1493.2 90.9355C1503.45 132.364 1481.77 184.531 1448.91 211.133" stroke="#E5DACE" stroke-width="3"
			stroke-linecap="round" stroke-linejoin="round" stroke-dasharray="0.16 3.12" />
		<path d="M1489.92 83.7363C1501.9 127.85 1477.19 189.23 1440.2 215.893" stroke="#E5DACE" stroke-width="3"
			stroke-linecap="round" stroke-linejoin="round" stroke-dasharray="0.16 3.12" />
		<path d="M1485.66 75.7441C1500.42 121.261 1472.56 189.719 1434.89 218.151" stroke="#E5DACE" stroke-width="3"
			stroke-linecap="round" stroke-linejoin="round" stroke-dasharray="0.16 3.12" />
		<path d="M1482.32 70.8008C1495.36 118.27 1467.31 188.436 1429.95 219.553" stroke="#E5DACE" stroke-width="3"
			stroke-linecap="round" stroke-linejoin="round" stroke-dasharray="0.16 3.12" />
		<path d="M1478.68 66.5918C1488.69 116.013 1461.33 186.546 1424.51 220.591" stroke="#E5DACE" stroke-width="3"
			stroke-linecap="round" stroke-linejoin="round" stroke-dasharray="0.16 3.12" />
		<path d="M1474.42 62.3809C1480.78 100.088 1458.17 185.995 1418.77 221.262" stroke="#E5DACE" stroke-width="3"
			stroke-linecap="round" stroke-linejoin="round" stroke-dasharray="0.16 3.12" />
		<path d="M1469.54 58.293C1472.69 111.863 1448.11 180.931 1412.84 221.567" stroke="#E5DACE" stroke-width="3"
			stroke-linecap="round" stroke-linejoin="round" stroke-dasharray="0.16 3.12" />
		<path d="M1464.04 54.2051C1463.92 109.423 1440.44 177.454 1406.72 221.384" stroke="#E5DACE" stroke-width="3"
			stroke-linecap="round" stroke-linejoin="round" stroke-dasharray="0.16 3.12" />
		<path d="M1458.17 50.3613C1454.22 107.226 1432.23 173.427 1400.3 220.896" stroke="#E5DACE" stroke-width="3"
			stroke-linecap="round" stroke-linejoin="round" stroke-dasharray="0.16 3.12" />
		<path
			d="M1451.93 46.7012C1445.51 94.9023 1428.89 145.117 1409.01 189.413C1404.25 199.969 1399.49 210.097 1393.62 220.103"
			stroke="#E5DACE" stroke-width="3" stroke-linecap="round" stroke-linejoin="round" stroke-dasharray="0.16 3.12" />
		<path
			d="M1445.39 43.2832C1436 91.4233 1419.76 140.113 1401.41 185.629C1396.84 196.917 1392.27 208.021 1386.84 218.943"
			stroke="#E5DACE" stroke-width="3" stroke-linecap="round" stroke-linejoin="round" stroke-dasharray="0.16 3.12" />
		<path
			d="M1438.48 40.0508C1425.81 89.3502 1409.32 138.467 1391.84 186.241C1388.01 196.674 1384.18 207.046 1379.86 217.358"
			stroke="#E5DACE" stroke-width="3" stroke-linecap="round" stroke-linejoin="round" stroke-dasharray="0.16 3.12" />
		<path
			d="M1431.31 37.0605C1415.87 85.5668 1399.5 133.829 1383.81 182.274C1380.23 193.379 1376.64 204.483 1372.94 215.527"
			stroke="#E5DACE" stroke-width="3" stroke-linecap="round" stroke-linejoin="round" stroke-dasharray="0.16 3.12" />
		<path
			d="M1424.02 34.375C1405.73 82.4541 1388.99 131.143 1374.97 180.565C1371.88 191.486 1368.92 202.408 1366.08 213.329"
			stroke="#E5DACE" stroke-width="3" stroke-linecap="round" stroke-linejoin="round" stroke-dasharray="0.16 3.12" />
		<path
			d="M1416.61 32.0566C1395.85 78.4884 1378.87 127.666 1366.7 176.965C1363.92 188.253 1361.32 199.479 1359.29 210.95"
			stroke="#E5DACE" stroke-width="3" stroke-linecap="round" stroke-linejoin="round" stroke-dasharray="0.16 3.12" />
		<path
			d="M1409.19 30.1035C1385.91 74.7048 1368.3 126.018 1358.17 175.073C1355.89 186.178 1353.91 197.038 1352.74 208.265"
			stroke="#E5DACE" stroke-width="3" stroke-linecap="round" stroke-linejoin="round" stroke-dasharray="0.16 3.12" />
		<path
			d="M1401.78 28.5176C1376.52 70.4953 1358.11 124.31 1350.02 172.389C1348.17 183.432 1346.74 194.11 1346.31 205.276"
			stroke="#E5DACE" stroke-width="3" stroke-linecap="round" stroke-linejoin="round" stroke-dasharray="0.16 3.12" />
		<path
			d="M1394.61 27.3584C1367.87 66.2244 1348.66 122.174 1342.42 168.972C1340.94 180.199 1339.95 190.815 1340.32 202.103"
			stroke="#E5DACE" stroke-width="3" stroke-linecap="round" stroke-linejoin="round" stroke-dasharray="0.16 3.12" />
		<path
			d="M1387.64 26.6875C1359.28 62.8689 1339.89 119.368 1335.19 165.495C1334.02 176.904 1333.53 187.399 1334.64 198.808"
			stroke="#E5DACE" stroke-width="3" stroke-linecap="round" stroke-linejoin="round" stroke-dasharray="0.16 3.12" />
		<path
			d="M1381.03 26.4434C1350.33 60.3672 1330.75 118.392 1328.15 164.335C1327.54 175.135 1327.66 184.653 1329.45 195.208"
			stroke="#E5DACE" stroke-width="3" stroke-linecap="round" stroke-linejoin="round" stroke-dasharray="0.16 3.12" />
		<path
			d="M1374.79 26.748C1342.18 58.1093 1321.73 118.818 1321.73 163.786C1321.73 173.731 1322.54 182.029 1324.7 191.608"
			stroke="#E5DACE" stroke-width="3" stroke-linecap="round" stroke-linejoin="round" stroke-dasharray="0.16 3.12" />
		<path
			d="M1369.05 27.6035C1333.04 57.3784 1309.5 127.423 1316.6 173.671C1317.41 178.735 1318.83 183.006 1320.31 187.827"
			stroke="#E5DACE" stroke-width="3" stroke-linecap="round" stroke-linejoin="round" stroke-dasharray="0.16 3.12" />
		<path d="M1363.86 28.8848C1322.66 57.9885 1299 136.758 1316.54 183.922" stroke="#E5DACE" stroke-width="3"
			stroke-linecap="round" stroke-linejoin="round" stroke-dasharray="0.16 3.12" />
		<path d="M1357.06 31.5684C1316.91 59.6959 1293.19 134.56 1313.32 179.955" stroke="#E5DACE" stroke-width="3"
			stroke-linecap="round" stroke-linejoin="round" stroke-dasharray="0.16 3.12" />
		<path d="M1349.09 35.5332C1311.53 63.5387 1292.26 127.298 1307.89 171.229" stroke="#E5DACE" stroke-width="3"
			stroke-linecap="round" stroke-linejoin="round" stroke-dasharray="0.16 3.12" />
		<path d="M1339.46 41.6367C1302.46 70.8015 1292.45 123.152 1306.04 164.092" stroke="#E5DACE" stroke-width="3"
			stroke-linecap="round" stroke-linejoin="round" stroke-dasharray="0.16 3.12" />
		<path
			d="M1451.8 120.809L1451.8 120.833C1451.53 127.044 1448.98 135.258 1444.7 141.834C1440.44 148.381 1434.25 153.619 1426.61 153.177C1420.72 152.837 1414.68 150.044 1411.56 144.801V163.771C1411.56 164.297 1411.34 164.734 1411.12 165.041C1410.89 165.357 1410.6 165.627 1410.31 165.843C1409.76 166.255 1409.03 166.617 1408.37 166.697L1408.37 166.698C1407.59 166.792 1406.15 166.834 1404.77 166.831C1403.4 166.828 1401.95 166.781 1401.17 166.671H1401.17C1399.84 166.48 1398.94 165.686 1398.4 164.612L1398.28 164.373L1398.28 164.104L1398.19 129.769L1398.19 129.699L1398.2 129.63C1399.41 119.618 1406.19 111.523 1415.22 107.794C1413.42 103.131 1413.25 97.537 1414.91 92.8682C1416.72 87.7709 1420.76 83.6975 1427.22 83.3105L1428.04 83.2754C1436.38 83.0547 1442.14 87.2839 1445.87 93.2314C1449.69 99.3137 1451.41 107.221 1451.8 114.172L1451.8 114.203V120.809Z"
			fill="#FDF4EB" stroke="#E5DACE" stroke-width="2.26638" />
		<path
			d="M1352.44 88.0449C1356.12 84.7952 1360.88 82.9547 1366.8 83.3105C1373.27 83.6989 1377.3 87.7756 1379.12 92.873C1380.77 97.5423 1380.61 103.135 1378.81 107.795C1387.84 111.524 1394.62 119.618 1395.83 129.63L1395.84 129.699V129.769L1395.75 164.104L1395.75 164.374L1395.63 164.613C1395.08 165.686 1394.19 166.482 1392.86 166.67L1392.86 166.671C1392.08 166.781 1390.63 166.828 1389.26 166.831C1387.88 166.834 1386.44 166.792 1385.66 166.698L1385.66 166.697C1385 166.617 1384.27 166.257 1383.72 165.845C1383.43 165.629 1383.14 165.359 1382.91 165.042C1382.69 164.734 1382.47 164.297 1382.47 163.771V144.805C1379.31 150.106 1373.17 152.911 1367.21 153.19C1361.34 153.465 1356.32 150.243 1352.48 145.95C1348.63 141.649 1345.81 136.132 1344.32 131.43C1341.69 123.152 1341.39 110.911 1344.63 100.868C1346.25 95.8353 1348.78 91.2716 1352.44 88.0449Z"
			fill="#FDF4EB" stroke="#E5DACE" stroke-width="2.26638" />
	</g>
	<defs>
		<clipPath id="clip0_459_16743">
			<rect width="211.632" height="224.33" fill="white" transform="translate(0 150.453)" />
		</clipPath>
		<clipPath id="clip1_459_16743">
			<rect width="209.515" height="220.097" fill="white" transform="translate(258.883 3.73047)" />
		</clipPath>
		<clipPath id="clip2_459_16743">
			<rect width="211.632" height="224.33" fill="white" transform="translate(515.645 150.453)" />
		</clipPath>
		<clipPath id="clip3_459_16743">
			<rect width="211.632" height="222.213" fill="white" transform="translate(1031.29 151.696)" />
		</clipPath>
		<clipPath id="clip4_459_16743">
			<rect width="111.98" height="103.419" fill="white" transform="translate(168.391 229.049) rotate(-66.2827)" />
		</clipPath>
		<clipPath id="clip5_459_16743">
			<rect width="111.98" height="103.419" fill="white" transform="translate(680.07 229.049) rotate(-66.2827)" />
		</clipPath>
		<clipPath id="clip6_459_16743">
			<rect width="111.98" height="103.419" fill="white" transform="translate(1198.26 229.049) rotate(-66.2827)" />
		</clipPath>
		<clipPath id="clip7_459_16743">
			<rect width="209.515" height="222.213" fill="white" transform="translate(1290.17 1.24512)" />
		</clipPath>
	</defs>
</svg>