<svg width="80" height="100" viewBox="0 0 80 100" fill="none" xmlns="http://www.w3.org/2000/svg">
	<g clip-path="url(#clip0_7_6193)">
		<path d="M79.6748 100L39.8128 83.3333L0 100V0H79.6748V100Z" fill="#372E2D" />
		<path d="M60.0527 52.2747C60.0527 52.2747 60.0527 52.2747 60.1342 52.4773L60.0527 52.2747Z" fill="#F3CFB2" />
		<path
			d="M20.9804 48.6266C18.5358 46.1136 18.4543 42.7898 18.5358 40.5605C18.6988 37.1962 20.7766 33.224 22.5693 30.4677C24.1991 27.9952 26.114 25.7253 27.1733 23.0501C28.1919 20.456 27.6215 19.6048 25.788 20.3344C25.788 20.3344 25.5436 23.496 25.5436 24.6309C25.5436 24.6309 24.8917 27.9141 23.0175 28.0357C20.5322 27.0629 24.1176 23.0501 24.0361 21.1856C23.4657 21.5909 21.8767 21.753 20.8174 22.5232C20.9804 19.5237 21.8767 18.8346 23.262 18.105C22.2027 17.3754 22.9768 15.8352 24.2805 16.0784C24.6065 14.376 27.2955 13.2005 29.0475 14.1733C30.392 13.849 31.981 14.0517 32.8366 15.6325C34.1404 18.024 34.0181 20.0101 32.1032 23.0096C31.5735 23.496 31.8587 24.104 31.5735 22.8069C30.1475 26.0901 27.3363 29.2112 26.1955 32.4538C25.7066 33.7914 25.1769 35.1696 25.4621 36.6693C25.7066 38.088 27.0511 39.2229 28.6808 37.561C31.2069 34.9264 30.7179 30.5893 32.4699 28.6437C33.4885 27.5088 34.1404 27.5898 35.3219 27.5088C35.1589 27.2656 35.0774 27.0629 35.0774 26.8197C35.1182 25.4821 36.4627 25.6442 36.9516 26.617C36.5035 25.6848 35.8516 22.8474 36.8701 21.9557C38.0109 20.9829 38.5406 22.969 39.3147 23.496C40.0074 21.4288 40.0481 18.5509 42.6556 17.7402C42.7371 19.3616 42.3297 21.064 43.7965 22.1178C44.7743 19.8074 45.6706 18.713 47.9115 17.3754C47.9115 18.7536 47.0152 21.7936 48.6449 22.6042C49.2968 21.064 53.7378 18.9562 55.0823 20.2128C54.7156 21.3882 52.8414 22.4826 52.6377 23.9013C54.2674 25.1984 58.3825 23.5365 59.89 24.9957C61.0715 26.1712 58.9121 27.4277 57.4861 28.1978C58.138 29.0896 59.0751 28.9274 60.0529 29.4949C61.1122 30.1029 62.0493 30.3866 63.4753 31.9674C62.9457 33.4266 60.6233 33.9536 59.4825 34.5616C60.5826 35.8992 64.2087 35.656 64.2902 37.48C64.3717 39.3445 60.7863 39.4661 59.6048 40.1552C61.153 40.601 65.3495 41.3306 64.6976 43.56C64.0865 45.7082 60.0937 44.8165 58.4639 44.8976C59.5233 45.7893 61.6826 48.5861 61.316 50.0858C60.7863 52.3152 58.5454 50.6128 57.0379 50.6938C58.5454 51.464 59.9307 52.4368 58.9529 54.3013C57.1194 55.0714 56.1008 54.3824 54.7156 54.1392C55.0008 55.3552 56.712 56.6117 55.7342 57.8682C54.5526 59.368 52.1895 57.5034 50.9672 57.017C50.9672 57.9493 52.0265 59.976 50.8043 60.5434C49.5412 61.1514 48.1152 58.9626 47.5041 58.2736C46.9744 61.0704 46.0781 61.0298 44.7335 59.6922C44.4483 60.7056 44.3261 61.881 43.0223 62.408C42.7371 62.5296 42.9409 62.4485 43.0223 62.408C42.9816 63.624 42.7371 65.7722 43.2668 66.5423L44.8965 67.2719C46.2818 67.8394 47.0152 68.0826 46.8522 69.0554C46.5262 68.6095 45.6706 68.2853 44.4483 68.0826C44.4483 68.2447 38.0517 67.1098 36.9109 70.1903C36.3405 68.3663 38.1739 67.9205 39.5592 67.2719C38.8665 67.4341 38.0924 67.4341 37.5628 67.5152C36.2183 67.7178 34.67 67.4341 33.8959 68.8122C33.9774 67.1909 35.8516 67.1098 37.0331 66.9477C37.6443 66.8666 40.1296 66.7855 40.863 66.2586C41.3926 65.3264 41.5963 63.5834 41.4741 62.0837C39.2332 61.1514 36.5442 57.4629 34.996 55.6794C34.7108 56.1658 34.0181 56.3685 33.2033 56.328L32.9996 56.409C32.9996 56.409 33.081 56.328 33.1218 56.2874C32.144 56.2874 30.9217 55.9226 29.8216 55.4768C28.4771 55.112 27.2955 54.504 26.277 53.7744C26.3584 54.1392 26.4807 54.504 26.5622 54.8282C25.6251 54.4634 24.6065 53.5717 23.9546 52.5584C23.9546 53.0448 24.0361 53.5717 24.0361 53.977C23.2212 52.9232 22.5693 51.7882 22.0804 50.5722C22.0804 50.8154 22.0397 51.0586 22.0804 51.3018C21.7952 50.6938 21.4285 50.1669 21.2248 49.5184C21.1026 49.113 21.1026 48.6266 21.1026 48.1402C21.0618 48.0186 21.0211 47.897 20.9804 47.7349C20.8581 48.0592 20.7359 48.3834 20.7359 48.505L20.9804 48.6266Z"
			fill="#F3CFB2" />
		<path d="M35.3219 56.5306C34.8737 56.0442 35.4034 56.5711 35.3219 56.5306V56.5306Z" fill="#F3CFB2" />
		<path
			d="M26.073 66.745C26.9693 65.8938 27.8249 65.3669 29.0472 65.2858C30.1065 65.2048 31.4918 65.4074 32.3474 64.6373C33.1623 63.9482 33.203 62.8538 33.5697 61.9621C33.7327 61.5568 33.8549 61.192 33.9771 60.8272C33.6104 59.976 33.366 58.3546 33.1623 56.9765C33.7327 56.9765 34.7512 56.6928 35.3216 56.4901C35.9735 57.2602 36.9514 58.5573 37.6032 59.3274C37.0328 60.4218 36.2587 61.3541 35.1587 61.4757C34.9142 62.0432 34.4253 62.6917 34.3031 63.1376C34.1401 63.7861 33.9771 64.7994 34.5475 65.2453C35.6883 65.448 38.9885 65.0021 38.7848 66.6234C38.2144 65.8533 36.9106 66.0965 36.055 66.137C34.9549 66.1776 33.9364 66.1776 32.9178 66.3397C30.9621 66.6234 29.1694 66.8666 27.5805 68.2448C27.7434 67.1098 29.2917 66.2586 30.4325 66.056C29.7398 66.0965 29.0472 66.1776 28.3546 66.2181C27.5397 66.2586 26.6841 66.2586 26.0322 66.7856L26.073 66.745Z"
			fill="#F3CFB2" />
	</g>
	<defs>
		<clipPath id="clip0_7_6193">
			<rect width="79.6748" height="100" fill="white" />
		</clipPath>
	</defs>
</svg>