<svg width="80" height="100" viewBox="0 0 80 100" fill="none" xmlns="http://www.w3.org/2000/svg">
	<g clip-path="url(#clip0_1_32265)">
		<path d="M79.6748 100L39.8128 83.3333L0 100V0H79.6748V100Z" fill="#10312B" />
	</g>
	<g clip-path="url(#clip1_1_32265)">
		<path
			d="M63.4147 56.3158C63.4541 53.2224 62.1151 53.143 61.3275 53.8966C61.3275 53.8966 61.485 51.1998 59.4371 51.5963C57.6256 46.2424 52.9785 42.3955 48.2132 39.8573C41.5576 36.3277 35.6897 35.3758 35.6897 35.3758L36.0048 34.7413L35.1777 34.6223L34.8233 34.1464L35.0202 33.9481L34.5476 33.7102L34.3901 33.4326C34.9021 32.679 35.3353 31.8065 35.3353 31.8065L34.2326 31.172L34.6658 31.0134L33.4055 30.6961L34.2326 29.2287H33.6024L35.1383 28.3166C34.8627 28.3166 34.587 28.3166 34.3113 28.3166C36.8712 26.7302 37.6588 22.2091 37.5407 20.1468C37.5407 20.1072 37.5407 20.0278 37.5407 19.9882C37.5407 19.7502 37.4619 19.5519 37.3831 19.314C37.8951 17.569 37.9739 15.9826 36.6743 15.0705C35.3746 14.198 32.8542 14.4756 31.5546 17.2517C30.3731 19.7502 29.5461 22.685 28.916 23.7161L28.5221 23.9937C27.577 24.192 26.0805 24.4696 24.8596 24.5886C21.9847 24.9059 20.2519 25.7387 18.5585 27.563C16.7469 29.3873 15.5654 31.0134 15.5654 31.0134C15.5654 31.0134 15.0928 32.2824 15.9592 32.6394C15.8805 32.917 15.8805 33.3532 16.1168 33.9481C16.5893 35.3758 18.5585 36.8036 20.4488 37.2795C20.882 37.5571 21.5121 37.9933 21.7484 38.2313L21.9059 39.0245H21.7878L21.9847 39.3814L22.0635 39.6987L21.9059 41.0074L22.5361 40.6901C22.5361 40.6901 21.9847 42.1179 22.3391 42.8714L22.6542 42.7127C22.6542 42.7127 22.0241 44.656 22.6542 45.6872C23.2843 46.7183 25.2928 51.7153 25.5291 52.3499C25.5291 52.3499 26.0804 51.5567 26.4349 50.6842C26.4349 50.6842 26.4743 51.0015 26.5924 51.517L25.9229 61.7094C25.1353 62.7405 23.2449 64.8028 23.2449 65.358C23.2449 65.9132 24.4264 66.1115 25.0565 66.1908C25.0171 66.3891 25.0171 66.5874 25.0565 66.8254C25.0565 66.8254 26.7106 67.3013 29.3098 67.222C31.909 67.1427 32.5785 65.6356 32.5785 64.5252C32.5785 63.4147 32.5391 60.7576 33.2086 60.0834C33.8781 59.4092 34.5082 57.1486 34.5082 57.1486H34.4688C34.4688 57.1486 34.8233 57.2676 35.0202 57.3072C37.5407 57.9814 38.4071 59.0919 39.2735 60.9955C39.2735 61.0352 39.3129 61.0748 39.3129 61.1145C38.0526 61.3921 35.2565 62.106 34.5082 63.2164C33.6024 63.613 33.1299 64.2872 32.9723 65.12C32.9723 65.12 34.4688 65.5166 36.0048 65.4373C35.8866 65.596 35.8472 65.7149 35.8472 65.7149L36.8318 65.3977L35.5322 66.3098C34.2326 67.222 34.1144 68.1341 37.777 68.2531C41.4395 68.3721 46.3229 68.1341 51.2063 67.6979C52.7816 67.5789 53.7661 67.2616 54.3175 66.7857C55.6565 66.3891 56.7592 65.3977 57.6256 64.1682C60.0279 64.7235 62.1545 63.494 62.6271 61.2335L61.4456 61.5507C61.4456 61.5507 63.4541 59.3695 63.4935 56.2761L63.4147 56.3158ZM24.0326 30.9737C22.8905 30.9737 21.9847 30.0615 21.9847 28.9114C21.9847 27.7613 22.8905 26.8492 24.0326 26.8492C25.1747 26.8492 26.0804 27.7613 26.0804 28.9114C26.0804 30.0615 25.1747 30.9737 24.0326 30.9737Z"
			fill="#83D096" />
	</g>
	<defs>
		<clipPath id="clip0_1_32265">
			<rect width="79.6748" height="100" fill="white" />
		</clipPath>
		<clipPath id="clip1_1_32265">
			<rect width="47.9675" height="53.6585" fill="white" transform="translate(15.4473 14.6342)" />
		</clipPath>
	</defs>
</svg>