<svg width="80" height="100" viewBox="0 0 80 100" fill="none" xmlns="http://www.w3.org/2000/svg">
	<g clip-path="url(#clip0_961_1504)">
		<path d="M80 100L39.9753 83.3333L0 100V0H80V100Z" fill="#2C1B47" />
		<g clip-path="url(#clip1_961_1504)">
			<path
				d="M63.9597 19.7637C63.5566 18.1881 59.4861 18.3954 59.4861 18.3954C59.0025 16.7783 57.2695 15.9075 57.2695 15.9075C57.2695 15.9075 57.3098 15.4099 57.2695 15.1611C57.2695 14.9123 55.5365 15.0367 55.5365 15.0367C55.5365 15.0367 55.6171 14.2074 55.0529 14.0001C54.6901 13.8342 53.078 14.8294 53.078 14.8294C53.078 14.8294 51.1435 14.0416 50.4181 14.4562C49.6927 14.8294 50.3375 15.244 50.3375 15.244C48.2821 15.8246 47.5163 17.8978 47.5163 17.8978C47.5163 17.8978 46.7909 17.7734 46.3476 18.5613C46.3476 18.5613 42.4786 18.271 42.5592 19.9296C42.6398 21.5467 46.1461 22.8322 46.1461 22.8322V23.8688C45.5818 23.9932 44.937 24.159 44.5743 24.4493C44.5743 24.4493 42.0352 23.2468 40.1007 24.0761C40.1007 24.0761 39.2141 23.4541 38.3274 24.0761C38.3274 24.0761 36.8362 23.1639 35.3451 23.8688C35.3451 23.8688 33.2493 22.8322 31.4357 23.9932C31.4357 23.9932 30.3073 22.9566 28.6146 23.1224C26.9622 23.2883 25.7934 23.9517 25.7934 23.9517C25.7934 23.9517 24.8665 23.7029 24.0604 23.9517C22.8514 24.3664 22.2468 25.9835 22.2468 25.9835C22.2468 25.9835 21.8841 26.0664 20.2317 27.1445C18.539 28.2226 18.9017 30.2544 18.9017 30.2544C18.9017 30.2544 18.2569 30.7105 17.6121 31.8715C16.9672 33.0326 17.3702 34.5253 16.9269 35.5619C16.4836 36.5571 15.6372 37.3864 16.2821 39.2109C15.3954 42.9013 16.9269 45.6794 16.9269 45.6794C16.5239 47.7941 17.8539 50.0747 17.8539 50.0747C17.8539 51.6504 18.7405 54.1798 19.2241 54.3871C19.7078 54.553 20.5138 54.0139 20.5138 54.0139C20.5138 54.0139 21.4811 55.6725 21.4811 56.2116C21.4811 56.7091 21.9647 59.6532 22.005 60.8142C22.0453 61.9752 21.7632 64.0485 22.005 64.9192C22.2468 65.9559 21.602 67.9876 22.2065 68.5682C22.5289 68.8584 22.2468 69.6048 22.8111 70.3926C23.4559 70.9731 24.3828 71.0146 24.3828 71.0146V70.2268L24.9471 70.8487L26.1964 70.1853C26.1964 70.1853 25.471 67.8633 25.471 67.4901C25.471 67.1583 25.2292 63.9655 25.3501 63.3021C25.4307 62.6386 25.3904 54.7603 25.471 53.7237C25.5113 53.4749 25.5516 52.9358 25.6322 52.3138C26.3576 52.8943 27.0831 53.3919 27.8085 53.7651C27.3249 54.5944 26.8816 55.1335 26.7607 55.5067C26.5189 56.1701 27.0025 57.5384 27.1637 58.8239C27.2846 60.1507 27.7682 66.0388 27.7682 66.2046C27.8085 66.329 27.8085 67.4486 27.7682 67.6559C27.7682 67.8633 28.937 68.1535 28.8967 68.5682C28.8564 68.9828 29.1385 69.4804 29.1385 69.4804C29.1385 69.4804 30.0655 70.5585 30.7909 70.5585C30.9924 70.5585 31.1133 69.7292 31.1133 69.7292L31.5566 70.3926C31.5566 70.3926 33.1284 69.895 33.1284 69.6877C33.1284 69.4804 31.9194 67.4486 31.7582 66.9096C31.5969 66.329 30.3879 62.4313 31.073 60.6069C31.5163 59.5288 32.806 57.3726 33.7733 55.8384C34.3778 56.0872 35.0226 56.2945 35.7078 56.4189C35.7884 59.1556 36.8765 61.0215 36.8765 61.3118C36.8765 61.602 36.3123 64.0485 36.1914 64.629C36.0302 65.2509 35.869 70.6414 36.0705 71.0975C36.1914 71.3878 36.4332 73.4196 36.8362 73.6269C37.2393 73.7928 38.3677 74.1659 38.9723 73.9172L39.1738 73.461C39.1738 73.461 39.6171 73.7098 39.8589 73.7513C40.1007 73.7513 40.7053 73.0879 40.665 72.7561C40.6246 72.3829 39.7783 70.5999 39.7783 70.3512C39.7783 70.1438 39.8186 64.9192 39.9798 64.1314C40.1813 63.3436 41.4307 60.1507 41.4307 60.1507C42.277 59.2385 42.4786 58.036 42.3173 56.6262C44.7355 56.9165 45.0176 55.8384 45.0176 55.8384C46.5088 56.0457 47.2342 55.3408 47.5163 54.8847C47.8388 56.4603 48.3627 58.2434 48.5239 58.658C48.6851 59.2385 49.4105 65.4168 49.5314 66.4949C49.6121 67.2827 49.2493 67.9876 49.209 68.2364C49.0478 69.1487 49.8942 70.2268 50.0151 70.4341C50.136 70.6829 50.2166 72.0927 50.3375 72.2586C50.4181 72.4244 52.3526 72.8391 52.9168 72.7147C53.4408 72.5903 53.2393 72.0098 53.2393 72.0098C53.2393 72.0098 53.5617 72.4659 53.8035 72.5073C54.0453 72.5073 54.9319 71.5536 54.7304 71.3878C54.5692 71.2634 53.3199 69.0657 53.2393 68.8169C53.199 68.6096 52.5138 61.602 52.6347 60.7313C52.7556 59.8605 53.5617 57.7872 53.8841 57.2067C54.2065 56.6262 55.8186 55.631 55.6574 53.7237C55.6574 53.7237 56.3828 52.687 56.544 50.8211C56.9874 50.6552 57.4307 50.4479 57.7128 50.0333C58.4383 48.8722 58.3576 47.4624 58.3576 47.4624C58.3576 47.4624 59.3652 47.6698 59.7279 46.4258C59.8891 45.8453 59.607 44.0208 59.607 44.0208C59.607 44.0208 60.4534 44.3111 60.6146 43.3159C60.7758 42.4037 59.7682 40.1646 59.7682 40.1646C59.9697 38.5889 59.3249 37.3449 59.3249 37.3449C59.5264 36.101 59.4458 33.3643 59.3652 31.8715C60.01 30.5447 60.3728 29.3422 60.4131 28.969C60.5743 27.9738 60.7758 25.403 60.5743 22.7907C60.5743 22.7907 64.4836 21.8785 64 19.7637H63.9597ZM45.9042 26.1908C45.9042 26.1908 46.5894 29.2178 47.9597 32.0789C49.3299 34.94 53.7632 35.6034 53.7632 35.6034C44.4131 36.9718 45.9042 26.1908 45.9042 26.1908Z"
				fill="#C4B4E4" />
		</g>
	</g>
	<defs>
		<clipPath id="clip0_961_1504">
			<rect width="80" height="100" fill="white" />
		</clipPath>
		<clipPath id="clip1_961_1504">
			<rect width="48" height="60" fill="white" transform="translate(16 14)" />
		</clipPath>
	</defs>
</svg>