<svg width="80" height="100" viewBox="0 0 80 100" fill="none" xmlns="http://www.w3.org/2000/svg">
	<g clip-path="url(#clip0_7_4389)">
		<path d="M79.6748 100L39.8128 83.3333L0 100V0H79.6748V100Z" fill="#0A2240" />
		<g clip-path="url(#clip1_7_4389)">
			<path
				d="M31.3544 38.7149C34.783 35.8402 36.6646 35.6735 39.8006 35.4235C41.7658 35.2569 44.2327 35.0486 47.9959 34.0487C50.3792 33.4654 54.6023 32.2572 56.233 31.7989C53.5152 30.1741 51.3409 25.7996 50.7555 24.0498C50.5047 23.2998 50.5883 22.5083 51.09 21.7583C51.8008 20.4668 53.5152 19.3836 55.3131 18.9253C52.888 18.3837 48.0795 17.5921 43.1874 17.5921C41.264 17.5921 39.4661 17.7171 37.919 18.0087C36.4974 17.5921 30.9781 14.8424 30.1836 14.7174C26.964 14.1758 29.3055 16.3423 28.0512 18.342C27.6748 18.967 27.0895 19.8419 26.4205 20.5501C25.7515 21.2584 24.9152 22.1333 24.1626 22.9249C23.4518 23.7165 22.6991 24.508 22.0719 25.258C21.4447 26.0495 20.8594 26.7995 20.3994 27.4661C20.3158 27.6327 20.1904 27.7994 20.1067 27.966C17.7234 30.799 15.9673 34.4237 15.5491 38.9648C14.5874 49.1304 25.9605 58.0878 30.3927 61.2125C30.3927 61.2125 32.776 63.0456 32.776 63.0873C34.5322 64.8787 36.121 67.4618 37.2082 69.3366C37.7936 70.2532 38.4207 71.253 38.7134 71.5863C38.9225 71.0864 39.257 70.6281 39.5497 70.0865C40.0096 69.5032 40.4278 68.7533 40.6786 68.0867C40.8877 67.4618 40.8459 66.8785 40.595 66.3786C40.0096 65.1704 39.7588 64.1705 39.8006 63.2122C39.8006 62.379 40.0514 61.5041 40.5114 60.7125C40.9713 59.9626 41.5985 59.171 42.4766 58.4211C42.6438 58.2544 42.8529 58.0878 43.0202 57.8795C43.5637 57.2962 43.94 56.5879 44.1491 55.8797C44.4 54.8798 44.3164 54.0466 44.2327 53.5883C43.5219 53.8799 41.5567 54.5882 38.3371 55.6714C37.0827 56.1297 35.8283 56.338 34.6576 56.338C34.0722 56.338 31.8979 55.2548 30.7272 54.7131C29.0547 52.5467 27.3822 49.547 27.424 46.2557C27.424 43.381 28.7202 40.8396 31.3126 38.7149H31.3544ZM44.1491 26.7578C46.7415 27.0078 48.9158 27.841 50.0029 28.341L48.2468 28.7159C48.2468 28.7159 47.5778 28.7159 46.6161 28.7159C43.7728 28.7159 41.7658 28.341 41.3058 27.7577C40.7623 27.1328 40.3023 26.5078 39.926 26.0912C40.7204 26.2995 42.0585 26.5495 44.1491 26.7161V26.7578ZM29.3055 32.3405L33.445 30.8824C33.445 30.8824 33.3196 33.9237 31.3544 35.7568C29.3892 37.5483 29.3055 40.0481 29.3055 40.0481C29.3055 40.0481 27.6748 33.7154 29.3055 32.3405Z"
				fill="#93D9E8" />
			<path
				d="M64.8464 25.2581C64.8464 25.2581 65.7662 24.7165 66.3098 24.6331C67.1043 24.3832 67.8987 24.5082 68.2332 24.4665C68.1496 24.0082 67.6896 22.8833 65.2645 21.9251C64.5955 21.6335 63.9265 21.3835 63.2993 21.1335C61.0414 20.2169 58.9508 19.342 56.9856 19.342C56.6092 19.342 56.3165 19.342 55.982 19.4254C54.1005 19.7587 52.2607 20.8419 51.5499 22.0917C51.1736 22.7167 51.0899 23.3416 51.299 23.8832C51.968 25.9247 55.4385 32.424 58.5326 31.4657C62.5885 30.2992 64.7209 28.841 65.8917 27.7995C66.3516 27.4245 67.7314 26.2163 68.0241 25.2581C68.0241 25.0914 68.0241 24.9248 67.8987 24.9664C66.8116 25.4247 65.6408 25.2164 64.93 25.2581H64.8464ZM60.6233 24.6331C59.9124 24.6331 59.3271 24.0499 59.3271 23.3416C59.3271 22.675 59.9124 22.0917 60.6233 22.0917C61.2923 22.0917 61.9195 22.675 61.9195 23.3416C61.9195 24.0499 61.3341 24.6331 60.6233 24.6331Z"
				fill="#93D9E8" />
		</g>
	</g>
	<defs>
		<clipPath id="clip0_7_4389">
			<rect width="79.6748" height="100" fill="white" />
		</clipPath>
		<clipPath id="clip1_7_4389">
			<rect width="52.726" height="56.9106" fill="white" transform="translate(15.5073 14.6342)" />
		</clipPath>
	</defs>
</svg>