<svg width="80" height="100" viewBox="0 0 80 100" fill="none" xmlns="http://www.w3.org/2000/svg">
	<g clip-path="url(#clip0_459_21392)">
		<path d="M80 100L39.9753 83.3333L0 100V0H80V100Z" fill="#4F352A" />
		<path
			d="M34.2149 56.8974C31.6091 57.0423 29.0758 56.4987 26.6148 55.7377C24.5157 55.0854 22.6338 53.9981 21.0414 52.5123C19.2319 50.809 17.929 48.7433 17.5671 46.2427C17.3861 44.9018 17.3499 43.5247 17.6757 42.1838C18.0738 40.5892 18.5804 39.0309 19.4852 37.6538C20.1366 36.6753 20.969 35.8418 21.91 35.117C22.2719 34.827 22.67 34.6096 22.9957 34.2834C23.43 33.8848 23.9005 33.4861 24.2624 32.9788C25.1672 31.7466 25.0224 30.4782 23.9729 29.391C23.8281 29.246 23.6833 29.1373 23.5748 28.9924C23.2129 28.5937 22.7424 28.5212 22.2357 28.63C20.7157 28.9199 19.1957 29.2098 17.6757 29.4997C17.3861 29.5722 17.0604 29.5722 16.7709 29.5722C16.4452 29.5722 16.1918 29.4635 16.0471 29.1011C15.9385 28.7749 16.0109 28.4125 16.3366 28.1951C16.6261 27.9776 16.9156 27.8327 17.2052 27.6877C18.0376 27.2528 18.87 26.7817 19.7023 26.3468C20.1366 26.0931 20.4624 25.767 20.7881 25.4046C21.6205 24.571 22.2357 23.5563 22.9957 22.6865C24.2262 21.3094 25.8186 20.7658 27.6643 21.092C28.931 21.3094 29.8358 21.998 30.5234 23.1214C31.3558 24.4623 31.7539 25.8757 31.9349 27.3978C32.0796 28.5575 31.8263 29.6809 31.392 30.7319C30.9215 31.8553 30.3787 32.9425 29.9082 34.066C29.6548 34.6096 29.4015 35.1894 29.2205 35.7693C29.0034 36.5303 29.2929 36.8203 30.0529 36.7478C30.7406 36.7115 31.392 36.4216 31.9711 36.0955C32.9844 35.5518 34.0701 35.1894 35.1559 34.8995C37.7254 34.211 40.2226 34.4646 42.5026 35.8418C43.8055 36.6028 45.036 37.5088 46.2303 38.4148C47.7865 39.5745 49.4151 40.6255 51.2608 41.2778C52.057 41.5677 52.8532 41.7852 53.7218 41.7127C53.8666 41.7127 54.0113 41.7127 54.1923 41.7127C54.4456 41.7127 54.6989 41.7852 54.7351 42.0389C54.7351 42.2201 54.6627 42.4737 54.5542 42.6549C54.3732 42.9086 54.1199 43.0898 53.9027 43.3073C53.758 43.4885 53.758 43.6697 53.9751 43.7784C56.1466 45.228 58.318 46.7139 60.96 47.2212C61.3943 47.2937 61.9371 47.3299 62.1181 47.8011C62.3352 48.3809 61.7562 48.6708 61.3943 48.997C60.9238 49.4319 60.3809 49.7943 59.8742 50.1929C59.6571 50.3379 59.4761 50.5191 59.259 50.7003C59.2228 50.7365 59.1866 50.8815 59.1866 50.8815C59.259 50.954 59.3314 51.0264 59.4399 51.0627C59.5123 51.0627 59.5847 51.0627 59.6571 51.0627C60.7066 51.1352 61.6476 51.5338 62.5162 52.0774C62.9143 52.3311 63.3848 52.5485 63.7829 52.8022C63.8914 52.8747 64 53.0559 64 53.1284C64 53.2371 63.819 53.3458 63.7105 53.4183C63.6381 53.4545 63.4933 53.4545 63.3848 53.4545C61.1771 53.672 59.1866 54.5055 57.3409 55.6652C55.6037 56.7524 53.8304 57.6222 51.8037 57.9483C50.0303 58.2383 48.2208 58.5282 46.375 58.1658C44.7826 57.8396 43.154 57.6947 41.5616 57.4772C41.1274 57.4047 41.0188 57.5497 41.0912 57.9846C41.3807 59.4342 42.1769 60.5576 43.335 61.4274C43.7693 61.7536 44.276 61.9348 44.7103 62.2609C45.3979 62.7321 45.3255 63.2394 44.6017 63.6381C43.5521 64.1817 42.5026 64.689 41.4531 65.2326C40.3312 65.8125 39.1369 65.8487 37.9064 65.9937C37.5083 66.0299 37.3997 65.9212 37.3635 65.3776C37.3635 65.0877 37.2187 64.979 36.9654 64.9065C36.5673 64.7615 36.1692 64.6528 35.7711 64.5078C35.6987 64.5078 35.554 64.3266 35.5901 64.2542C35.5901 64.1092 35.6987 63.928 35.8073 63.8918C36.1692 63.7468 36.5311 63.6743 36.893 63.5656C37.3997 63.4206 37.9064 63.2394 38.1235 62.6596C38.2683 62.2972 38.5578 62.2972 38.8835 62.3334C39.354 62.4059 39.8607 62.4784 40.3312 62.4784C40.8016 62.4784 40.9826 62.116 40.7654 61.6811C40.6931 61.4999 40.5845 61.3549 40.4759 61.21C39.7521 60.2315 39.2092 59.1443 38.9921 57.9121C38.8473 57.1148 38.8111 57.1511 38.0149 57.0786C36.7483 56.9699 35.4454 56.8974 34.1787 56.7887L34.2149 56.8974Z"
			fill="#FFB449" />
	</g>
	<defs>
		<clipPath id="clip0_459_21392">
			<rect width="80" height="100" fill="white" />
		</clipPath>
	</defs>
</svg>