<svg width="80" height="80" viewBox="0 0 80 80" fill="none" xmlns="http://www.w3.org/2000/svg">
	<path
		d="M79.2215 30.6351C83.5371 47.4768 69.4763 65.7126 47.8152 71.3632C26.1541 77.0161 5.09495 67.9436 0.779314 51.1019C-3.53869 34.2626 10.5221 16.0268 32.1832 10.3763C53.8443 4.72331 74.9034 13.7958 79.2191 30.6375"
		fill="#E94C45" />
	<path
		d="M75.7339 31.3306C74.1247 25.1587 71.0865 20.5651 65.401 17.588C63.415 16.5478 61.576 16.5478 60.3223 17.356C57.1418 19.3981 56.054 26.7752 57.7177 34.7453C58.2083 37.0959 58.9596 39.2744 59.872 41.228C55.7768 36.9453 49.4396 36.7874 45.3183 34.7716C41.0832 32.7008 40.2348 23.2887 44.5315 23.7407C47.2782 24.03 47.8091 27.1745 46.3255 30.8117C46.3184 30.8284 46.2662 30.9982 46.2828 31.0006C46.4535 31.0077 54.3121 31.7634 54.6866 31.7849C54.6984 31.7849 54.689 31.761 54.6913 31.749C56.2531 17.741 50.525 11.2822 45.5387 11.6911C38.7868 12.2459 35.9689 20.3929 36.5448 27.4304C35.3859 22.6861 34.2412 17.9466 33.1369 13.2095C30.3001 13.8648 25.0744 15.5841 22.7021 17.1193C22.7021 17.1193 35.886 44.6547 39.128 53.1652C34.3574 44.6619 25.0388 26.9354 19.8748 18.7142C18.4267 19.5153 17.0972 20.357 16.0521 21.2801C17.1494 25.9837 18.1684 31.4167 19.1638 37.0768C18.2253 34.3436 16.4502 32.0838 13.8954 31.3138C11.4544 30.5773 8.41855 31.8327 6.6577 34.2336C4.24275 37.5263 3.09807 41.1037 3.28056 45.188C3.4346 48.6242 4.17402 51.6587 5.89695 54.9969C8.52757 60.0975 13.6324 65.0044 21.5906 67.7759C20.6734 64.2009 19.9364 58.6006 19.0216 55.0256C15.1894 55.1882 9.23855 53.7057 8.0441 50.212C8.0441 50.212 10.5041 52.522 15.097 50.8242C18.4623 49.5783 20.0217 45.5969 19.9364 41.5269C21.5787 51.1016 23.1927 60.9536 25.0199 68.7898C27.6694 69.6147 33.2791 69.9352 35.3196 69.9352C32.5752 61.2931 24.4677 44.5232 21.2659 35.2809C26.8874 44.8843 34.4071 59.8656 39.7513 69.6602C42.1307 69.5024 44.4888 68.8519 46.5483 68.3856C45.7662 65.0331 44.9604 61.6757 44.1475 58.3184C44.8585 60.0282 45.8894 61.6016 47.373 62.8738C50.1316 65.2387 54.9141 65.8485 57.9026 64.4209C65.337 60.8699 65.3512 52.6678 62.7514 46.0153C66.3751 50.7261 70.821 52.62 73.1791 49.8485C77.7483 44.4801 77.08 36.5005 75.7315 31.3282L75.7339 31.3306ZM14.1253 42.7656C13.7983 44.8317 11.8692 49.0475 7.81896 48.1316C7.48243 45.616 7.82844 43 8.52046 41.5054C9.44947 39.4967 10.7008 38.337 12.1559 38.6765C13.8243 39.0663 14.4145 40.9435 14.1277 42.7656H14.1253ZM54.4899 55.963C51.2455 56.1878 51.2905 52.3498 52.1768 49.1288C52.1816 49.1096 52.2005 49.0905 52.1934 49.0714C52.1911 49.0666 43.1237 45.8671 43.1142 45.8647C43.0977 45.8575 43.1095 45.8982 43.1071 45.9173C42.8133 48.024 42.6403 50.6209 42.9152 53.2417C41.2823 46.5725 39.6162 39.9009 37.9691 33.2316C38.372 34.1068 38.8484 34.8983 39.4053 35.5583C45.7259 43.0215 50.9255 40.0252 54.7103 45.7045C56.9428 49.0546 58.3339 55.3317 54.4899 55.9678V55.963ZM71.4064 48.5931C70.757 48.8012 68.226 43.978 65.1759 34.554C62.1234 25.1276 60.891 19.4316 61.7395 19.1853C63.1709 18.774 66.3229 23.7885 68.982 31.969C71.641 40.1472 72.4444 48.2607 71.404 48.5931H71.4064Z"
		fill="white" />
	<path
		d="M75.6934 9.99454C76.2788 10.5948 76.594 11.391 76.594 12.2471C76.594 13.1032 76.2598 13.9258 75.6579 14.5164C75.037 15.1262 74.2312 15.4538 73.4088 15.4538C72.5865 15.4538 71.7641 15.1095 71.1503 14.483C70.5554 13.8732 70.2402 13.0793 70.2402 12.2495C70.2402 11.6756 70.3895 11.1184 70.7047 10.5804C71.2735 9.60955 72.2618 9.03564 73.4088 9.03564C74.2833 9.03564 75.0796 9.37042 75.6934 9.99933V9.99454ZM71.5698 10.3198C71.0531 10.8411 70.764 11.5297 70.764 12.2376C70.764 12.9454 71.027 13.6054 71.5247 14.1099C72.0319 14.6312 72.7073 14.9229 73.4065 14.9229C74.1056 14.9229 74.762 14.6408 75.2882 14.1362C75.7882 13.6508 76.0679 12.9788 76.0679 12.2902C76.0679 11.5226 75.8143 10.8769 75.3142 10.3652C74.7976 9.83433 74.1506 9.56172 73.4136 9.56172C72.6765 9.56172 72.0651 9.81759 71.5674 10.3221L71.5698 10.3198ZM73.4775 10.3987C74.4848 10.3987 74.9824 10.743 74.9824 11.4221C74.9824 11.8908 74.6933 12.2447 74.2122 12.3667L74.999 13.9569H74.044L73.3709 12.4982H72.9514V13.9569H72.0935V10.3987H73.4775ZM72.9538 11.9817H73.3733C73.8638 11.9817 74.0985 11.831 74.0985 11.4771C74.0985 11.1065 73.8449 10.9463 73.3282 10.9463H72.9514V11.9793L72.9538 11.9817Z"
		fill="#E94C45" />
</svg>