<svg width="80" height="80" viewBox="0 0 80 80" fill="none" xmlns="http://www.w3.org/2000/svg">
	<g clip-path="url(#clip0_2254_2726)">
		<path
			d="M79.6567 33.2618C79.6567 37.0576 78.6869 50.4474 67.4285 60.2915C55.8327 71.4288 44.4056 71.3037 39.9782 71.3037C35.5507 71.3037 24.1236 71.5539 12.5279 60.4167C1.31162 50.4891 0.341797 37.0993 0.341797 33.2618C0.341797 32.6361 0.805627 32.1773 1.39596 32.1773C5.40176 32.1773 19.9913 33.0115 30.8281 43.4814C35.382 47.5275 38.165 52.0742 39.9782 56.4123C41.7491 52.1159 44.5321 47.5275 49.1283 43.3562C60.0072 33.0115 74.5967 32.1773 78.5604 32.1773C79.1507 32.1773 79.6145 32.6361 79.6145 33.2618H79.6567ZM33.8219 40.2278C31.2497 37.725 28.4668 35.7645 25.6838 34.1795C27.9186 24.5856 32.7677 16.1179 38.9662 10.7787C39.5143 10.3199 40.4842 10.3199 41.0323 10.7787C47.2308 16.1179 52.0799 24.6273 54.3569 34.2629C51.4896 35.8897 48.6644 37.8919 46.0501 40.4364C43.7731 42.4386 41.7491 44.7328 39.9782 47.3189C38.2072 44.7328 36.141 42.3968 33.7797 40.3112L33.8219 40.2278Z"
			fill="white" />
	</g>
	<defs>
		<clipPath id="clip0_2254_2726">
			<rect width="80" height="80" fill="white" />
		</clipPath>
	</defs>
</svg>