<svg width="80" height="80" viewBox="0 0 80 80" fill="none" xmlns="http://www.w3.org/2000/svg">
	<path
		d="M12.1226 49.3964C8.72132 45.8299 8.60794 41.0552 8.72132 37.9489C8.94807 33.1742 11.8391 27.5367 14.3334 23.625C16.6009 20.1159 19.2652 16.8945 20.7391 13.0978C22.1562 9.41621 21.3626 8.20817 18.8117 9.24363C18.8117 9.24363 18.4716 13.7306 18.4716 15.3413C18.4716 15.3413 17.5646 20.0009 14.9569 20.1735C11.499 18.7929 16.4875 13.0978 16.3741 10.4517C15.5805 11.0269 13.3697 11.257 11.8958 12.35C12.1226 8.09312 13.3697 7.11519 15.2971 6.07973C13.8232 5.04427 14.9003 2.8583 16.7143 3.20345C17.1678 0.78738 20.9091 -0.880859 23.3467 0.499753C25.2174 0.0395487 27.4282 0.327176 28.6186 2.57067C30.4326 5.96468 30.2626 8.78343 27.5982 13.0403C26.8613 13.7306 27.2581 14.5935 26.8613 12.7527C24.8773 17.4123 20.9658 21.8417 19.3786 26.4438C18.6983 28.3421 17.9614 30.298 18.3582 32.4264C18.6983 34.4398 20.569 36.0505 22.8365 33.692C26.3511 29.9528 25.6709 23.7976 28.1084 21.0364C29.5256 19.4256 30.4326 19.5407 32.0766 19.4256C31.8498 19.0805 31.7364 18.7929 31.7364 18.4477C31.7931 16.5494 33.6638 16.7795 34.3441 18.1601C33.7205 16.837 32.8135 12.8102 34.2307 11.5447C35.8179 10.164 36.5549 12.9828 37.6319 13.7306C38.5956 10.7968 38.6523 6.71251 42.2803 5.562C42.3937 7.86302 41.8268 10.2791 43.8676 11.7748C45.2281 8.4958 46.4752 6.94261 49.593 5.04427C49.593 7.00013 48.3459 11.3145 50.6134 12.4651C51.5204 10.2791 57.6993 7.28776 59.57 9.07105C59.0598 10.7393 56.4522 12.2925 56.1687 14.3059C58.4362 16.1467 64.1617 13.7881 66.2591 15.8591C67.9031 17.5273 64.8986 19.3106 62.9146 20.4036C63.8216 21.6691 65.1254 21.439 66.4859 22.2444C67.9597 23.1073 69.2636 23.51 71.2476 25.7534C70.5107 27.8244 67.2795 28.5722 65.6922 29.4351C67.2228 31.3334 72.268 30.9883 72.3814 33.5769C72.4947 36.2231 67.5062 36.3957 65.8623 37.3736C68.0164 38.0064 73.8552 39.0418 72.9482 42.2057C72.0979 45.2546 66.5426 43.989 64.2751 44.1041C65.7489 45.3696 68.7534 49.3389 68.2432 51.4674C67.5062 54.6313 64.3884 52.2152 62.291 52.3302C64.3884 53.4232 66.3158 54.8038 64.9553 57.45C62.4044 58.543 60.9872 57.5651 59.0598 57.2199C59.4566 58.9457 61.8375 60.729 60.477 62.5122C58.8331 64.6407 55.5452 61.9945 53.8446 61.3042C53.8446 62.6273 55.3184 65.5036 53.6178 66.3089C51.8605 67.1718 49.8764 64.0654 49.0261 63.0875C48.2892 67.0568 47.0421 66.9992 45.1714 65.1009C44.7746 66.539 44.6045 68.2073 42.7905 68.9551C42.3937 69.1277 42.6771 69.0126 42.7905 68.9551C42.7338 70.6809 42.3937 73.7297 43.1306 74.8227L45.3981 75.8582C47.3255 76.6635 48.3459 77.0087 48.1191 78.3893C47.6656 77.7565 46.4752 77.2963 44.7746 77.0087C44.7746 77.2388 35.8746 75.6281 34.2874 80C33.4937 77.4114 36.0447 76.7786 37.9721 75.8582C37.0084 76.0883 35.9313 76.0883 35.1944 76.2033C33.3237 76.4909 31.1696 76.0883 30.0925 78.0441C30.2059 75.7431 32.8135 75.6281 34.4574 75.398C35.3077 75.2829 38.7657 75.1679 39.7861 74.42C40.523 73.0969 40.8064 70.6233 40.6364 68.4949C37.5186 67.1718 33.7772 61.937 31.6231 59.4059C31.2262 60.0962 30.2626 60.3838 29.1288 60.3263L28.8454 60.4413C28.8454 60.4413 28.9587 60.3263 29.0154 60.2688C27.6549 60.2688 25.9543 59.751 24.4237 59.1182C22.5531 58.6005 20.9091 57.7376 19.4919 56.7022C19.6053 57.2199 19.7754 57.7376 19.8888 58.1978C18.5849 57.6801 17.1678 56.4145 16.2608 54.9764C16.2608 55.6667 16.3741 56.4145 16.3741 56.9898C15.2404 55.4941 14.3334 53.8834 13.6531 52.1577C13.6531 52.5028 13.5964 52.848 13.6531 53.1931C13.2563 52.3302 12.7461 51.5824 12.4627 50.662C12.2926 50.0867 12.2926 49.3964 12.2926 48.7061C12.2359 48.5336 12.1793 48.361 12.1226 48.1309C11.9525 48.5911 11.7824 49.0513 11.7824 49.2239L12.1226 49.3964Z"
		fill="white" />
</svg>