<svg width="80" height="80" viewBox="0 0 80 80" fill="none" xmlns="http://www.w3.org/2000/svg">
	<path
		d="M78.1796 18.4258C78.0454 16.4035 76.8816 14.8755 75.1361 14.1115C52.5333 14.1115 41.7466 0 40.8515 0C39.9563 0 29.8857 14.1115 6.56682 14.1115C4.82125 14.8755 3.65755 16.4035 3.56803 18.4258C2.67287 33.3463 8.08859 65.9286 38.2107 79.321C39.1059 79.7704 39.9563 80.0401 40.8515 79.9951C41.6123 80.0401 42.6418 79.7704 43.4027 79.321C73.6143 65.9286 79.03 33.3463 78.1796 18.4258ZM55.8006 42.5143C55.8006 50.7834 49.0869 57.5246 40.6724 57.5246C32.2579 57.5246 25.768 50.7834 25.768 42.5143V22.5155L35.7043 32.4924H45.8196L55.8006 22.5155V42.5143ZM44.5664 42.5143C44.5664 43.8625 45.6853 45.031 47.0728 45.031C48.4603 45.031 49.5345 43.8625 49.5345 42.5143C49.5345 41.166 48.4156 39.9976 47.0728 39.9976C45.7301 39.9976 44.5664 41.1211 44.5664 42.5143ZM34.4511 39.9976C33.1978 39.9976 31.9894 41.1211 31.9894 42.5143C31.9894 43.9074 33.1978 45.031 34.4511 45.031C35.9728 45.031 36.9575 43.8625 36.9575 42.5143C36.9575 41.166 35.9728 39.9976 34.4511 39.9976Z"
		fill="white" />
</svg>