<svg width="80" height="80" viewBox="0 0 80 80" fill="none" xmlns="http://www.w3.org/2000/svg">
	<g clip-path="url(#clip0_2254_2741)">
		<path
			d="M68.0621 21.5027H68.9434C69.6244 21.5027 70.1452 20.3459 70.1452 18.9279C70.1452 17.51 69.6244 16.3905 68.9434 16.3905H46.7501C45.6685 13.9277 43.0646 12.1738 40.02 12.1738C36.9755 12.1738 34.4116 13.9277 33.33 16.3905H11.337C10.696 16.3905 10.1352 17.5473 10.1352 18.9279C10.1352 20.3086 10.696 21.5027 11.337 21.5027H11.8978L0 39.6008C0 46.6907 5.80871 52.4373 12.9394 52.4373C20.0701 52.4373 25.9189 46.6907 25.9189 39.6008L14.021 21.5027H33.33C33.8908 22.7714 34.8523 23.8536 36.0941 24.5999V62.8857H20.5108C17.9069 62.8857 15.7837 64.8634 15.7837 67.3262V69.5651H64.5769V67.3262C64.5769 64.8634 62.4537 62.8857 59.8498 62.8857H43.986V24.5999C45.2278 23.8536 46.1893 22.7714 46.7501 21.5027H65.979L54.0811 39.6008C54.0811 46.6907 59.8498 52.4373 67.0205 52.4373C74.1913 52.4373 80 46.6907 80 39.6008L68.0621 21.5027ZM22.9945 38.0708H2.92439L12.9394 22.7714L22.9945 38.0708ZM56.9655 38.0708L67.0205 22.7714L77.0756 38.0708H56.9655Z"
			fill="white" />
	</g>
	<defs>
		<clipPath id="clip0_2254_2741">
			<rect width="80" height="80" fill="white" />
		</clipPath>
	</defs>
</svg>