<svg width="1526" height="1208" viewBox="0 0 1526 1208" fill="none" xmlns="http://www.w3.org/2000/svg">
	<path opacity="0.11"
		d="M1505.73 407.374C1472.28 279.5 1409.18 184.26 1291.13 122.579C1249.86 101.055 1211.7 101.055 1185.6 117.719C1119.51 160.073 1096.98 312.944 1131.47 478.08C1141.7 526.8 1157.21 571.932 1176.18 612.435C1091.12 523.675 959.505 520.435 873.87 478.659C785.936 435.726 768.349 240.617 857.548 250.106C914.676 256.124 925.596 321.276 894.79 396.611C894.675 396.958 893.526 400.546 893.871 400.546C897.434 400.662 1060.66 416.4 1068.36 416.747C1068.59 416.747 1068.36 416.284 1068.36 416.053C1100.77 125.819 981.805 -8.07212 878.238 0.375664C738.003 11.8322 679.495 180.672 691.45 326.599C667.311 228.35 643.632 130.101 620.643 31.8523C561.79 45.5077 453.166 81.0346 403.854 112.858C403.854 112.858 677.656 683.489 745.015 859.85C645.931 683.604 452.361 316.299 345.116 145.839C315 162.504 287.413 179.862 265.688 199.072C288.447 296.511 309.713 409.109 330.288 526.452C310.862 469.864 273.964 422.996 220.859 407.026C170.168 391.751 107.177 417.789 70.509 467.549C20.3923 535.826 -3.40165 609.889 0.391589 694.598C3.61009 765.768 18.898 828.721 54.7613 897.923C109.361 1003.58 215.456 1105.3 380.75 1162.7C361.668 1088.64 346.381 972.565 327.414 898.502C247.871 901.858 124.189 871.076 99.4755 798.749C99.4755 798.749 150.627 846.658 245.917 811.362C315.805 785.556 348.22 703.046 346.381 618.684C380.52 817.033 413.969 1021.28 452.016 1183.64C507.076 1200.77 623.517 1207.37 665.932 1207.37C608.918 1028.23 440.522 680.711 374.083 489.19C490.868 688.233 646.966 998.718 758.004 1201.7C807.431 1198.46 856.398 1184.92 899.158 1175.31C882.951 1105.76 866.169 1036.21 849.272 966.663C864.1 1002.07 885.48 1034.71 916.285 1061.09C973.529 1110.16 1072.96 1122.77 1134.91 1093.15C1289.29 1019.55 1289.63 849.551 1235.61 711.725C1310.9 809.395 1403.2 848.625 1452.17 791.111C1547.11 679.901 1533.2 514.533 1505.16 407.258L1505.73 407.374ZM226.147 644.374C219.365 687.192 179.248 774.563 95.1075 755.584C88.0958 703.509 95.3374 649.235 109.706 618.221C129.017 576.561 154.995 552.49 185.226 559.549C219.824 567.65 232.124 606.533 226.147 644.259V644.374ZM1064.45 917.828C997.093 922.457 998.012 842.955 1016.4 776.183C1016.4 775.836 1016.86 775.373 1016.75 775.026C1016.75 774.91 828.351 708.601 828.236 708.601C827.891 708.485 828.236 709.295 828.121 709.642C822.029 753.27 818.466 807.081 824.098 861.355C790.189 723.182 755.59 584.893 721.336 446.604C729.727 464.772 739.613 481.089 751.222 494.86C882.491 649.582 990.426 587.439 1069.05 705.129C1115.37 774.563 1144.34 904.635 1064.45 917.828ZM1415.84 765.189C1402.39 769.471 1349.75 669.486 1286.41 474.261C1223.08 278.921 1197.44 160.883 1215.03 155.792C1244.8 147.228 1310.21 251.263 1365.5 420.682C1420.79 590.216 1437.34 758.246 1415.84 765.189Z"
		fill="white" />
</svg>