<svg width="62" height="50" viewBox="0 0 62 50" fill="none" xmlns="http://www.w3.org/2000/svg">
<path d="M61.3964 17.0468C64.7419 30.1329 53.8434 44.3037 37.0561 48.6947C20.2688 53.0856 3.94904 46.0393 0.603589 32.9532C-2.74186 19.8671 8.15658 5.6963 24.9439 1.30535C41.7312 -3.0856 58.051 3.96075 61.3964 17.0468Z" fill="#E94C45"/>
<path d="M58.6956 17.5849C57.4474 12.7904 55.0928 9.21949 50.6879 6.90686C49.1482 6.09983 47.7242 6.09983 46.7506 6.72463C44.2844 8.31266 43.4437 14.0443 44.7305 20.2359C45.1122 22.0626 45.6912 23.7548 46.3989 25.2734C43.225 21.9454 38.3141 21.8239 35.1187 20.2576C31.8376 18.6479 31.1814 11.3325 34.5097 11.6883C36.6413 11.9139 37.0488 14.3567 35.8993 17.1813C35.895 17.1944 35.8521 17.3289 35.865 17.3289C35.998 17.3332 42.0884 17.9233 42.3758 17.9363C42.3843 17.9363 42.3758 17.919 42.3758 17.9103C43.5853 7.02835 39.1461 2.00826 35.2817 2.325C30.0491 2.75455 27.866 9.08498 28.312 14.5563C27.4113 10.8726 26.5278 7.18889 25.67 3.50518C23.474 4.01716 19.4208 5.3492 17.5808 6.54239C17.5808 6.54239 27.7973 27.9374 30.3107 34.5499C26.6136 27.9418 19.3908 14.1702 15.3892 7.77897C14.2654 8.40377 13.2361 9.05461 12.4254 9.77486C13.2747 13.4282 14.0681 17.6499 14.8359 22.0496C14.111 19.9279 12.7342 18.1706 10.7527 17.5718C8.86124 16.9991 6.51085 17.9754 5.14264 19.8411C3.27262 22.401 2.38479 25.1779 2.52633 28.354C2.64642 31.0224 3.21687 33.3827 4.55504 35.9774C6.59234 39.9388 10.5511 43.7527 16.7188 45.9048C16.0068 43.1279 15.4363 38.776 14.7286 35.9991C11.7606 36.1249 7.14562 34.9708 6.22348 32.259C6.22348 32.259 8.1321 34.0553 11.6877 32.7319C14.2954 31.7643 15.505 28.6707 15.4363 25.5077C16.7102 32.9445 17.9583 40.6026 19.378 46.6901C21.4324 47.3323 25.7772 47.5796 27.3599 47.5796C25.2325 40.863 18.9491 27.8333 16.47 20.6524C20.8276 28.1153 26.6522 39.7566 30.7954 47.367C32.6397 47.2455 34.4668 46.7378 36.0623 46.3777C35.4576 43.77 34.8314 41.1624 34.2009 38.5547C34.7542 39.8824 35.5519 41.106 36.7014 42.0952C38.8373 43.9349 42.5473 44.4078 44.8591 43.2971C50.6193 40.5376 50.6322 34.1637 48.6163 28.9961C51.4256 32.6581 54.8697 34.129 56.6969 31.9726C60.2396 27.8029 59.7206 21.6027 58.6741 17.5805L58.6956 17.5849ZM10.95 26.4709C10.6969 28.0763 9.20007 31.3521 6.0605 30.6406C5.79887 28.6881 6.06907 26.6531 6.6052 25.4903C7.32576 23.9283 8.29508 23.0258 9.4231 23.2905C10.7141 23.5942 11.173 25.0521 10.95 26.4666V26.4709ZM42.2299 36.7237C39.7166 36.8972 39.7509 33.9164 40.4371 31.4129C40.4371 31.3999 40.4543 31.3825 40.45 31.3695C40.45 31.3652 33.4203 28.879 33.416 28.879C33.4031 28.8746 33.416 28.905 33.4117 28.918C33.1844 30.5538 33.0514 32.5714 33.2616 34.6063C31.9963 29.4257 30.7053 24.2407 29.4272 19.0557C29.7403 19.7369 30.1091 20.3487 30.5423 20.8651C35.4404 26.6661 39.4678 24.3362 42.4015 28.7488C44.13 31.3521 45.2108 36.229 42.2299 36.7237ZM55.3415 31.0007C54.8397 31.1612 52.8753 27.4124 50.5121 20.0927C48.1488 12.7687 47.1924 8.34303 47.8486 8.15212C48.9594 7.83104 51.3999 11.7317 53.4629 18.0838C55.526 24.4403 56.1436 30.7404 55.3415 31.0007Z" fill="white"/>
<path d="M58.6642 0.789016C59.1188 1.25762 59.3633 1.87374 59.3633 2.53759C59.3633 3.20144 59.1059 3.83925 58.6384 4.29917C58.158 4.77211 57.5318 5.02811 56.8971 5.02811C56.2623 5.02811 55.6232 4.7591 55.1471 4.27314C54.6839 3.8002 54.4395 3.17974 54.4395 2.53759C54.4395 2.09068 54.5553 1.66114 54.7997 1.24026C55.2415 0.485298 56.0092 0.0383911 56.8971 0.0383911C57.5747 0.0383911 58.1924 0.298725 58.6684 0.78468L58.6642 0.789016ZM55.4688 1.04067C55.0699 1.44419 54.8426 1.98221 54.8426 2.52891C54.8426 3.07561 55.0442 3.59194 55.4345 3.98244C55.8291 4.38595 56.3524 4.61592 56.8928 4.61592C57.4332 4.61592 57.9436 4.39463 58.3511 4.00413C58.7371 3.62665 58.9558 3.10598 58.9558 2.56796C58.9558 1.9692 58.7585 1.47023 58.3725 1.07105C57.9736 0.658854 57.4718 0.446247 56.9014 0.446247C56.3309 0.446247 55.8548 0.645836 55.4688 1.03634V1.04067ZM56.9485 1.10142C57.7291 1.10142 58.1152 1.37043 58.1152 1.89543C58.1152 2.2599 57.8921 2.53325 57.519 2.62871L58.128 3.86528H57.3903L56.867 2.73284H56.5411V3.86528H55.8763V1.10142H56.9485ZM56.5411 2.32932H56.867C57.2488 2.32932 57.4289 2.21217 57.4289 1.93882C57.4289 1.65246 57.2316 1.52663 56.8327 1.52663H56.5411V2.32932Z" fill="#E94C45"/>
</svg>
