<svg width="131" height="429" viewBox="0 0 131 429" fill="none" xmlns="http://www.w3.org/2000/svg">
	<g clip-path="url(#clip0_459_15712)">
		<path d="M76.5545 34.3081C80.4206 50.1552 72.2458 70.1099 59.8555 80.2856" stroke="#4CC9E9" stroke-width="1.73333"
			stroke-linecap="round" stroke-linejoin="round" stroke-dasharray="0.12 2.38" />
		<path d="M75.3208 31.5542C79.8391 48.4282 70.523 71.907 56.5723 82.1061" stroke="#4CC9E9" stroke-width="1.73333"
			stroke-linecap="round" stroke-linejoin="round" stroke-dasharray="0.12 2.38" />
		<path d="M73.7128 28.4971C79.2791 45.9078 68.7753 72.094 54.5684 82.9699" stroke="#4CC9E9" stroke-width="1.73333"
			stroke-linecap="round" stroke-linejoin="round" stroke-dasharray="0.12 2.38" />
		<path d="M72.4551 26.6064C77.3693 44.7641 66.7956 71.6037 52.7051 83.5065" stroke="#4CC9E9" stroke-width="1.73333"
			stroke-linecap="round" stroke-linejoin="round" stroke-dasharray="0.12 2.38" />
		<path d="M71.0817 24.9961C74.8547 43.9005 64.5371 70.8802 50.6562 83.9033" stroke="#4CC9E9" stroke-width="1.73333"
			stroke-linecap="round" stroke-linejoin="round" stroke-dasharray="0.12 2.38" />
		<path d="M69.4746 23.3857C71.8735 37.8091 63.3493 70.6702 48.4902 84.16" stroke="#4CC9E9" stroke-width="1.73333"
			stroke-linecap="round" stroke-linejoin="round" stroke-dasharray="0.12 2.38" />
		<path d="M67.6342 21.8223C68.822 42.3138 59.5526 68.7333 46.2539 84.277" stroke="#4CC9E9" stroke-width="1.73333"
			stroke-linecap="round" stroke-linejoin="round" stroke-dasharray="0.12 2.38" />
		<path d="M65.5624 20.2583C65.5158 41.3799 56.6656 67.4027 43.9492 84.2067" stroke="#4CC9E9" stroke-width="1.73333"
			stroke-linecap="round" stroke-linejoin="round" stroke-dasharray="0.12 2.38" />
		<path d="M63.3482 18.7881C61.8576 40.5399 53.5664 65.8625 41.5254 84.0201" stroke="#4CC9E9" stroke-width="1.73333"
			stroke-linecap="round" stroke-linejoin="round" stroke-dasharray="0.12 2.38" />
		<path
			d="M60.9976 17.3877C58.5754 35.8254 52.3104 55.0332 44.811 71.9772C43.0176 76.0148 41.2243 79.8891 39.0117 83.7166"
			stroke="#4CC9E9" stroke-width="1.73333" stroke-linecap="round" stroke-linejoin="round"
			stroke-dasharray="0.12 2.38" />
		<path
			d="M58.5302 16.0806C54.9901 34.4949 48.8648 53.1193 41.9476 70.53C40.2242 74.8477 38.5007 79.0954 36.4512 83.273"
			stroke="#4CC9E9" stroke-width="1.73333" stroke-linecap="round" stroke-linejoin="round"
			stroke-dasharray="0.12 2.38" />
		<path
			d="M55.9207 14.8438C51.1462 33.7015 44.9277 52.4893 38.3366 70.7636C36.8926 74.7545 35.4487 78.7221 33.8184 82.6664"
			stroke="#4CC9E9" stroke-width="1.73333" stroke-linecap="round" stroke-linejoin="round"
			stroke-dasharray="0.12 2.38" />
		<path
			d="M53.2181 13.7002C47.3956 32.2546 41.2237 50.7156 35.308 69.2466C33.9572 73.4943 32.6064 77.7419 31.209 81.9663"
			stroke="#4CC9E9" stroke-width="1.73333" stroke-linecap="round" stroke-linejoin="round"
			stroke-dasharray="0.12 2.38" />
		<path
			d="M50.4711 12.6733C43.5772 31.0643 37.2656 49.6887 31.9788 68.5932C30.8143 72.7708 29.6963 76.9485 28.625 81.1261"
			stroke="#4CC9E9" stroke-width="1.73333" stroke-linecap="round" stroke-linejoin="round"
			stroke-dasharray="0.12 2.38" />
		<path
			d="M47.6757 11.7861C39.8502 29.547 33.4455 48.3581 28.8573 67.2158C27.8093 71.5335 26.8311 75.8279 26.0625 80.2156"
			stroke="#4CC9E9" stroke-width="1.73333" stroke-linecap="round" stroke-linejoin="round"
			stroke-dasharray="0.12 2.38" />
		<path
			d="M44.8789 11.0396C36.0986 28.1002 29.4609 47.7282 25.6413 66.4926C24.7796 70.7403 24.0343 74.8946 23.5918 79.1889"
			stroke="#4CC9E9" stroke-width="1.73333" stroke-linecap="round" stroke-linejoin="round"
			stroke-dasharray="0.12 2.38" />
		<path
			d="M42.0864 10.4326C32.5607 26.4897 25.6203 47.0746 22.5693 65.4656C21.8706 69.6899 21.3349 73.7742 21.1719 78.0452"
			stroke="#4CC9E9" stroke-width="1.73333" stroke-linecap="round" stroke-linejoin="round"
			stroke-dasharray="0.12 2.38" />
		<path
			d="M39.3843 9.98926C29.2997 24.8561 22.0564 46.2578 19.7041 64.1587C19.1452 68.453 18.7725 72.514 18.9123 76.8316"
			stroke="#4CC9E9" stroke-width="1.73333" stroke-linecap="round" stroke-linejoin="round"
			stroke-dasharray="0.12 2.38" />
		<path
			d="M36.753 9.73242C26.0628 23.5723 18.7497 45.1841 16.9797 62.8283C16.5372 67.1926 16.3508 71.2069 16.7701 75.5713"
			stroke="#4CC9E9" stroke-width="1.73333" stroke-linecap="round" stroke-linejoin="round"
			stroke-dasharray="0.12 2.38" />
		<path
			d="M34.2625 9.63916C22.6873 22.6155 15.3043 44.8108 14.3261 62.3849C14.0932 66.5159 14.1398 70.1567 14.8152 74.1944"
			stroke="#4CC9E9" stroke-width="1.73333" stroke-linecap="round" stroke-linejoin="round"
			stroke-dasharray="0.12 2.38" />
		<path
			d="M31.9085 9.75586C19.6114 21.752 11.9023 44.9741 11.9023 62.1749C11.9023 65.9791 12.2051 69.1532 13.0203 72.8174"
			stroke="#4CC9E9" stroke-width="1.73333" stroke-linecap="round" stroke-linejoin="round"
			stroke-dasharray="0.12 2.38" />
		<path
			d="M29.7405 10.0825C16.1624 21.4719 7.28888 48.2648 9.96724 65.9557C10.27 67.8928 10.8057 69.5265 11.3646 71.3703"
			stroke="#4CC9E9" stroke-width="1.73333" stroke-linecap="round" stroke-linejoin="round"
			stroke-dasharray="0.12 2.38" />
		<path d="M27.7878 10.5728C12.2533 21.7054 3.33318 51.8358 9.94757 69.8767" stroke="#4CC9E9" stroke-width="1.73333"
			stroke-linecap="round" stroke-linejoin="round" stroke-dasharray="0.12 2.38" />
		<path d="M25.2235 11.5996C10.0849 22.3588 1.1415 50.9956 8.73407 68.3596" stroke="#4CC9E9" stroke-width="1.73333"
			stroke-linecap="round" stroke-linejoin="round" stroke-dasharray="0.12 2.38" />
		<path d="M22.2189 13.1167C8.05855 23.8292 0.79204 48.2183 6.68443 65.0223" stroke="#4CC9E9" stroke-width="1.73333"
			stroke-linecap="round" stroke-linejoin="round" stroke-dasharray="0.12 2.38" />
		<path d="M18.5862 15.4507C4.63541 26.6066 0.862409 46.6314 5.98623 62.2917" stroke="#4CC9E9" stroke-width="1.73333"
			stroke-linecap="round" stroke-linejoin="round" stroke-dasharray="0.12 2.38" />
		<path
			d="M40.2148 24.6431C40.5998 24.6431 40.8995 24.7643 41.1748 24.9585C41.383 25.1053 41.6315 25.3375 41.8828 25.5591L41.8906 25.5659L41.8975 25.5728C43.6242 27.1665 48.8203 31.9946 58.0557 31.9946H58.3623L58.5176 32.0562L58.6338 32.103L58.6475 32.1089C60.108 32.7236 61.0667 34.0591 61.1328 35.6577L61.1709 36.5122C61.4336 45.5777 57.8037 61.7869 42.1836 68.7388C41.6477 69.0387 40.9167 69.2261 40.2617 69.2261H40.1924C39.4714 69.2261 38.8296 69.0408 38.1631 68.7202V68.7192C22.0991 61.5679 18.7756 44.5208 19.2734 35.6597C19.362 34.0664 20.3151 32.7265 21.7822 32.1089L21.7891 32.106L21.7969 32.103L21.9131 32.0562L22.0684 31.9946H22.375C31.9365 31.9946 36.8986 27.1872 38.5391 25.5884L38.5439 25.5835C38.7863 25.3512 39.0255 25.1168 39.25 24.9585C39.5317 24.7599 39.8368 24.6432 40.2148 24.6431Z"
			fill="#FDF4EB" stroke="#372E2D" stroke-width="1.73333" />
		<path
			d="M42.801 43.0366H37.5374L32.3438 37.832V48.2178C32.3438 52.5122 35.814 56.013 40.1226 56.013C44.4313 56.013 47.9714 52.5122 47.9714 48.2178V37.832L42.7777 43.0366H42.801ZM36.8853 49.5248C36.2332 49.5248 35.5811 48.9413 35.5811 48.2178C35.5811 47.4943 36.2332 46.9108 36.8853 46.9108C37.6772 46.9108 38.1896 47.4943 38.1896 48.2178C38.1896 48.9413 37.6772 49.5248 36.8853 49.5248ZM43.4531 49.5248C42.7311 49.5248 42.1489 48.9413 42.1489 48.2178C42.1489 47.4943 42.7311 46.9108 43.4531 46.9108C44.1751 46.9108 44.7574 47.4943 44.7574 48.2178C44.7574 48.9413 44.1751 49.5248 43.4531 49.5248Z"
			fill="#372E2D" />
	</g>
	<g clip-path="url(#clip1_459_15712)">
		<path d="M128.554 103.501C132.421 118.975 124.246 138.46 111.855 148.397" stroke="#4CC9E9" stroke-width="1.73333"
			stroke-linecap="round" stroke-linejoin="round" stroke-dasharray="0.12 2.38" />
		<path d="M127.317 100.812C131.835 117.288 122.519 140.215 108.568 150.174" stroke="#4CC9E9" stroke-width="1.73333"
			stroke-linecap="round" stroke-linejoin="round" stroke-dasharray="0.12 2.38" />
		<path d="M125.711 97.8262C131.277 114.827 120.773 140.397 106.566 151.017" stroke="#4CC9E9" stroke-width="1.73333"
			stroke-linecap="round" stroke-linejoin="round" stroke-dasharray="0.12 2.38" />
		<path d="M124.453 95.98C129.367 113.71 118.794 139.918 104.703 151.541" stroke="#4CC9E9" stroke-width="1.73333"
			stroke-linecap="round" stroke-linejoin="round" stroke-dasharray="0.12 2.38" />
		<path d="M123.08 94.4077C126.853 112.867 116.535 139.212 102.654 151.929" stroke="#4CC9E9" stroke-width="1.73333"
			stroke-linecap="round" stroke-linejoin="round" stroke-dasharray="0.12 2.38" />
		<path d="M121.475 92.8354C123.873 106.919 115.349 139.007 100.49 152.18" stroke="#4CC9E9" stroke-width="1.73333"
			stroke-linecap="round" stroke-linejoin="round" stroke-dasharray="0.12 2.38" />
		<path d="M119.632 91.3086C120.82 111.318 111.551 137.116 98.252 152.294" stroke="#4CC9E9" stroke-width="1.73333"
			stroke-linecap="round" stroke-linejoin="round" stroke-dasharray="0.12 2.38" />
		<path d="M117.56 89.7812C117.514 110.406 108.664 135.816 95.9473 152.225" stroke="#4CC9E9" stroke-width="1.73333"
			stroke-linecap="round" stroke-linejoin="round" stroke-dasharray="0.12 2.38" />
		<path d="M115.348 88.3457C113.858 109.586 105.566 134.312 93.5254 152.043" stroke="#4CC9E9" stroke-width="1.73333"
			stroke-linecap="round" stroke-linejoin="round" stroke-dasharray="0.12 2.38" />
		<path
			d="M112.996 86.9785C110.573 104.982 104.308 123.738 96.809 140.284C95.0157 144.226 93.2223 148.009 91.0098 151.747"
			stroke="#4CC9E9" stroke-width="1.73333" stroke-linecap="round" stroke-linejoin="round"
			stroke-dasharray="0.12 2.38" />
		<path
			d="M110.526 85.7021C106.986 103.683 100.861 121.869 93.9437 138.87C92.2203 143.087 90.4968 147.234 88.4473 151.314"
			stroke="#4CC9E9" stroke-width="1.73333" stroke-linecap="round" stroke-linejoin="round"
			stroke-dasharray="0.12 2.38" />
		<path
			d="M107.919 84.4941C103.144 102.908 96.9258 121.254 90.3347 139.098C88.8907 142.995 87.4467 146.869 85.8164 150.721"
			stroke="#4CC9E9" stroke-width="1.73333" stroke-linecap="round" stroke-linejoin="round"
			stroke-dasharray="0.12 2.38" />
		<path
			d="M105.216 83.3774C99.3936 101.495 93.2218 119.522 87.3061 137.617C85.9553 141.765 84.6044 145.912 83.207 150.037"
			stroke="#4CC9E9" stroke-width="1.73333" stroke-linecap="round" stroke-linejoin="round"
			stroke-dasharray="0.12 2.38" />
		<path
			d="M102.467 82.375C95.5733 100.333 89.2617 118.519 83.9749 136.979C82.8104 141.058 81.6924 145.138 80.6211 149.217"
			stroke="#4CC9E9" stroke-width="1.73333" stroke-linecap="round" stroke-linejoin="round"
			stroke-dasharray="0.12 2.38" />
		<path
			d="M99.6738 81.5088C91.8483 98.8517 85.4435 117.22 80.8554 135.634C79.8073 139.85 78.8291 144.044 78.0605 148.328"
			stroke="#4CC9E9" stroke-width="1.73333" stroke-linecap="round" stroke-linejoin="round"
			stroke-dasharray="0.12 2.38" />
		<path
			d="M96.8789 80.7793C88.0986 97.4386 81.4609 116.605 77.6413 134.928C76.7796 139.075 76.0343 143.132 75.5918 147.325"
			stroke="#4CC9E9" stroke-width="1.73333" stroke-linecap="round" stroke-linejoin="round"
			stroke-dasharray="0.12 2.38" />
		<path
			d="M94.0825 80.187C84.5568 95.8663 77.6164 115.967 74.5654 133.925C73.8667 138.05 73.331 142.038 73.168 146.209"
			stroke="#4CC9E9" stroke-width="1.73333" stroke-linecap="round" stroke-linejoin="round"
			stroke-dasharray="0.12 2.38" />
		<path
			d="M91.3823 79.7539C81.2977 94.2709 74.0545 115.169 71.7022 132.649C71.1432 136.842 70.7706 140.807 70.9103 145.024"
			stroke="#4CC9E9" stroke-width="1.73333" stroke-linecap="round" stroke-linejoin="round"
			stroke-dasharray="0.12 2.38" />
		<path
			d="M88.7491 79.5034C78.0589 93.0177 70.7458 114.121 68.9758 131.35C68.5333 135.612 68.3469 139.531 68.7662 143.793"
			stroke="#4CC9E9" stroke-width="1.73333" stroke-linecap="round" stroke-linejoin="round"
			stroke-dasharray="0.12 2.38" />
		<path
			d="M86.2585 79.4121C74.6834 92.0832 67.3004 113.756 66.3222 130.917C66.0893 134.951 66.1359 138.506 66.8113 142.448"
			stroke="#4CC9E9" stroke-width="1.73333" stroke-linecap="round" stroke-linejoin="round"
			stroke-dasharray="0.12 2.38" />
		<path
			d="M83.9066 79.5259C71.6094 91.2398 63.9004 113.915 63.9004 130.711C63.9004 134.426 64.2032 137.526 65.0183 141.104"
			stroke="#4CC9E9" stroke-width="1.73333" stroke-linecap="round" stroke-linejoin="round"
			stroke-dasharray="0.12 2.38" />
		<path
			d="M81.7405 79.8452C68.1624 90.9666 59.2889 117.129 61.9672 134.404C62.27 136.295 62.8057 137.891 63.3646 139.691"
			stroke="#4CC9E9" stroke-width="1.73333" stroke-linecap="round" stroke-linejoin="round"
			stroke-dasharray="0.12 2.38" />
		<path d="M79.7839 80.3237C64.2494 91.1944 55.3293 120.616 61.9437 138.232" stroke="#4CC9E9" stroke-width="1.73333"
			stroke-linecap="round" stroke-linejoin="round" stroke-dasharray="0.12 2.38" />
		<path d="M77.2215 81.3267C62.0829 91.8327 53.1395 119.796 60.7321 136.751" stroke="#4CC9E9" stroke-width="1.73333"
			stroke-linecap="round" stroke-linejoin="round" stroke-dasharray="0.12 2.38" />
		<path d="M74.217 82.8076C60.0566 93.2681 52.7901 117.083 58.6825 133.492" stroke="#4CC9E9" stroke-width="1.73333"
			stroke-linecap="round" stroke-linejoin="round" stroke-dasharray="0.12 2.38" />
		<path d="M70.5842 85.0869C56.6335 95.9804 52.8605 115.534 57.9843 130.826" stroke="#4CC9E9" stroke-width="1.73333"
			stroke-linecap="round" stroke-linejoin="round" stroke-dasharray="0.12 2.38" />
		<path
			d="M99.3525 95.1982C101.767 95.1982 104.045 96.2303 105.618 98.0674L105.852 98.3525C106.833 99.6068 107.419 101.1 107.546 102.667C109.088 103.044 110.47 103.849 111.57 105.011L111.819 105.284L111.822 105.288C114.757 108.702 114.318 113.83 110.864 116.721L110.862 116.723C109.385 117.949 107.51 118.644 105.574 118.645C103.385 118.645 101.312 117.794 99.7715 116.28L92.709 122.184C93.8318 123.736 94.367 125.626 94.2051 127.559C94.0241 129.719 93.0081 131.67 91.3447 133.062C89.8621 134.309 87.9844 134.984 86.0547 134.984H85.6992L85.6719 134.958C83.3919 134.858 81.2652 133.826 79.7891 132.099C78.6667 130.788 77.9979 129.187 77.8613 127.499C76.1997 127.093 74.7105 126.193 73.584 124.878V124.877C72.1565 123.218 71.4853 121.124 71.666 118.965C71.8472 116.802 72.8814 114.836 74.543 113.446L74.5449 113.444C76.0245 112.216 77.885 111.538 79.8174 111.538C81.7614 111.538 83.6136 112.209 85.0771 113.422L92.2744 107.405C91.4288 105.977 91.0457 104.327 91.1855 102.641V102.64C91.3668 100.477 92.401 98.5109 94.0625 97.1211C95.5451 95.8734 97.4228 95.1983 99.3525 95.1982Z"
			fill="#FDF4EB" stroke="#372E2D" stroke-width="1.73333" />
	</g>
	<g clip-path="url(#clip2_459_15712)">
		<path
			d="M57.1178 82.391C57.4788 82.8636 59.0422 82.3318 60.6477 81.16C62.2533 79.9881 63.2584 78.6635 62.8973 78.1909"
			fill="#FDF4EB" />
		<path
			d="M57.1178 82.391C57.4788 82.8636 59.0422 82.3318 60.6477 81.16C62.2533 79.9881 63.2584 78.6635 62.8973 78.1909"
			stroke="#4CC9E9" stroke-width="1.73333" stroke-linecap="round" stroke-linejoin="round" />
		<path
			d="M59.528 85.4462C59.889 85.9187 61.4524 85.387 63.0579 84.2151C64.6634 83.0433 65.6685 81.7187 65.3075 81.2461"
			fill="#FDF4EB" />
		<path
			d="M59.528 85.4462C59.889 85.9187 61.4524 85.387 63.0579 84.2151C64.6634 83.0433 65.6685 81.7187 65.3075 81.2461"
			stroke="#4CC9E9" stroke-width="1.73333" stroke-linecap="round" stroke-linejoin="round" />
		<path
			d="M61.9244 88.642C62.2855 89.1145 63.8488 88.5828 65.4544 87.4109C67.0599 86.2391 68.065 84.9145 67.704 84.4419"
			fill="#FDF4EB" />
		<path
			d="M61.9244 88.642C62.2855 89.1145 63.8488 88.5828 65.4544 87.4109C67.0599 86.2391 68.065 84.9145 67.704 84.4419"
			stroke="#4CC9E9" stroke-width="1.73333" stroke-linecap="round" stroke-linejoin="round" />
		<path
			d="M64.3229 91.8373C64.6839 92.3099 66.2473 91.7781 67.8528 90.6063C69.4583 89.4344 70.4634 88.1098 70.1024 87.6372"
			fill="#FDF4EB" />
		<path
			d="M64.3229 91.8373C64.6839 92.3099 66.2473 91.7781 67.8528 90.6063C69.4583 89.4344 70.4634 88.1098 70.1024 87.6372"
			stroke="#4CC9E9" stroke-width="1.73333" stroke-linecap="round" stroke-linejoin="round" />
	</g>
	<g clip-path="url(#clip3_459_15712)">
		<path d="M76.5545 171.308C80.4206 187.155 72.2458 207.11 59.8555 217.286" stroke="#4CC9E9" stroke-width="1.73333"
			stroke-linecap="round" stroke-linejoin="round" stroke-dasharray="0.12 2.38" />
		<path d="M75.3208 168.554C79.8391 185.428 70.523 208.907 56.5723 219.106" stroke="#4CC9E9" stroke-width="1.73333"
			stroke-linecap="round" stroke-linejoin="round" stroke-dasharray="0.12 2.38" />
		<path d="M73.7128 165.497C79.2791 182.908 68.7753 209.094 54.5684 219.97" stroke="#4CC9E9" stroke-width="1.73333"
			stroke-linecap="round" stroke-linejoin="round" stroke-dasharray="0.12 2.38" />
		<path d="M72.4551 163.606C77.3693 181.764 66.7956 208.604 52.7051 220.507" stroke="#4CC9E9" stroke-width="1.73333"
			stroke-linecap="round" stroke-linejoin="round" stroke-dasharray="0.12 2.38" />
		<path d="M71.0817 161.996C74.8547 180.901 64.5371 207.88 50.6562 220.903" stroke="#4CC9E9" stroke-width="1.73333"
			stroke-linecap="round" stroke-linejoin="round" stroke-dasharray="0.12 2.38" />
		<path d="M69.4746 160.386C71.8735 174.809 63.3493 207.67 48.4902 221.16" stroke="#4CC9E9" stroke-width="1.73333"
			stroke-linecap="round" stroke-linejoin="round" stroke-dasharray="0.12 2.38" />
		<path d="M67.6342 158.822C68.822 179.313 59.5526 205.733 46.2539 221.276" stroke="#4CC9E9" stroke-width="1.73333"
			stroke-linecap="round" stroke-linejoin="round" stroke-dasharray="0.12 2.38" />
		<path d="M65.5624 157.258C65.5158 178.38 56.6656 204.403 43.9492 221.207" stroke="#4CC9E9" stroke-width="1.73333"
			stroke-linecap="round" stroke-linejoin="round" stroke-dasharray="0.12 2.38" />
		<path d="M63.3482 155.788C61.8576 177.54 53.5664 202.863 41.5254 221.02" stroke="#4CC9E9" stroke-width="1.73333"
			stroke-linecap="round" stroke-linejoin="round" stroke-dasharray="0.12 2.38" />
		<path
			d="M60.9976 154.388C58.5754 172.825 52.3104 192.033 44.811 208.977C43.0176 213.015 41.2243 216.889 39.0117 220.717"
			stroke="#4CC9E9" stroke-width="1.73333" stroke-linecap="round" stroke-linejoin="round"
			stroke-dasharray="0.12 2.38" />
		<path
			d="M58.5302 153.081C54.9901 171.495 48.8648 190.119 41.9476 207.53C40.2242 211.848 38.5007 216.095 36.4512 220.273"
			stroke="#4CC9E9" stroke-width="1.73333" stroke-linecap="round" stroke-linejoin="round"
			stroke-dasharray="0.12 2.38" />
		<path
			d="M55.9207 151.844C51.1462 170.702 44.9277 189.489 38.3366 207.764C36.8926 211.755 35.4487 215.722 33.8184 219.666"
			stroke="#4CC9E9" stroke-width="1.73333" stroke-linecap="round" stroke-linejoin="round"
			stroke-dasharray="0.12 2.38" />
		<path
			d="M53.2181 150.7C47.3956 169.255 41.2237 187.716 35.308 206.247C33.9572 210.494 32.6064 214.742 31.209 218.966"
			stroke="#4CC9E9" stroke-width="1.73333" stroke-linecap="round" stroke-linejoin="round"
			stroke-dasharray="0.12 2.38" />
		<path
			d="M50.4711 149.673C43.5772 168.064 37.2656 186.689 31.9788 205.593C30.8143 209.771 29.6963 213.948 28.625 218.126"
			stroke="#4CC9E9" stroke-width="1.73333" stroke-linecap="round" stroke-linejoin="round"
			stroke-dasharray="0.12 2.38" />
		<path
			d="M47.6757 148.786C39.8502 166.547 33.4455 185.358 28.8573 204.216C27.8093 208.534 26.8311 212.828 26.0625 217.216"
			stroke="#4CC9E9" stroke-width="1.73333" stroke-linecap="round" stroke-linejoin="round"
			stroke-dasharray="0.12 2.38" />
		<path
			d="M44.8789 148.04C36.0986 165.1 29.4609 184.728 25.6413 203.493C24.7796 207.74 24.0343 211.895 23.5918 216.189"
			stroke="#4CC9E9" stroke-width="1.73333" stroke-linecap="round" stroke-linejoin="round"
			stroke-dasharray="0.12 2.38" />
		<path
			d="M42.0864 147.433C32.5607 163.49 25.6203 184.075 22.5693 202.466C21.8706 206.69 21.3349 210.774 21.1719 215.045"
			stroke="#4CC9E9" stroke-width="1.73333" stroke-linecap="round" stroke-linejoin="round"
			stroke-dasharray="0.12 2.38" />
		<path
			d="M39.3843 146.989C29.2997 161.856 22.0564 183.258 19.7041 201.159C19.1452 205.453 18.7725 209.514 18.9123 213.832"
			stroke="#4CC9E9" stroke-width="1.73333" stroke-linecap="round" stroke-linejoin="round"
			stroke-dasharray="0.12 2.38" />
		<path
			d="M36.753 146.732C26.0628 160.572 18.7497 182.184 16.9797 199.828C16.5372 204.193 16.3508 208.207 16.7701 212.571"
			stroke="#4CC9E9" stroke-width="1.73333" stroke-linecap="round" stroke-linejoin="round"
			stroke-dasharray="0.12 2.38" />
		<path
			d="M34.2625 146.639C22.6873 159.616 15.3043 181.811 14.3261 199.385C14.0932 203.516 14.1398 207.157 14.8152 211.194"
			stroke="#4CC9E9" stroke-width="1.73333" stroke-linecap="round" stroke-linejoin="round"
			stroke-dasharray="0.12 2.38" />
		<path
			d="M31.9085 146.756C19.6114 158.752 11.9023 181.974 11.9023 199.175C11.9023 202.979 12.2051 206.153 13.0203 209.817"
			stroke="#4CC9E9" stroke-width="1.73333" stroke-linecap="round" stroke-linejoin="round"
			stroke-dasharray="0.12 2.38" />
		<path
			d="M29.7405 147.083C16.1624 158.472 7.28888 185.265 9.96724 202.956C10.27 204.893 10.8057 206.527 11.3646 208.37"
			stroke="#4CC9E9" stroke-width="1.73333" stroke-linecap="round" stroke-linejoin="round"
			stroke-dasharray="0.12 2.38" />
		<path d="M27.7878 147.573C12.2533 158.705 3.33318 188.836 9.94757 206.877" stroke="#4CC9E9" stroke-width="1.73333"
			stroke-linecap="round" stroke-linejoin="round" stroke-dasharray="0.12 2.38" />
		<path d="M25.2235 148.6C10.0849 159.359 1.1415 187.996 8.73407 205.36" stroke="#4CC9E9" stroke-width="1.73333"
			stroke-linecap="round" stroke-linejoin="round" stroke-dasharray="0.12 2.38" />
		<path d="M22.2189 150.117C8.05855 160.829 0.79204 185.218 6.68443 202.022" stroke="#4CC9E9" stroke-width="1.73333"
			stroke-linecap="round" stroke-linejoin="round" stroke-dasharray="0.12 2.38" />
		<path d="M18.5862 152.451C4.63541 163.607 0.862409 183.631 5.98623 199.292" stroke="#4CC9E9" stroke-width="1.73333"
			stroke-linecap="round" stroke-linejoin="round" stroke-dasharray="0.12 2.38" />
		<g clip-path="url(#clip4_459_15712)">
			<path
				d="M66.7305 140.337C66.4092 140.837 67.4211 142.138 69.0436 143.265C70.6661 144.391 72.2326 144.898 72.5539 144.398"
				fill="#FDF4EB" />
			<path
				d="M66.7305 140.337C66.4092 140.837 67.4211 142.138 69.0436 143.265C70.6661 144.391 72.2326 144.898 72.5539 144.398"
				stroke="#4CC9E9" stroke-width="1.73333" stroke-linecap="round" stroke-linejoin="round" />
			<path
				d="M64.543 143.676C64.2217 144.176 65.2336 145.477 66.8561 146.603C68.4786 147.73 70.0451 148.237 70.3664 147.737"
				fill="#FDF4EB" />
			<path
				d="M64.543 143.676C64.2217 144.176 65.2336 145.477 66.8561 146.603C68.4786 147.73 70.0451 148.237 70.3664 147.737"
				stroke="#4CC9E9" stroke-width="1.73333" stroke-linecap="round" stroke-linejoin="round" />
			<path
				d="M62.3574 147.015C62.0362 147.515 63.0481 148.816 64.6705 149.942C66.293 151.068 67.8596 151.575 68.1809 151.075"
				fill="#FDF4EB" />
			<path
				d="M62.3574 147.015C62.0362 147.515 63.0481 148.816 64.6705 149.942C66.293 151.068 67.8596 151.575 68.1809 151.075"
				stroke="#4CC9E9" stroke-width="1.73333" stroke-linecap="round" stroke-linejoin="round" />
			<path
				d="M60.168 150.354C59.8467 150.854 60.8586 152.154 62.4811 153.281C64.1036 154.407 65.6701 154.914 65.9914 154.414"
				fill="#FDF4EB" />
			<path
				d="M60.168 150.354C59.8467 150.854 60.8586 152.154 62.4811 153.281C64.1036 154.407 65.6701 154.914 65.9914 154.414"
				stroke="#4CC9E9" stroke-width="1.73333" stroke-linecap="round" stroke-linejoin="round" />
		</g>
		<path
			d="M26.8096 185.068C27.061 185.068 27.3002 185.177 27.4648 185.367C27.6295 185.557 27.7039 185.809 27.668 186.058C27.4636 187.471 27.4738 189.545 28.0918 191.22C28.3971 192.048 28.8344 192.735 29.4238 193.212C30.0009 193.68 30.777 193.993 31.8555 193.993C32.9346 193.993 33.6973 193.681 34.251 193.22C34.8168 192.749 35.2262 192.071 35.4951 191.25C36.0402 189.587 35.9432 187.527 35.6016 186.142C35.5378 185.883 35.5965 185.61 35.7607 185.4C35.925 185.19 36.177 185.068 36.4434 185.068H41.1826C41.4379 185.068 41.6801 185.18 41.8447 185.375C42.0094 185.571 42.0799 185.828 42.0371 186.08C41.7965 187.494 41.7543 189.58 42.3447 191.264C42.6361 192.095 43.0658 192.785 43.6572 193.265C44.2369 193.736 45.0311 194.054 46.1523 194.054C47.2738 194.054 48.0409 193.736 48.583 193.277C49.1374 192.807 49.5277 192.129 49.7754 191.302C50.2778 189.624 50.1303 187.541 49.8164 186.122C49.7597 185.865 49.8228 185.596 49.9873 185.391C50.1518 185.186 50.4005 185.068 50.6631 185.068H57.2373C57.6951 185.068 58.3533 185.104 58.8203 185.592C59.2696 186.062 59.3281 186.731 59.3281 187.305V199.566C59.3281 200.045 58.9396 200.433 58.4609 200.433H20.541C20.0624 200.433 19.6748 200.045 19.6748 199.566V187.305C19.6748 186.614 19.7677 185.837 20.4121 185.392C20.7071 185.189 21.0298 185.122 21.2842 185.094C21.5354 185.066 21.8183 185.068 22.0703 185.068H26.8096Z"
			fill="#FDF4EB" stroke="#372E2D" stroke-width="1.73333" stroke-linejoin="round" />
		<path
			d="M33.835 171.003C34.083 170.649 34.5543 170.532 34.9395 170.729C35.3246 170.926 35.5054 171.377 35.3633 171.786C34.2144 175.089 34.4389 178.235 34.9863 181.385C35.522 184.468 36.417 187.724 36.417 190.866C36.417 194.303 34.1266 196.511 31.5703 196.421C30.3079 196.377 29.082 195.759 28.1924 194.578C27.3095 193.405 26.7842 191.718 26.7842 189.538C26.7843 186.086 27.9878 182.267 29.4424 178.946C30.9031 175.61 32.6551 172.689 33.835 171.003Z"
			fill="#FDF4EB" stroke="#372E2D" stroke-width="1.73333" stroke-linecap="round" stroke-linejoin="round" />
		<path
			d="M48.0537 171.003C48.3018 170.649 48.7731 170.532 49.1582 170.729C49.5433 170.926 49.7241 171.377 49.582 171.786C48.4332 175.089 48.6577 178.235 49.2051 181.385C49.7407 184.468 50.6357 187.724 50.6357 190.866C50.6357 194.303 48.3453 196.511 45.7891 196.421C44.5267 196.377 43.3007 195.759 42.4111 194.578C41.5283 193.405 41.0029 191.718 41.0029 189.538C41.003 186.086 42.2066 182.267 43.6611 178.946C45.1218 175.61 46.8739 172.689 48.0537 171.003Z"
			fill="#FDF4EB" stroke="#372E2D" stroke-width="1.73333" stroke-linecap="round" stroke-linejoin="round" />
		<path
			d="M22.4404 169.416C22.8021 168.155 24.5993 168.155 24.9609 169.416C25.249 170.419 26.0402 171.205 27.0498 171.483C28.2898 171.824 28.2898 173.583 27.0498 173.923C26.0401 174.201 25.2489 174.987 24.9609 175.991C24.5993 177.251 22.8021 177.251 22.4404 175.991C22.1525 174.987 21.3612 174.201 20.3516 173.923C19.1115 173.583 19.1115 171.824 20.3516 171.483C21.3612 171.205 22.1524 170.419 22.4404 169.416Z"
			fill="#FDF4EB" stroke="#372E2D" stroke-width="1.73333" />
		<path
			d="M38.2393 158.991C38.6009 157.73 40.3981 157.73 40.7598 158.991C41.0478 159.995 41.839 160.781 42.8486 161.059C44.0886 161.399 44.0887 163.158 42.8486 163.499C41.8389 163.776 41.0477 164.563 40.7598 165.566C40.3981 166.827 38.601 166.827 38.2393 165.566C37.9513 164.563 37.16 163.777 36.1504 163.499C34.9103 163.158 34.9103 161.399 36.1504 161.059C37.16 160.781 37.9513 159.995 38.2393 158.991Z"
			fill="#FDF4EB" stroke="#372E2D" stroke-width="1.73333" />
		<path
			d="M54.8262 171.3C55.1806 170.018 56.9981 170.018 57.3525 171.3C57.6358 172.324 58.4342 173.125 59.4541 173.416C60.7503 173.785 60.7503 175.631 59.4541 176C58.4341 176.291 57.6358 177.092 57.3525 178.116C56.998 179.398 55.1807 179.398 54.8262 178.116C54.5429 177.092 53.7445 176.291 52.7246 176C51.4284 175.631 51.4284 173.785 52.7246 173.416C53.7445 173.125 54.5429 172.324 54.8262 171.3Z"
			fill="#FDF4EB" stroke="#372E2D" stroke-width="1.73333" />
	</g>
	<g clip-path="url(#clip5_459_15712)">
		<path d="M76.5545 309.904C80.4206 325.565 72.2458 345.285 59.8555 355.341" stroke="#4CC9E9" stroke-width="1.73333"
			stroke-linecap="round" stroke-linejoin="round" stroke-dasharray="0.12 2.38" />
		<path d="M75.3208 307.183C79.8391 323.858 70.523 347.061 56.5723 357.14" stroke="#4CC9E9" stroke-width="1.73333"
			stroke-linecap="round" stroke-linejoin="round" stroke-dasharray="0.12 2.38" />
		<path d="M73.7128 304.161C79.2791 321.367 68.7753 347.245 54.5684 357.993" stroke="#4CC9E9" stroke-width="1.73333"
			stroke-linecap="round" stroke-linejoin="round" stroke-dasharray="0.12 2.38" />
		<path d="M72.4551 302.293C77.3693 320.237 66.7956 346.761 52.7051 358.524" stroke="#4CC9E9" stroke-width="1.73333"
			stroke-linecap="round" stroke-linejoin="round" stroke-dasharray="0.12 2.38" />
		<path d="M71.0817 300.702C74.8547 319.384 64.5371 346.046 50.6562 358.916" stroke="#4CC9E9" stroke-width="1.73333"
			stroke-linecap="round" stroke-linejoin="round" stroke-dasharray="0.12 2.38" />
		<path d="M69.4746 299.11C71.8735 313.364 63.3493 345.839 48.4902 359.17" stroke="#4CC9E9" stroke-width="1.73333"
			stroke-linecap="round" stroke-linejoin="round" stroke-dasharray="0.12 2.38" />
		<path d="M67.6342 297.565C68.822 317.815 59.5526 343.924 46.2539 359.285" stroke="#4CC9E9" stroke-width="1.73333"
			stroke-linecap="round" stroke-linejoin="round" stroke-dasharray="0.12 2.38" />
		<path d="M65.5624 296.02C65.5158 316.893 56.6656 342.609 43.9492 359.216" stroke="#4CC9E9" stroke-width="1.73333"
			stroke-linecap="round" stroke-linejoin="round" stroke-dasharray="0.12 2.38" />
		<path d="M63.3482 294.566C61.8576 316.062 53.5664 341.087 41.5254 359.031" stroke="#4CC9E9" stroke-width="1.73333"
			stroke-linecap="round" stroke-linejoin="round" stroke-dasharray="0.12 2.38" />
		<path
			d="M60.9976 293.183C58.5754 311.403 52.3104 330.385 44.811 347.13C43.0176 351.12 41.2243 354.949 39.0117 358.731"
			stroke="#4CC9E9" stroke-width="1.73333" stroke-linecap="round" stroke-linejoin="round"
			stroke-dasharray="0.12 2.38" />
		<path
			d="M58.5302 291.891C54.9901 310.089 48.8648 328.494 41.9476 345.7C40.2242 349.967 38.5007 354.165 36.4512 358.293"
			stroke="#4CC9E9" stroke-width="1.73333" stroke-linecap="round" stroke-linejoin="round"
			stroke-dasharray="0.12 2.38" />
		<path
			d="M55.9207 290.668C51.1462 309.304 44.9277 327.871 38.3366 345.93C36.8926 349.874 35.4487 353.795 33.8184 357.693"
			stroke="#4CC9E9" stroke-width="1.73333" stroke-linecap="round" stroke-linejoin="round"
			stroke-dasharray="0.12 2.38" />
		<path
			d="M53.2181 289.539C47.3956 307.875 41.2237 326.118 35.308 344.431C33.9572 348.629 32.6064 352.827 31.209 357.002"
			stroke="#4CC9E9" stroke-width="1.73333" stroke-linecap="round" stroke-linejoin="round"
			stroke-dasharray="0.12 2.38" />
		<path
			d="M50.4711 288.523C43.5772 306.698 37.2656 325.103 31.9788 343.785C30.8143 347.914 29.6963 352.042 28.625 356.171"
			stroke="#4CC9E9" stroke-width="1.73333" stroke-linecap="round" stroke-linejoin="round"
			stroke-dasharray="0.12 2.38" />
		<path
			d="M47.6757 287.647C39.8502 305.199 33.4455 323.789 28.8573 342.425C27.8093 346.692 26.8311 350.936 26.0625 355.272"
			stroke="#4CC9E9" stroke-width="1.73333" stroke-linecap="round" stroke-linejoin="round"
			stroke-dasharray="0.12 2.38" />
		<path
			d="M44.8789 286.909C36.0986 303.769 29.4609 323.166 25.6413 341.71C24.7796 345.908 24.0343 350.013 23.5918 354.257"
			stroke="#4CC9E9" stroke-width="1.73333" stroke-linecap="round" stroke-linejoin="round"
			stroke-dasharray="0.12 2.38" />
		<path
			d="M42.0864 286.31C32.5607 302.178 25.6203 322.52 22.5693 340.695C21.8706 344.87 21.3349 348.906 21.1719 353.127"
			stroke="#4CC9E9" stroke-width="1.73333" stroke-linecap="round" stroke-linejoin="round"
			stroke-dasharray="0.12 2.38" />
		<path
			d="M39.3843 285.871C29.2997 300.563 22.0564 321.713 19.7041 339.403C19.1452 343.647 18.7725 347.66 18.9123 351.927"
			stroke="#4CC9E9" stroke-width="1.73333" stroke-linecap="round" stroke-linejoin="round"
			stroke-dasharray="0.12 2.38" />
		<path
			d="M36.753 285.618C26.0628 299.295 18.7497 320.652 16.9797 338.089C16.5372 342.402 16.3508 346.369 16.7701 350.682"
			stroke="#4CC9E9" stroke-width="1.73333" stroke-linecap="round" stroke-linejoin="round"
			stroke-dasharray="0.12 2.38" />
		<path
			d="M34.2625 285.525C22.6873 298.349 15.3043 320.283 14.3261 337.651C14.0932 341.733 14.1398 345.331 14.8152 349.321"
			stroke="#4CC9E9" stroke-width="1.73333" stroke-linecap="round" stroke-linejoin="round"
			stroke-dasharray="0.12 2.38" />
		<path
			d="M31.9085 285.641C19.6114 297.496 11.9023 320.445 11.9023 337.443C11.9023 341.202 12.2051 344.339 13.0203 347.96"
			stroke="#4CC9E9" stroke-width="1.73333" stroke-linecap="round" stroke-linejoin="round"
			stroke-dasharray="0.12 2.38" />
		<path
			d="M29.7405 285.963C16.1624 297.219 7.28888 323.696 9.96724 341.179C10.27 343.094 10.8057 344.708 11.3646 346.53"
			stroke="#4CC9E9" stroke-width="1.73333" stroke-linecap="round" stroke-linejoin="round"
			stroke-dasharray="0.12 2.38" />
		<path d="M27.7878 286.448C12.2533 297.449 3.33318 327.225 9.94757 345.054" stroke="#4CC9E9" stroke-width="1.73333"
			stroke-linecap="round" stroke-linejoin="round" stroke-dasharray="0.12 2.38" />
		<path d="M25.2235 287.463C10.0849 298.096 1.1415 326.395 8.73407 343.555" stroke="#4CC9E9" stroke-width="1.73333"
			stroke-linecap="round" stroke-linejoin="round" stroke-dasharray="0.12 2.38" />
		<path d="M22.2189 288.962C8.05855 299.548 0.79204 323.651 6.68443 340.257" stroke="#4CC9E9" stroke-width="1.73333"
			stroke-linecap="round" stroke-linejoin="round" stroke-dasharray="0.12 2.38" />
		<path d="M18.5862 291.269C4.63541 302.293 0.862409 322.082 5.98623 337.559" stroke="#4CC9E9" stroke-width="1.73333"
			stroke-linecap="round" stroke-linejoin="round" stroke-dasharray="0.12 2.38" />
		<g clip-path="url(#clip6_459_15712)">
			<path
				d="M66.7305 280.075C66.4092 280.574 67.4211 281.872 69.0436 282.996C70.6661 284.119 72.2326 284.625 72.5539 284.126"
				fill="#FDF4EB" />
			<path
				d="M66.7305 280.075C66.4092 280.574 67.4211 281.872 69.0436 282.996C70.6661 284.119 72.2326 284.625 72.5539 284.126"
				stroke="#4CC9E9" stroke-width="1.73333" stroke-linecap="round" stroke-linejoin="round" />
			<path
				d="M64.543 283.406C64.2217 283.905 65.2336 285.203 66.8561 286.327C68.4786 287.45 70.0451 287.956 70.3664 287.457"
				fill="#FDF4EB" />
			<path
				d="M64.543 283.406C64.2217 283.905 65.2336 285.203 66.8561 286.327C68.4786 287.45 70.0451 287.956 70.3664 287.457"
				stroke="#4CC9E9" stroke-width="1.73333" stroke-linecap="round" stroke-linejoin="round" />
			<path
				d="M62.3574 286.737C62.0362 287.236 63.0481 288.534 64.6705 289.657C66.293 290.781 67.8596 291.287 68.1809 290.788"
				fill="#FDF4EB" />
			<path
				d="M62.3574 286.737C62.0362 287.236 63.0481 288.534 64.6705 289.657C66.293 290.781 67.8596 291.287 68.1809 290.788"
				stroke="#4CC9E9" stroke-width="1.73333" stroke-linecap="round" stroke-linejoin="round" />
			<path
				d="M60.168 290.068C59.8467 290.567 60.8586 291.865 62.4811 292.988C64.1036 294.112 65.6701 294.618 65.9914 294.119"
				fill="#FDF4EB" />
			<path
				d="M60.168 290.068C59.8467 290.567 60.8586 291.865 62.4811 292.988C64.1036 294.112 65.6701 294.618 65.9914 294.119"
				stroke="#4CC9E9" stroke-width="1.73333" stroke-linecap="round" stroke-linejoin="round" />
		</g>
		<g clip-path="url(#clip7_459_15712)">
			<path
				d="M43.7939 302.347C45.7413 302.707 47.6031 304.171 48.0586 306.309L48.0918 306.489C48.1006 306.543 48.1078 306.597 48.1143 306.648C49.8716 306.689 51.516 307.543 52.6904 308.778C54.0554 310.214 54.8815 312.264 54.4785 314.371C54.2979 315.314 53.7481 316.238 53.0381 316.924C52.3312 317.608 51.3656 318.15 50.2998 318.15H49.2979V318.572H50.5107C50.4948 318.572 50.5295 318.572 50.6396 318.551C50.7351 318.533 50.8515 318.506 50.9766 318.474C51.2296 318.41 51.4784 318.335 51.5996 318.293C52.7085 317.909 53.5947 317.129 54.3057 316.081L54.9385 315.146L55.6777 315.999C58.4346 319.179 58.4319 324.011 55.6777 327.191L54.9395 328.043L54.3057 327.11C53.6387 326.126 52.8182 325.378 51.8047 324.972L51.5996 324.896C51.4782 324.854 51.2294 324.779 50.9766 324.715C50.8517 324.684 50.735 324.657 50.6396 324.639C50.5299 324.618 50.4951 324.618 50.5107 324.618H49.2979V325.04H50.2998C51.3679 325.04 52.3329 325.581 53.04 326.265C53.75 326.952 54.2977 327.875 54.4785 328.819C54.8821 330.927 54.0558 332.975 52.6904 334.41C51.5156 335.644 49.8714 336.497 48.1143 336.54C48.1009 336.646 48.0837 336.763 48.0586 336.88C47.6042 339.012 45.7353 340.481 43.7959 340.842L43.7168 340.857H42.5957L42.4756 340.822C41.6443 340.577 40.8115 340.077 40.3682 339.107L40.2969 338.925C40.2707 338.854 40.2442 338.779 40.2236 338.719C40.1998 338.65 40.1755 338.576 40.1562 338.514C40.1469 338.484 40.1359 338.449 40.127 338.415C40.1226 338.398 40.1161 338.373 40.1104 338.345C40.1084 338.336 40.0918 338.256 40.0918 338.159V329.421L41.3311 330.011C41.6237 330.151 41.9101 330.256 42.207 330.336V329.902C41.5368 329.699 40.9462 329.241 40.5967 328.705L40.5957 328.704C40.4979 328.553 40.3779 328.278 40.3027 328.092C40.2587 327.984 40.2146 327.866 40.1797 327.761C40.1625 327.709 40.1447 327.65 40.1299 327.591C40.12 327.552 40.0918 327.439 40.0918 327.309V317.451L41.3525 318.095C41.6387 318.241 41.9238 318.358 42.207 318.44V317.995C41.0702 317.616 40.2027 316.605 40.0928 315.315C39.9507 313.642 40.0045 311.877 40.0654 310.164C40.127 308.43 40.1956 306.751 40.1016 305.167L40.0957 305.076L40.1094 304.986C40.3139 303.631 41.2591 302.689 42.5029 302.365L42.5371 302.356L42.4756 302.103L43.7939 302.347Z"
				fill="#FDF4EB" stroke="#372E2D" stroke-width="1.73333" />
			<path
				d="M39.7021 318.596L39.6924 318.661C39.42 320.481 37.9866 321.42 36.5771 321.364C35.3884 321.317 34.2567 320.562 33.8789 319.227H33.4521C33.9508 321.32 36.4733 322.514 38.3945 321.355L39.709 320.562V338.156C39.709 338.396 39.6306 338.622 39.5811 338.75C39.5209 338.904 39.4437 339.062 39.3662 339.206C39.2587 339.404 39.1176 339.632 38.9766 339.815L38.8369 339.98C38.3467 340.492 37.7046 340.674 37.3936 340.795L37.2051 340.87L37.0029 340.851C36.9297 340.845 36.8388 340.849 36.6611 340.858C36.5149 340.865 36.283 340.878 36.0527 340.848V340.847C35.0323 340.717 34.0654 340.207 33.3115 339.516C32.5571 338.825 31.9592 337.901 31.7412 336.878C31.7151 336.756 31.6962 336.635 31.6826 336.525C27.7901 336.4 24.6912 332.7 25.2959 328.72L25.4473 327.725L26.4092 328.022C28.286 328.602 30.3017 328.231 31.9424 327.132L31.6533 326.806C28.8142 328.765 24.8467 327.939 22.9873 324.916C21.8725 323.103 21.8272 320.981 22.418 319.104C22.9443 317.432 23.994 315.889 25.3555 314.833C24.8978 312.382 25.7186 309.903 27.6299 308.254C28.7259 307.309 30.21 306.699 31.6777 306.664C32.9389 306.633 34.2179 307.033 35.1826 308.033L35.5273 307.794C34.7961 307.026 33.8593 306.487 32.877 306.356L31.7295 306.204L32.1992 305.145C32.5344 304.39 33.1379 303.741 33.8037 303.265C34.4703 302.789 35.2693 302.435 36.0596 302.339L36.1113 302.333H37.1914L37.2988 302.361C38.5427 302.685 39.4878 303.627 39.6924 304.982L39.7021 305.046V318.596Z"
				fill="#FDF4EB" stroke="#372E2D" stroke-width="1.73333" />
		</g>
	</g>
	<g clip-path="url(#clip8_459_15712)">
		<path d="M128.554 241.308C132.421 257.155 124.246 277.109 111.855 287.285" stroke="#4CC9E9" stroke-width="1.73333"
			stroke-linecap="round" stroke-linejoin="round" stroke-dasharray="0.12 2.38" />
		<path d="M127.317 238.554C131.835 255.428 122.519 278.907 108.568 289.106" stroke="#4CC9E9" stroke-width="1.73333"
			stroke-linecap="round" stroke-linejoin="round" stroke-dasharray="0.12 2.38" />
		<path d="M125.711 235.497C131.277 252.907 120.773 279.094 106.566 289.969" stroke="#4CC9E9" stroke-width="1.73333"
			stroke-linecap="round" stroke-linejoin="round" stroke-dasharray="0.12 2.38" />
		<path d="M124.453 233.606C129.367 251.764 118.794 278.603 104.703 290.506" stroke="#4CC9E9" stroke-width="1.73333"
			stroke-linecap="round" stroke-linejoin="round" stroke-dasharray="0.12 2.38" />
		<path d="M123.08 231.996C126.853 250.9 116.535 277.88 102.654 290.903" stroke="#4CC9E9" stroke-width="1.73333"
			stroke-linecap="round" stroke-linejoin="round" stroke-dasharray="0.12 2.38" />
		<path d="M121.475 230.385C123.873 244.809 115.349 277.67 100.49 291.16" stroke="#4CC9E9" stroke-width="1.73333"
			stroke-linecap="round" stroke-linejoin="round" stroke-dasharray="0.12 2.38" />
		<path d="M119.632 228.822C120.82 249.313 111.551 275.733 98.252 291.276" stroke="#4CC9E9" stroke-width="1.73333"
			stroke-linecap="round" stroke-linejoin="round" stroke-dasharray="0.12 2.38" />
		<path d="M117.56 227.258C117.514 248.379 108.664 274.402 95.9473 291.206" stroke="#4CC9E9" stroke-width="1.73333"
			stroke-linecap="round" stroke-linejoin="round" stroke-dasharray="0.12 2.38" />
		<path d="M115.348 225.788C113.858 247.539 105.566 272.862 93.5254 291.02" stroke="#4CC9E9" stroke-width="1.73333"
			stroke-linecap="round" stroke-linejoin="round" stroke-dasharray="0.12 2.38" />
		<path
			d="M112.996 224.387C110.573 242.825 104.308 262.033 96.809 278.977C95.0157 283.014 93.2223 286.889 91.0098 290.716"
			stroke="#4CC9E9" stroke-width="1.73333" stroke-linecap="round" stroke-linejoin="round"
			stroke-dasharray="0.12 2.38" />
		<path
			d="M110.526 223.08C106.986 241.494 100.861 260.119 93.9437 277.53C92.2203 281.847 90.4968 286.095 88.4473 290.273"
			stroke="#4CC9E9" stroke-width="1.73333" stroke-linecap="round" stroke-linejoin="round"
			stroke-dasharray="0.12 2.38" />
		<path
			d="M107.919 221.843C103.144 240.701 96.9258 259.489 90.3347 277.763C88.8907 281.754 87.4467 285.722 85.8164 289.666"
			stroke="#4CC9E9" stroke-width="1.73333" stroke-linecap="round" stroke-linejoin="round"
			stroke-dasharray="0.12 2.38" />
		<path
			d="M105.216 220.7C99.3936 239.254 93.2218 257.715 87.3061 276.246C85.9553 280.494 84.6044 284.741 83.207 288.966"
			stroke="#4CC9E9" stroke-width="1.73333" stroke-linecap="round" stroke-linejoin="round"
			stroke-dasharray="0.12 2.38" />
		<path
			d="M102.467 219.673C95.5733 238.064 89.2617 256.688 83.9749 275.593C82.8104 279.77 81.6924 283.948 80.6211 288.126"
			stroke="#4CC9E9" stroke-width="1.73333" stroke-linecap="round" stroke-linejoin="round"
			stroke-dasharray="0.12 2.38" />
		<path
			d="M99.6738 218.786C91.8483 236.546 85.4435 255.358 80.8554 274.215C79.8073 278.533 78.8291 282.827 78.0605 287.215"
			stroke="#4CC9E9" stroke-width="1.73333" stroke-linecap="round" stroke-linejoin="round"
			stroke-dasharray="0.12 2.38" />
		<path
			d="M96.8789 218.039C88.0986 235.1 81.4609 254.728 77.6413 273.492C76.7796 277.74 76.0343 281.894 75.5918 286.188"
			stroke="#4CC9E9" stroke-width="1.73333" stroke-linecap="round" stroke-linejoin="round"
			stroke-dasharray="0.12 2.38" />
		<path
			d="M94.0825 217.432C84.5568 233.489 77.6164 254.074 74.5654 272.465C73.8667 276.689 73.331 280.774 73.168 285.045"
			stroke="#4CC9E9" stroke-width="1.73333" stroke-linecap="round" stroke-linejoin="round"
			stroke-dasharray="0.12 2.38" />
		<path
			d="M91.3823 216.989C81.2977 231.856 74.0545 253.257 71.7022 271.158C71.1432 275.453 70.7706 279.513 70.9103 283.831"
			stroke="#4CC9E9" stroke-width="1.73333" stroke-linecap="round" stroke-linejoin="round"
			stroke-dasharray="0.12 2.38" />
		<path
			d="M88.7491 216.732C78.0589 230.572 70.7458 252.184 68.9758 269.828C68.5333 274.192 68.3469 278.206 68.7662 282.571"
			stroke="#4CC9E9" stroke-width="1.73333" stroke-linecap="round" stroke-linejoin="round"
			stroke-dasharray="0.12 2.38" />
		<path
			d="M86.2585 216.639C74.6834 229.615 67.3004 251.81 66.3222 269.384C66.0893 273.515 66.1359 277.156 66.8113 281.194"
			stroke="#4CC9E9" stroke-width="1.73333" stroke-linecap="round" stroke-linejoin="round"
			stroke-dasharray="0.12 2.38" />
		<path
			d="M83.9066 216.755C71.6094 228.752 63.9004 251.974 63.9004 269.174C63.9004 272.979 64.2032 276.153 65.0183 279.817"
			stroke="#4CC9E9" stroke-width="1.73333" stroke-linecap="round" stroke-linejoin="round"
			stroke-dasharray="0.12 2.38" />
		<path
			d="M81.7405 217.082C68.1624 228.471 59.2889 255.264 61.9672 272.955C62.27 274.892 62.8057 276.526 63.3646 278.37"
			stroke="#4CC9E9" stroke-width="1.73333" stroke-linecap="round" stroke-linejoin="round"
			stroke-dasharray="0.12 2.38" />
		<path d="M79.7839 217.572C64.2494 228.705 55.3293 258.835 61.9437 276.876" stroke="#4CC9E9" stroke-width="1.73333"
			stroke-linecap="round" stroke-linejoin="round" stroke-dasharray="0.12 2.38" />
		<path d="M77.2215 218.599C62.0829 229.358 53.1395 257.995 60.7321 275.359" stroke="#4CC9E9" stroke-width="1.73333"
			stroke-linecap="round" stroke-linejoin="round" stroke-dasharray="0.12 2.38" />
		<path d="M74.217 220.116C60.0566 230.829 52.7901 255.218 58.6825 272.022" stroke="#4CC9E9" stroke-width="1.73333"
			stroke-linecap="round" stroke-linejoin="round" stroke-dasharray="0.12 2.38" />
		<path d="M70.5842 222.45C56.6335 233.606 52.8605 253.631 57.9843 269.291" stroke="#4CC9E9" stroke-width="1.73333"
			stroke-linecap="round" stroke-linejoin="round" stroke-dasharray="0.12 2.38" />
		<path
			d="M95.6016 235.804L95.8066 235.926C96.1247 236.116 96.3731 236.367 96.5312 236.683C96.685 236.989 96.7229 237.296 96.7236 237.549C96.7243 237.792 96.6891 238.032 96.6641 238.204C96.6358 238.399 96.6171 238.53 96.6133 238.652C96.5873 239.5 96.6132 240.382 96.7559 241.178C97.9469 240.318 99.2545 239.859 100.602 239.848C102.363 239.832 104.076 240.581 105.565 241.974L105.973 242.375C107.968 244.442 109.297 247.374 109.915 250.396C110.575 253.622 110.449 257.068 109.356 259.839C107.335 264.967 101.835 269.406 96.3447 270.245H96.3438C96.1291 270.278 95.8915 270.295 95.7354 270.31C95.5556 270.327 95.4309 270.345 95.3311 270.372L95.1973 270.408L95.0596 270.401C94.8385 270.39 94.6044 270.397 94.3223 270.405C94.0553 270.413 93.7425 270.422 93.4316 270.4C91.1471 270.24 89.0433 269.225 87.3096 267.948C86.9057 267.651 86.0944 266.928 85.4053 266.353C85.0402 266.048 84.6919 265.767 84.4004 265.559C84.2546 265.454 84.1345 265.377 84.042 265.324C83.992 265.296 83.9619 265.281 83.9482 265.274C83.8059 265.248 83.6709 265.283 83.498 265.508C83.3248 265.733 83.1988 266.064 83.1504 266.37L83.1348 266.499C83.1292 266.563 83.1318 266.643 83.1348 266.824C83.1372 266.974 83.1387 267.192 83.1055 267.413C83.0721 267.634 82.9934 267.934 82.7773 268.202C82.5432 268.493 82.2174 268.661 81.8525 268.719C81.2627 268.812 80.5294 268.774 79.8574 268.668C79.2694 268.575 78.6504 268.417 78.1455 268.194L77.9365 268.095C77.4949 267.868 77.0088 267.467 76.6299 267.02C76.2727 266.598 75.8674 265.966 75.8682 265.266C75.8683 265.045 75.9242 264.793 75.9717 264.605C76.0255 264.392 76.0966 264.156 76.1699 263.929C76.3168 263.474 76.4859 263.017 76.5781 262.783V262.782C77.3317 260.872 78.3706 259.453 79.8291 258.58C81.2831 257.71 83.0379 257.453 85.0859 257.632C86.0429 257.716 87.0175 257.898 87.8633 258.031C88.7421 258.17 89.4973 258.258 90.1504 258.207C90.7832 258.158 91.2647 257.982 91.6475 257.635C92.0397 257.278 92.4206 256.656 92.6807 255.539C93.1912 253.346 93.2278 250.923 92.3848 248.975C90.8073 245.326 88.4182 242.806 89.5137 237.705C89.5883 237.356 89.6781 236.338 90.6816 235.881L90.8525 235.804H95.6016Z"
			fill="#FDF4EB" stroke="#372E2D" stroke-width="1.73333" />
		<path
			d="M80.8652 243.049C81.3635 242.998 81.8986 243.026 82.3506 243.051C82.9127 243.082 83.3699 243.108 83.749 243.066L83.7764 243.063L83.8037 243.062C84.0894 243.049 84.3196 243.151 84.4648 243.24C84.6152 243.333 84.7351 243.449 84.8252 243.556C84.9165 243.664 84.9973 243.789 85.0586 243.921C85.1147 244.042 85.1826 244.229 85.1826 244.449V245.866H86.6318C87.2718 245.866 87.5984 246.358 87.71 246.57C87.8431 246.824 87.9098 247.106 87.9258 247.323C87.9752 247.996 88.0121 249.581 87.9141 250.305C87.8781 250.572 87.7512 250.835 87.6143 251.025C87.5399 251.129 87.4342 251.252 87.293 251.355C87.1546 251.457 86.9275 251.579 86.6318 251.579H85.1816V252.951C85.1816 253.38 84.9513 253.716 84.7627 253.907C84.5723 254.1 84.2424 254.329 83.8184 254.339L83.7656 254.34L83.7119 254.335C83.3318 254.297 82.8877 254.321 82.3486 254.349C81.8485 254.374 81.2524 254.404 80.71 254.326V254.325C80.4446 254.287 80.1946 254.156 80.0264 254.034C79.9323 253.966 79.8191 253.87 79.7207 253.741C79.6296 253.622 79.4902 253.395 79.4902 253.087V251.579H77.9502C77.6602 251.579 77.4405 251.458 77.3145 251.367C77.1815 251.272 77.0799 251.16 77.0068 251.062C76.8769 250.89 76.734 250.625 76.7031 250.332L76.6738 249.907C76.6568 249.478 76.674 249.044 76.6914 248.65C76.7158 248.098 76.7398 247.618 76.707 247.186L76.709 247.185C76.6817 246.848 76.8384 246.599 76.8887 246.523C76.9679 246.404 77.061 246.307 77.1357 246.238C77.213 246.167 77.3008 246.099 77.3906 246.042C77.435 246.014 77.4945 245.979 77.5635 245.949C77.6096 245.929 77.7572 245.866 77.9502 245.866H79.4902V244.313C79.4902 244.036 79.6029 243.823 79.6855 243.701C79.7732 243.572 79.8768 243.472 79.9668 243.398C80.1247 243.27 80.3719 243.119 80.6543 243.075L80.8652 243.049Z"
			fill="#FDF4EB" stroke="#372E2D" stroke-width="1.73333" />
		<g clip-path="url(#clip9_459_15712)">
			<path
				d="M57.4794 218.191C57.8401 218.666 59.4016 218.132 61.0054 216.956C62.6091 215.779 63.613 214.45 63.2524 213.975"
				fill="#FDF4EB" />
			<path
				d="M57.4794 218.191C57.8401 218.666 59.4016 218.132 61.0054 216.956C62.6091 215.779 63.613 214.45 63.2524 213.975"
				stroke="#4CC9E9" stroke-width="1.73333" stroke-linecap="round" stroke-linejoin="round" />
			<path
				d="M59.874 221.399C60.2346 221.873 61.7962 221.339 63.3999 220.163C65.0036 218.987 66.0076 217.657 65.6469 217.183"
				fill="#FDF4EB" />
			<path
				d="M59.874 221.399C60.2346 221.873 61.7962 221.339 63.3999 220.163C65.0036 218.987 66.0076 217.657 65.6469 217.183"
				stroke="#4CC9E9" stroke-width="1.73333" stroke-linecap="round" stroke-linejoin="round" />
			<path
				d="M62.2665 224.606C62.6272 225.081 64.1888 224.547 65.7925 223.371C67.3962 222.194 68.4002 220.865 68.0395 220.39"
				fill="#FDF4EB" />
			<path
				d="M62.2665 224.606C62.6272 225.081 64.1888 224.547 65.7925 223.371C67.3962 222.194 68.4002 220.865 68.0395 220.39"
				stroke="#4CC9E9" stroke-width="1.73333" stroke-linecap="round" stroke-linejoin="round" />
			<path
				d="M64.6611 227.814C65.0217 228.288 66.5833 227.754 68.187 226.578C69.7907 225.402 70.7947 224.072 70.434 223.598"
				fill="#FDF4EB" />
			<path
				d="M64.6611 227.814C65.0217 228.288 66.5833 227.754 68.187 226.578C69.7907 225.402 70.7947 224.072 70.434 223.598"
				stroke="#4CC9E9" stroke-width="1.73333" stroke-linecap="round" stroke-linejoin="round" />
		</g>
	</g>
	<g clip-path="url(#clip10_459_15712)">
		<path d="M128.554 378.904C132.421 394.565 124.246 414.285 111.855 424.341" stroke="#4CC9E9" stroke-width="1.73333"
			stroke-linecap="round" stroke-linejoin="round" stroke-dasharray="0.12 2.38" />
		<path d="M127.317 376.183C131.835 392.858 122.519 416.061 108.568 426.14" stroke="#4CC9E9" stroke-width="1.73333"
			stroke-linecap="round" stroke-linejoin="round" stroke-dasharray="0.12 2.38" />
		<path d="M125.711 373.161C131.277 390.367 120.773 416.245 106.566 426.993" stroke="#4CC9E9" stroke-width="1.73333"
			stroke-linecap="round" stroke-linejoin="round" stroke-dasharray="0.12 2.38" />
		<path d="M124.453 371.293C129.367 389.237 118.794 415.761 104.703 427.524" stroke="#4CC9E9" stroke-width="1.73333"
			stroke-linecap="round" stroke-linejoin="round" stroke-dasharray="0.12 2.38" />
		<path d="M123.08 369.702C126.853 388.384 116.535 415.046 102.654 427.916" stroke="#4CC9E9" stroke-width="1.73333"
			stroke-linecap="round" stroke-linejoin="round" stroke-dasharray="0.12 2.38" />
		<path d="M121.475 368.11C123.873 382.364 115.349 414.839 100.49 428.17" stroke="#4CC9E9" stroke-width="1.73333"
			stroke-linecap="round" stroke-linejoin="round" stroke-dasharray="0.12 2.38" />
		<path d="M119.632 366.565C120.82 386.815 111.551 412.924 98.252 428.285" stroke="#4CC9E9" stroke-width="1.73333"
			stroke-linecap="round" stroke-linejoin="round" stroke-dasharray="0.12 2.38" />
		<path d="M117.56 365.02C117.514 385.893 108.664 411.609 95.9473 428.216" stroke="#4CC9E9" stroke-width="1.73333"
			stroke-linecap="round" stroke-linejoin="round" stroke-dasharray="0.12 2.38" />
		<path d="M115.348 363.566C113.858 385.062 105.566 410.087 93.5254 428.031" stroke="#4CC9E9" stroke-width="1.73333"
			stroke-linecap="round" stroke-linejoin="round" stroke-dasharray="0.12 2.38" />
		<path
			d="M112.996 362.183C110.573 380.403 104.308 399.385 96.809 416.13C95.0157 420.12 93.2223 423.949 91.0098 427.731"
			stroke="#4CC9E9" stroke-width="1.73333" stroke-linecap="round" stroke-linejoin="round"
			stroke-dasharray="0.12 2.38" />
		<path
			d="M110.526 360.891C106.986 379.089 100.861 397.494 93.9437 414.7C92.2203 418.967 90.4968 423.165 88.4473 427.293"
			stroke="#4CC9E9" stroke-width="1.73333" stroke-linecap="round" stroke-linejoin="round"
			stroke-dasharray="0.12 2.38" />
		<path
			d="M107.919 359.669C103.144 378.305 96.9258 396.872 90.3347 414.931C88.8907 418.875 87.4467 422.796 85.8164 426.694"
			stroke="#4CC9E9" stroke-width="1.73333" stroke-linecap="round" stroke-linejoin="round"
			stroke-dasharray="0.12 2.38" />
		<path
			d="M105.216 358.539C99.3936 376.875 93.2218 395.118 87.3061 413.431C85.9553 417.629 84.6044 421.827 83.207 426.002"
			stroke="#4CC9E9" stroke-width="1.73333" stroke-linecap="round" stroke-linejoin="round"
			stroke-dasharray="0.12 2.38" />
		<path
			d="M102.467 357.524C95.5733 375.699 89.2617 394.104 83.9749 412.786C82.8104 416.914 81.6924 421.043 80.6211 425.171"
			stroke="#4CC9E9" stroke-width="1.73333" stroke-linecap="round" stroke-linejoin="round"
			stroke-dasharray="0.12 2.38" />
		<path
			d="M99.6738 356.647C91.8483 374.199 85.4435 392.789 80.8554 411.425C79.8073 415.692 78.8291 419.936 78.0605 424.272"
			stroke="#4CC9E9" stroke-width="1.73333" stroke-linecap="round" stroke-linejoin="round"
			stroke-dasharray="0.12 2.38" />
		<path
			d="M96.8789 355.909C88.0986 372.769 81.4609 392.166 77.6413 410.71C76.7796 414.908 76.0343 419.013 75.5918 423.257"
			stroke="#4CC9E9" stroke-width="1.73333" stroke-linecap="round" stroke-linejoin="round"
			stroke-dasharray="0.12 2.38" />
		<path
			d="M94.0825 355.31C84.5568 371.178 77.6164 391.52 74.5654 409.695C73.8667 413.87 73.331 417.906 73.168 422.127"
			stroke="#4CC9E9" stroke-width="1.73333" stroke-linecap="round" stroke-linejoin="round"
			stroke-dasharray="0.12 2.38" />
		<path
			d="M91.3823 354.872C81.2977 369.564 74.0545 390.713 71.7022 408.404C71.1432 412.648 70.7706 416.661 70.9103 420.928"
			stroke="#4CC9E9" stroke-width="1.73333" stroke-linecap="round" stroke-linejoin="round"
			stroke-dasharray="0.12 2.38" />
		<path
			d="M88.7491 354.618C78.0589 368.295 70.7458 389.652 68.9758 407.089C68.5333 411.402 68.3469 415.369 68.7662 419.682"
			stroke="#4CC9E9" stroke-width="1.73333" stroke-linecap="round" stroke-linejoin="round"
			stroke-dasharray="0.12 2.38" />
		<path
			d="M86.2585 354.525C74.6834 367.349 67.3004 389.283 66.3222 406.651C66.0893 410.733 66.1359 414.331 66.8113 418.321"
			stroke="#4CC9E9" stroke-width="1.73333" stroke-linecap="round" stroke-linejoin="round"
			stroke-dasharray="0.12 2.38" />
		<path
			d="M83.9066 354.641C71.6094 366.496 63.9004 389.445 63.9004 406.443C63.9004 410.202 64.2032 413.339 65.0183 416.96"
			stroke="#4CC9E9" stroke-width="1.73333" stroke-linecap="round" stroke-linejoin="round"
			stroke-dasharray="0.12 2.38" />
		<path
			d="M81.7405 354.964C68.1624 366.219 59.2889 392.697 61.9672 410.18C62.27 412.094 62.8057 413.709 63.3646 415.531"
			stroke="#4CC9E9" stroke-width="1.73333" stroke-linecap="round" stroke-linejoin="round"
			stroke-dasharray="0.12 2.38" />
		<path d="M79.7839 355.448C64.2494 366.449 55.3293 396.225 61.9437 414.054" stroke="#4CC9E9" stroke-width="1.73333"
			stroke-linecap="round" stroke-linejoin="round" stroke-dasharray="0.12 2.38" />
		<path d="M77.2215 356.463C62.0829 367.096 53.1395 395.395 60.7321 412.555" stroke="#4CC9E9" stroke-width="1.73333"
			stroke-linecap="round" stroke-linejoin="round" stroke-dasharray="0.12 2.38" />
		<path d="M74.217 357.962C60.0566 368.548 52.7901 392.651 58.6825 409.257" stroke="#4CC9E9" stroke-width="1.73333"
			stroke-linecap="round" stroke-linejoin="round" stroke-dasharray="0.12 2.38" />
		<path d="M70.5842 360.269C56.6335 371.293 52.8605 391.082 57.9843 406.559" stroke="#4CC9E9" stroke-width="1.73333"
			stroke-linecap="round" stroke-linejoin="round" stroke-dasharray="0.12 2.38" />
		<g clip-path="url(#clip11_459_15712)">
			<path
				d="M60.6728 352.965C61.0334 353.438 62.595 352.906 64.1987 351.732C65.8024 350.559 66.8064 349.232 66.4458 348.759"
				fill="#FDF4EB" />
			<path
				d="M60.6728 352.965C61.0334 353.438 62.595 352.906 64.1987 351.732C65.8024 350.559 66.8064 349.232 66.4458 348.759"
				stroke="#4CC9E9" stroke-width="1.73333" stroke-linecap="round" stroke-linejoin="round" />
			<path
				d="M63.0673 356.165C63.428 356.639 64.9895 356.106 66.5933 354.933C68.197 353.759 69.2009 352.433 68.8403 351.959"
				fill="#FDF4EB" />
			<path
				d="M63.0673 356.165C63.428 356.639 64.9895 356.106 66.5933 354.933C68.197 353.759 69.2009 352.433 68.8403 351.959"
				stroke="#4CC9E9" stroke-width="1.73333" stroke-linecap="round" stroke-linejoin="round" />
			<path
				d="M65.4599 359.365C65.8205 359.838 67.3821 359.306 68.9858 358.132C70.5896 356.959 71.5935 355.632 71.2329 355.159"
				fill="#FDF4EB" />
			<path
				d="M65.4599 359.365C65.8205 359.838 67.3821 359.306 68.9858 358.132C70.5896 356.959 71.5935 355.632 71.2329 355.159"
				stroke="#4CC9E9" stroke-width="1.73333" stroke-linecap="round" stroke-linejoin="round" />
			<path
				d="M67.8525 362.565C68.2131 363.038 69.7747 362.506 71.3784 361.333C72.9821 360.159 73.9861 358.833 73.6255 358.359"
				fill="#FDF4EB" />
			<path
				d="M67.8525 362.565C68.2131 363.038 69.7747 362.506 71.3784 361.333C72.9821 360.159 73.9861 358.833 73.6255 358.359"
				stroke="#4CC9E9" stroke-width="1.73333" stroke-linecap="round" stroke-linejoin="round" />
		</g>
		<g clip-path="url(#clip12_459_15712)">
			<path
				d="M113.386 390.207L113.385 390.225C113.278 392.656 112.288 395.836 110.635 398.383C108.997 400.907 106.536 403.051 103.421 402.87C101.531 402.76 99.5613 402.005 98.2119 400.575V406.437C98.2119 406.761 98.0748 407.015 97.9609 407.173C97.8422 407.338 97.6982 407.471 97.5654 407.571C97.3198 407.756 96.9711 407.936 96.6221 407.979H96.6211C96.2992 408.018 95.7317 408.034 95.2109 408.033C94.6944 408.032 94.1192 408.014 93.792 407.967H93.791C93.1246 407.871 92.6749 407.463 92.418 406.952L92.3262 406.769L92.3252 406.565L92.292 393.585L92.291 393.532L92.2979 393.479C92.7572 389.667 95.2546 386.571 98.6006 385.04C98.0217 383.268 98.0061 381.225 98.6211 379.489C99.3501 377.431 101.003 375.743 103.652 375.584C107.158 375.374 109.565 377.113 111.083 379.541C112.574 381.925 113.236 384.994 113.385 387.664L113.386 387.688V390.207Z"
				fill="#FDF4EB" stroke="#372E2D" stroke-width="1.73333" />
			<path
				d="M80.9209 375.585L81.166 375.604C83.6713 375.85 85.2444 377.498 85.9512 379.491C86.5667 381.227 86.5501 383.27 85.9707 385.04C89.3174 386.571 91.816 389.667 92.2754 393.479L92.2812 393.532V393.586L92.248 406.565L92.2471 406.771L92.1543 406.953C91.9136 407.43 91.5054 407.821 90.9033 407.946L90.7803 407.968C90.4531 408.014 89.8786 408.032 89.3623 408.033C88.8416 408.034 88.2738 408.018 87.9521 407.979H87.9502C87.6019 407.937 87.2539 407.756 87.0078 407.571C86.8749 407.471 86.7302 407.339 86.6113 407.174C86.4972 407.015 86.3613 406.761 86.3613 406.438V400.574C84.9932 402.026 82.9879 402.786 81.0684 402.876C78.6689 402.989 76.6597 401.667 75.165 399.993C73.6647 398.313 72.5762 396.17 71.9971 394.345C70.9771 391.13 70.8667 386.41 72.1143 382.526C72.7409 380.576 73.7306 378.772 75.1855 377.484C76.5686 376.26 78.3337 375.538 80.4854 375.569L80.9209 375.585Z"
				fill="#FDF4EB" stroke="#372E2D" stroke-width="1.73333" />
		</g>
	</g>
	<defs>
		<clipPath id="clip0_459_15712">
			<rect width="79" height="85" fill="white" />
		</clipPath>
		<clipPath id="clip1_459_15712">
			<rect width="79" height="83" fill="white" transform="translate(52 70)" />
		</clipPath>
		<clipPath id="clip2_459_15712">
			<rect width="20.4677" height="18.4441" fill="white" transform="translate(58.666 75.8945) rotate(19.7156)" />
		</clipPath>
		<clipPath id="clip3_459_15712">
			<rect width="79" height="85" fill="white" transform="translate(0 137)" />
		</clipPath>
		<clipPath id="clip4_459_15712">
			<rect width="20.5446" height="18.239" fill="white"
				transform="matrix(-0.00357371 0.999994 -0.999993 -0.00368206 75.3496 136.32)" />
		</clipPath>
		<clipPath id="clip5_459_15712">
			<rect width="79" height="84" fill="white" transform="translate(0 276)" />
		</clipPath>
		<clipPath id="clip6_459_15712">
			<rect width="20.4963" height="18.239" fill="white"
				transform="matrix(-0.00358213 0.999994 -0.999993 -0.00367339 75.3496 276.067)" />
		</clipPath>
		<clipPath id="clip7_459_15712">
			<rect width="37.92" height="40.8" fill="white" transform="translate(21.3281 300.8)" />
		</clipPath>
		<clipPath id="clip8_459_15712">
			<rect width="79" height="85" fill="white" transform="translate(52 207)" />
		</clipPath>
		<clipPath id="clip9_459_15712">
			<rect width="20.456" height="18.5032" fill="white"
				transform="matrix(0.940853 0.338814 -0.335894 0.9419 56.6172 208.604)" />
		</clipPath>
		<clipPath id="clip10_459_15712">
			<rect width="79" height="84" fill="white" transform="translate(52 345)" />
		</clipPath>
		<clipPath id="clip11_459_15712">
			<rect width="20.4504" height="18.4646" fill="white"
				transform="matrix(0.941107 0.338109 -0.336597 0.941649 59.8105 343.4)" />
		</clipPath>
		<clipPath id="clip12_459_15712">
			<rect width="43.8889" height="36" fill="white" transform="translate(70.3516 373.8)" />
		</clipPath>
	</defs>
</svg>